<svg width="47" height="43" viewBox="0 0 47 43" fill="none" xmlns="http://www.w3.org/2000/svg">
<path fill-rule="evenodd" clip-rule="evenodd" d="M25.3146 5.59639C26.0897 5.88868 26.4812 6.75401 26.1889 7.52916C23.9973 13.3411 24.317 17.5995 25.0474 21.9454C25.1658 22.6503 25.2971 23.3639 25.4308 24.091C26.1251 27.8667 26.8864 32.0069 26.275 37.1761C26.1777 37.9988 25.4319 38.5868 24.6092 38.4895C23.7865 38.3922 23.1984 37.6464 23.2957 36.8237C23.8499 32.1389 23.1809 28.4792 22.4941 24.7213C22.3565 23.9687 22.2182 23.2121 22.0889 22.4426C21.3106 17.8119 20.9332 12.9642 23.3818 6.47067C23.6741 5.69552 24.5394 5.30409 25.3146 5.59639Z" fill="#FF0057"/>
</svg>
