<svg width="47" height="43" viewBox="0 0 47 43" fill="none" xmlns="http://www.w3.org/2000/svg">
<path fill-rule="evenodd" clip-rule="evenodd" d="M25.6675 4.66073C26.9594 5.14788 27.6118 6.59011 27.1247 7.88202C25.0187 13.4668 25.3192 17.5286 26.0337 21.7797C26.1486 22.4638 26.2775 23.1634 26.4099 23.8818C27.1062 27.6606 27.8988 31.962 27.2682 37.2936C27.106 38.6647 25.863 39.6448 24.4918 39.4826C23.1207 39.3205 22.1406 38.0774 22.3028 36.7063C22.8379 32.182 22.1993 28.6814 21.5154 24.9325C21.3766 24.1716 21.2359 23.4004 21.1028 22.6084C20.3086 17.8828 19.912 12.8386 22.4462 6.11787C22.9334 4.82595 24.3756 4.17357 25.6675 4.66073Z" fill="white"/>
</svg>
