<svg width="47" height="43" viewBox="0 0 47 43" fill="none" xmlns="http://www.w3.org/2000/svg">
<path fill-rule="evenodd" clip-rule="evenodd" d="M25.052 5.91897C25.6491 6.49328 25.6675 7.44285 25.0932 8.03989C22.7596 10.4658 22.3107 12.4836 22.5619 14.3265C22.837 16.3454 23.9596 18.3391 25.3007 20.7195C26.5748 22.9809 28.0376 25.5832 28.4089 28.4628C28.7971 31.4728 27.987 34.6173 25.1583 37.9677C24.6239 38.6007 23.6775 38.6806 23.0445 38.1461C22.4115 37.6117 22.3316 36.6653 22.866 36.0323C25.2213 33.2427 25.701 30.9208 25.4336 28.8465C25.1493 26.6419 24.011 24.542 22.687 22.1921C22.6383 22.1057 22.5893 22.0189 22.5401 21.9316C21.3177 19.7651 19.9434 17.3295 19.5893 14.7316C19.1971 11.853 20.0563 8.94865 22.9311 5.96011C23.5054 5.36308 24.455 5.34465 25.052 5.91897Z" fill="#FF0057"/>
</svg>
