<svg width="47" height="43" viewBox="0 0 47 43" fill="none" xmlns="http://www.w3.org/2000/svg">
<path fill-rule="evenodd" clip-rule="evenodd" d="M25.7454 5.19828C26.7405 6.15547 26.7712 7.73808 25.814 8.73315C23.6608 10.9715 23.3487 12.6938 23.5528 14.1915C23.7969 15.9825 24.8029 17.7985 26.172 20.2286L26.2009 20.2799C27.4534 22.5028 29.0035 25.254 29.4008 28.3349C29.8292 31.6568 28.909 35.0754 25.9225 38.6128C25.0318 39.6678 23.4545 39.8009 22.3995 38.9102C21.3445 38.0195 21.2113 36.4422 22.102 35.3872C24.2994 32.7845 24.6691 30.7368 24.4419 28.9744C24.1866 26.9947 23.1565 25.0624 21.8158 22.6829C21.7585 22.5812 21.7004 22.4783 21.6417 22.3743C20.4413 20.2489 18.9793 17.6603 18.5986 14.8666C18.1593 11.6429 19.1553 8.44294 22.2105 5.26686C23.1677 4.27179 24.7503 4.24109 25.7454 5.19828Z" fill="white"/>
</svg>
