<svg width="47" height="43" viewBox="0 0 47 43" fill="none" xmlns="http://www.w3.org/2000/svg">
<path fill-rule="evenodd" clip-rule="evenodd" d="M26.3024 6.16268C26.7648 6.85005 26.5825 7.78212 25.8951 8.24451C24.3549 9.28054 23.5907 10.4873 23.5208 11.9917C23.4459 13.6042 24.1509 15.8565 26.2906 18.943C26.9527 19.8981 27.3454 20.848 27.4628 21.8097C27.5809 22.7777 27.4071 23.6519 27.0962 24.43C26.7931 25.1886 26.3541 25.8686 25.9304 26.4634C25.7302 26.7446 25.521 27.0236 25.3231 27.2874L25.2843 27.3391C25.0708 27.6238 24.8696 27.8933 24.6786 28.1644C23.9059 29.2617 23.4611 30.1772 23.5027 31.2171C23.5445 32.2613 24.0967 33.7749 26.1537 35.9756C26.7194 36.5809 26.6873 37.5301 26.0821 38.0958C25.4769 38.6614 24.5277 38.6294 23.962 38.0242C21.6602 35.5615 20.5875 33.393 20.5051 31.3372C20.4226 29.2771 21.3543 27.6747 22.2258 26.4372C22.4459 26.1246 22.6724 25.8217 22.8841 25.5394L22.917 25.4955C23.1204 25.2243 23.3088 24.9731 23.4868 24.7232C23.8649 24.1922 24.1404 23.7422 24.3104 23.3168C24.4726 22.9109 24.5305 22.5471 24.4849 22.1731C24.4385 21.7929 24.2719 21.2968 23.8251 20.6522C21.5289 17.3399 20.4046 14.4239 20.524 11.8525C20.6485 9.173 22.1021 7.18037 24.2206 5.75531C24.908 5.29291 25.8401 5.4753 26.3024 6.16268Z" fill="#FF0057"/>
</svg>
