<svg width="47" height="43" viewBox="0 0 47 43" fill="none" xmlns="http://www.w3.org/2000/svg">
<path fill-rule="evenodd" clip-rule="evenodd" d="M27.1322 5.60462C27.9028 6.75025 27.5989 8.3037 26.4532 9.07435C25.1059 9.9807 24.5714 10.9256 24.5197 12.0382C24.4597 13.3311 25.0249 15.3621 27.1124 18.3734C27.8463 19.432 28.3144 20.5331 28.4554 21.6887C28.5977 22.8547 28.3853 23.899 28.0248 24.8012C27.6773 25.6708 27.1838 26.4274 26.745 27.0436C26.5373 27.3353 26.3211 27.6235 26.1247 27.8854L26.0844 27.9392C25.8703 28.2247 25.6775 28.4829 25.4963 28.7403C24.7565 29.7908 24.4739 30.4773 24.5019 31.1772C24.5302 31.8842 24.9088 33.1794 26.8842 35.2929C27.8271 36.3016 27.7736 37.8836 26.7649 38.8264C25.7562 39.7692 24.1742 39.7158 23.2314 38.7071C20.8481 36.1572 19.6018 33.7703 19.5059 31.3773C19.4098 28.9772 20.5037 27.1458 21.4081 25.8615C21.638 25.5351 21.8729 25.2211 22.0841 24.9395L22.1142 24.8994C22.3201 24.6249 22.5016 24.3828 22.6722 24.1432C23.0352 23.6336 23.2562 23.2602 23.3818 22.9458C23.4944 22.664 23.5137 22.4703 23.4923 22.2944C23.4695 22.1079 23.3783 21.7631 23.0032 21.222C20.6549 17.8344 19.3908 14.6972 19.5251 11.8062C19.6678 8.73499 21.3512 6.48042 23.6625 4.92567C24.8081 4.15502 26.3615 4.45899 27.1322 5.60462Z" fill="white"/>
</svg>
