<svg width="47" height="43" viewBox="0 0 47 43" fill="none" xmlns="http://www.w3.org/2000/svg">
<path fill-rule="evenodd" clip-rule="evenodd" d="M27.7857 5.43574C28.0974 6.78082 27.2596 8.12387 25.9146 8.43554C23.4835 8.99886 22.683 10.3286 22.5476 11.2548C22.406 12.224 22.8634 13.4809 24.4238 14.2679C27.4648 15.8017 29.5087 18.4064 29.4999 21.4448C29.491 24.5394 27.3615 27.0456 24.2403 28.3157C22.8492 28.8818 22.3788 30.0234 22.5258 31.0048C22.6624 31.9172 23.4404 33.1754 25.7319 33.5294C27.0964 33.7402 28.0317 35.0172 27.8209 36.3817C27.6101 37.7463 26.3331 38.6815 24.9686 38.4708C20.7863 37.8247 18.0807 35.083 17.5809 31.7453C17.0915 28.4767 18.8318 25.1184 22.3558 23.6844C24.1496 22.9545 24.4984 21.9607 24.4999 21.4304C24.5016 20.8438 24.088 19.6985 22.1722 18.7322C18.8724 17.0679 17.119 13.8248 17.6002 10.5318C18.0877 7.19583 20.7434 4.50128 24.7859 3.56459C26.131 3.25292 27.474 4.09066 27.7857 5.43574Z" fill="white"/>
</svg>
