<svg width="16" height="30" viewBox="0 0 16 30" fill="none" xmlns="http://www.w3.org/2000/svg">
<path fill-rule="evenodd" clip-rule="evenodd" d="M14.26 3.07622C9.98686 2.64837 7.63918 4.05923 6.68078 5.52177C6.53722 5.74084 6.41915 5.96807 6.32669 6.20039C6.95998 6.00867 7.60034 5.88239 8.22761 5.81274C10.1491 5.5994 12.1019 5.89982 13.5628 6.63902C14.2942 7.00909 14.9922 7.53579 15.4541 8.25785C15.9422 9.02111 16.1225 9.94392 15.854 10.9041C15.5885 11.8537 14.8971 12.5806 14.169 13.077C13.4186 13.5885 12.4924 13.9537 11.5054 14.1281C9.52577 14.4781 7.10815 14.0864 5.18895 12.2693C4.80509 11.9058 4.47315 11.5129 4.19344 11.0981C3.56106 11.9473 3.10271 13.1043 3.0152 14.6796C3.01672 14.7073 3.01749 14.7352 3.01749 14.7633C3.01748 16.6274 3.5061 17.9562 4.21092 18.9027C4.49062 18.488 4.82257 18.095 5.20642 17.7315C7.12562 15.9144 9.54324 15.5227 11.5229 15.8727C12.5099 16.0471 13.4361 16.4123 14.1864 16.9238C14.9146 17.4202 15.606 18.1471 15.8715 19.0967C16.14 20.0569 15.9597 20.9797 15.4715 21.743C15.0097 22.465 14.3117 22.9917 13.5803 23.3618C12.1194 24.101 10.1666 24.4014 8.24508 24.1881C7.61781 24.1184 6.97746 23.9921 6.34416 23.8004C6.43662 24.0327 6.5547 24.26 6.69825 24.479C7.65665 25.9416 10.0043 27.3524 14.2774 26.9246C15.1017 26.8421 15.8369 27.4434 15.9194 28.2677C16.0019 29.092 15.4006 29.8271 14.5763 29.9097C9.56956 30.411 5.94437 28.8021 4.18901 26.1233C3.37071 24.8746 3.01382 23.4611 3.10971 22.0771C2.95311 21.9455 2.80012 21.8072 2.65123 21.6619C1.18197 20.2278 0.214038 18.2125 0.0442371 15.6005C0.0153503 15.4843 1.81198e-05 15.3627 1.81198e-05 15.2375C-2.86102e-06 12.2153 1.01117 9.92271 2.63376 8.33894C2.78265 8.19361 2.93564 8.05526 3.09224 7.92369C2.99635 6.53972 3.35324 5.12622 4.17154 3.87747C5.9269 1.19875 9.55209 -0.410161 14.5588 0.0911422C15.3832 0.173676 15.9845 0.908815 15.9019 1.73312C15.8194 2.55743 15.0843 3.15875 14.26 3.07622ZM8.55866 8.79442C7.88068 8.8697 7.21424 9.03129 6.59332 9.28464C6.76808 9.56972 6.9874 9.8407 7.25155 10.0908C8.35968 11.14 9.76223 11.3898 10.9832 11.174C11.5964 11.0655 12.1156 10.846 12.4791 10.5982C12.8649 10.3352 12.9559 10.1281 12.9648 10.0963C12.9886 10.0111 12.9847 9.96491 12.9268 9.87428C12.8425 9.74245 12.6324 9.53043 12.2084 9.31586C11.3583 8.88577 10.0106 8.63321 8.55866 8.79442ZM8.57614 21.2064C7.89815 21.1311 7.23172 20.9695 6.61079 20.7162C6.78556 20.4311 7.00487 20.1601 7.26902 19.91C8.37716 18.8608 9.7797 18.611 11.0006 18.8269C11.6139 18.9353 12.133 19.1548 12.4966 19.4026C12.8823 19.6656 12.9734 19.8727 12.9823 19.9045C13.0061 19.9897 13.0022 20.0359 12.9442 20.1265C12.8599 20.2584 12.6499 20.4704 12.2258 20.6849C11.3758 21.115 10.0281 21.3676 8.57614 21.2064Z" fill="#FF0057"/>
</svg>
