<svg width="47" height="43" viewBox="0 0 47 43" fill="none" xmlns="http://www.w3.org/2000/svg">
<path fill-rule="evenodd" clip-rule="evenodd" d="M30.2638 9.07622C25.9907 8.64837 23.643 10.0592 22.6846 11.5218C22.5411 11.7408 22.423 11.9681 22.3305 12.2004C22.9638 12.0087 23.6042 11.8824 24.2315 11.8127C26.153 11.5994 28.1057 11.8998 29.5666 12.639C30.298 13.0091 30.9961 13.5358 31.4579 14.2578C31.9461 15.0211 32.1264 15.9439 31.8579 16.9041C31.5923 17.8537 30.901 18.5806 30.1728 19.077C29.4225 19.5885 28.4963 19.9537 27.5092 20.1281C25.5296 20.4781 23.112 20.0864 21.1928 18.2693C20.8089 17.9058 20.477 17.5129 20.1973 17.0981C19.5649 17.9473 19.1066 19.1043 19.019 20.6796C19.0206 20.7073 19.0213 20.7352 19.0213 20.7633C19.0213 22.6274 19.5099 23.9562 20.2148 24.9027C20.4945 24.488 20.8264 24.095 21.2103 23.7315C23.1295 21.9144 25.5471 21.5227 27.5267 21.8727C28.5137 22.0471 29.4399 22.4123 30.1903 22.9238C30.9184 23.4202 31.6098 24.1471 31.8753 25.0967C32.1438 26.0569 31.9635 26.9797 31.4754 27.743C31.0135 28.465 30.3155 28.9917 29.5841 29.3618C28.1232 30.101 26.1705 30.4014 24.2489 30.1881C23.6217 30.1184 22.9813 29.9921 22.348 29.8004C22.4405 30.0327 22.5585 30.26 22.7021 30.479C23.6605 31.9416 26.0082 33.3524 30.2813 32.9246C31.1056 32.8421 31.8407 33.4434 31.9233 34.2677C32.0058 35.092 31.4045 35.8271 30.5802 35.9097C25.5734 36.411 21.9482 34.8021 20.1929 32.1233C19.3746 30.8746 19.0177 29.4611 19.1136 28.0771C18.957 27.9455 18.804 27.8072 18.6551 27.6619C17.1858 26.2278 16.2179 24.2125 16.0481 21.6005C16.0192 21.4843 16.0039 21.3627 16.0039 21.2375C16.0038 18.2153 17.015 15.9227 18.6376 14.3389C18.7865 14.1936 18.9395 14.0553 19.0961 13.9237C19.0002 12.5397 19.3571 11.1262 20.1754 9.87747C21.9307 7.19875 25.5559 5.58984 30.5627 6.09114C31.387 6.17368 31.9883 6.90881 31.9058 7.73312C31.8233 8.55743 31.0881 9.15875 30.2638 9.07622ZM24.5625 14.7944C23.8845 14.8697 23.2181 15.0313 22.5972 15.2846C22.7719 15.5697 22.9912 15.8407 23.2554 16.0908C24.3635 17.14 25.7661 17.3898 26.987 17.174C27.6002 17.0655 28.1194 16.846 28.483 16.5982C28.8687 16.3352 28.9598 16.1281 28.9687 16.0963C28.9925 16.0111 28.9886 15.9649 28.9306 15.8743C28.8463 15.7424 28.6363 15.5304 28.2122 15.3159C27.3622 14.8858 26.0145 14.6332 24.5625 14.7944ZM24.58 27.2064C23.902 27.1311 23.2356 26.9695 22.6146 26.7162C22.7894 26.4311 23.0087 26.1601 23.2729 25.91C24.381 24.8608 25.7835 24.611 27.0045 24.8269C27.6177 24.9353 28.1369 25.1548 28.5005 25.4026C28.8862 25.6656 28.9773 25.8727 28.9862 25.9045C29.01 25.9897 29.0061 26.0359 28.9481 26.1265C28.8638 26.2584 28.6537 26.4704 28.2297 26.6849C27.3797 27.115 26.032 27.3676 24.58 27.2064Z" fill="#FF0057"/>
</svg>
