<svg width="47" height="43" viewBox="0 0 47 43" fill="none" xmlns="http://www.w3.org/2000/svg">
<path fill-rule="evenodd" clip-rule="evenodd" d="M29.7141 10.0735C25.9591 9.69751 23.854 10.7892 22.8755 11.9335C23.1441 11.8841 23.4116 11.8449 23.6764 11.8155C25.6761 11.5935 27.7297 11.9019 29.2924 12.6926C30.0751 13.0886 30.8544 13.6678 31.3792 14.4882C31.9391 15.3636 32.1487 16.4325 31.8395 17.5385C31.5312 18.641 30.7397 19.4546 29.9545 19.9899C29.1397 20.5453 28.1457 20.9348 27.0964 21.1203C24.9903 21.4926 22.4035 21.0772 20.3491 19.1321C20.1266 18.9214 19.9202 18.7013 19.7302 18.4731C19.3527 19.1674 19.0857 20.0513 19.0198 21.1815C19.0209 21.2086 19.0214 21.2357 19.0214 21.263C19.0214 22.6643 19.3104 23.723 19.7477 24.5271C19.9377 24.299 20.144 24.0789 20.3666 23.8682C22.4209 21.9231 25.0077 21.5077 27.1138 21.88C28.1632 22.0655 29.1572 22.455 29.972 23.0104C30.7572 23.5457 31.5487 24.3592 31.8569 25.4618C32.1662 26.5678 31.9565 27.6367 31.3967 28.5121C30.8719 29.3325 30.0925 29.9117 29.3099 30.3077C27.7472 31.0984 25.6936 31.4068 23.6938 31.1848C23.429 31.1554 23.1616 31.1162 22.8929 31.0667C23.8715 32.2111 25.9766 33.3028 29.7315 32.9268C30.8306 32.8168 31.8108 33.6185 31.9208 34.7176C32.0309 35.8167 31.2291 36.7969 30.13 36.9069C25.001 37.4205 21.1629 35.7785 19.2747 32.8971C18.4444 31.6301 18.0565 30.2037 18.102 28.7954C18.0018 28.7062 17.903 28.6142 17.8059 28.5194C16.2476 26.9984 15.237 24.878 15.0521 22.1755C15.0206 22.0345 15.0039 21.8878 15.0039 21.7373C15.0039 18.5959 16.0588 16.1691 17.7884 14.4809C17.8856 14.3861 17.9843 14.2941 18.0845 14.2049C18.039 12.7966 18.427 11.3702 19.2573 10.1032C21.1454 7.22175 24.9835 5.57983 30.1126 6.09338C31.2117 6.20342 32.0134 7.18361 31.9034 8.28268C31.7933 9.38175 30.8131 10.1835 29.7141 10.0735ZM24.1178 15.7911C23.7038 15.8371 23.2974 15.9169 22.9066 16.0312C22.9674 16.098 23.0316 16.1635 23.0992 16.2275C24.0722 17.1487 25.3056 17.3748 26.4 17.1813C26.951 17.0839 27.4023 16.8887 27.7014 16.6848C27.7904 16.6241 27.8547 16.571 27.9004 16.5283C27.82 16.4585 27.6894 16.3644 27.4865 16.2617C26.7383 15.8832 25.4915 15.6386 24.1178 15.7911ZM24.1352 27.2092C23.7212 27.1632 23.3149 27.0834 22.9241 26.9691C22.9849 26.9023 23.0491 26.8368 23.1167 26.7728C24.0897 25.8516 25.323 25.6255 26.4175 25.819C26.9684 25.9164 27.4198 26.1116 27.7189 26.3155C27.8079 26.3762 27.8721 26.4293 27.9178 26.472C27.8375 26.5418 27.7069 26.6359 27.504 26.7385C26.7558 27.1171 25.5089 27.3617 24.1352 27.2092Z" fill="white"/>
</svg>
