<svg width="47" height="43" viewBox="0 0 47 43" fill="none" xmlns="http://www.w3.org/2000/svg">
<path fill-rule="evenodd" clip-rule="evenodd" d="M21.6813 10.7399C22.8712 9.25576 24.9746 8.26039 27.8513 8.54708C28.6756 8.62924 29.4105 8.02757 29.4926 7.20323C29.5748 6.37889 28.9731 5.64403 28.1488 5.56187C22.462 4.99511 18.2274 8.34486 17.6247 12.8441C17.5061 13.7294 17.6453 14.5302 17.955 15.23C17.603 16.3518 17.4383 17.6421 17.5007 19.0961C17.5882 21.1326 18.0623 22.8251 18.7901 24.1748C18.0564 25.6104 17.6114 27.4148 17.6114 29.5879C17.6114 31.0073 17.826 32.2559 18.2016 33.3346C17.8001 33.6609 17.392 34.0165 16.9777 34.4023C16.3715 34.9669 16.3377 35.9161 16.9023 36.5223C17.4669 37.1285 18.4161 37.1623 19.0223 36.5977C19.2531 36.3827 19.4783 36.1814 19.6979 35.9929C20.6586 37.1245 21.867 37.8724 23.1394 38.24C24.5441 38.6458 26.0454 38.5824 27.2668 37.9888C28.5384 37.3709 29.5 36.1564 29.5 34.5019C29.5 32.577 27.9699 30.7582 25.5837 30.4539C24.1869 30.2757 22.5834 30.6095 20.811 31.564C20.6835 30.9846 20.6114 30.3285 20.6114 29.5879C20.6114 28.4889 20.7472 27.5569 20.9748 26.7712C21.674 27.3024 22.4381 27.6822 23.2278 27.9109C24.6384 28.3195 26.1387 28.2329 27.352 27.5883C28.6155 26.917 29.5 25.6587 29.5 24.0223C29.5 22.3562 28.5656 21.106 27.2603 20.4794C26.0138 19.8811 24.4899 19.8615 23.0779 20.336C22.3172 20.5916 21.5841 20.9878 20.9153 21.5243C20.6909 20.8055 20.5405 19.959 20.498 18.9674C20.4804 18.5588 20.4858 18.1772 20.5106 17.8212C21.3212 18.2507 22.2168 18.5307 23.0911 18.6695C24.443 18.8842 25.9429 18.7921 27.1791 18.1932C28.5007 17.553 29.5 16.3189 29.5 14.5404C29.5 12.8168 28.5675 11.5029 27.2763 10.7744C26.0285 10.0704 24.4693 9.90992 23.0005 10.2668C22.5543 10.3752 22.1112 10.5324 21.6813 10.7399ZM21.4095 14.8515C21.4315 14.8176 21.4538 14.7844 21.4763 14.7519C22.0842 13.8728 22.9019 13.378 23.7088 13.182C24.5385 12.9804 25.302 13.1051 25.8022 13.3873C26.2591 13.6451 26.5 14.0184 26.5 14.5404C26.5 15.0075 26.3118 15.2799 25.8712 15.4933C25.3452 15.7481 24.5083 15.857 23.5616 15.7067C22.7211 15.5732 21.9527 15.2597 21.4095 14.8515ZM22.4947 24.1315C22.9968 23.6507 23.5375 23.3464 24.0335 23.1797C24.8436 22.9075 25.5419 22.9823 25.962 23.184C26.3233 23.3574 26.5 23.6128 26.5 24.0223C26.5 24.4614 26.3079 24.7459 25.9444 24.939C25.5306 25.1589 24.8535 25.2585 24.0624 25.0294C23.5631 24.8847 23.0118 24.6004 22.4947 24.1315ZM22.1607 34.2437C23.5441 33.4857 24.5611 33.3477 25.2041 33.4298C26.222 33.5596 26.5 34.2144 26.5 34.5019C26.5 34.8436 26.3505 35.0986 25.9555 35.2906C25.5103 35.5069 24.7894 35.594 23.972 35.3578C23.3764 35.1858 22.7278 34.8353 22.1607 34.2437Z" fill="white"/>
</svg>
