<svg width="11" height="32" viewBox="0 0 11 32" fill="none" xmlns="http://www.w3.org/2000/svg">
<path fill-rule="evenodd" clip-rule="evenodd" d="M4.17557 4.36919C5.05072 3.41386 6.41778 2.84409 8.17586 3.03787C8.9993 3.12864 9.74041 2.53468 9.83117 1.71124C9.92193 0.887805 9.32798 0.146697 8.50454 0.0559331C3.88887 -0.452828 0.585973 2.57708 0.125544 6.3782C0.0351638 7.12434 0.137721 7.80107 0.380464 8.39394C0.112162 9.31291 -0.0111965 10.3674 0.0283546 11.5544C-0.0140361 12.8156 0.127427 13.9272 0.431207 14.8858C0.234611 15.3719 0.119803 15.9223 0.114583 16.5414C0.0967721 18.6532 0.330302 20.4553 0.754287 21.9572C0.19368 22.7698 -0.0902519 23.7973 0.0255463 24.9896C0.0265557 25.0007 0.0276896 25.0117 0.0289485 25.0228C0.0376734 25.1005 0.0522079 25.1761 0.0720744 25.2494C0.845152 28.3665 2.09679 30.3166 3.82319 31.2915C5.54274 32.2625 7.35312 32.0428 8.6668 31.7498C9.47536 31.5695 9.98467 30.7679 9.80437 29.9593C9.62406 29.1508 8.82242 28.6415 8.01386 28.8218C6.89159 29.072 6.01732 29.0852 5.29837 28.6792C4.8258 28.4124 4.24898 27.864 3.71553 26.7016C4.7804 27.4832 6.02005 27.8185 7.18279 27.5888C8.3676 27.3547 9.35466 26.5441 9.76194 25.3335C10.3052 23.7186 9.90553 22.2567 8.86225 21.2536C7.91344 20.3413 6.57501 19.9366 5.34757 19.8938C4.71509 19.8717 4.04677 19.9431 3.40154 20.1293C3.29877 19.5923 3.21911 18.9974 3.16989 18.3396C3.6027 18.569 4.05637 18.7303 4.51468 18.8273C5.72363 19.0831 6.97873 18.8944 7.97531 18.3287C8.98011 17.7583 9.84008 16.7127 9.84007 15.3012C9.84005 13.8764 8.98915 12.8891 7.97918 12.3703C7.02121 11.8781 5.86603 11.7544 4.81021 11.8815C4.24256 11.9498 3.62451 12.1087 3.02883 12.3693C3.01966 12.1538 3.01825 11.9252 3.02576 11.683C3.02903 11.639 3.03039 11.5945 3.02976 11.5496C3.02996 11.5114 3.02872 11.4735 3.02609 11.4359C3.01932 11.2218 3.01951 11.0184 3.02587 10.8252C3.55228 11.0291 4.09987 11.1562 4.62732 11.2187C5.70533 11.3465 6.89002 11.2275 7.87326 10.7556C8.89408 10.2657 9.84019 9.29304 9.8402 7.81142C9.84021 6.39986 8.98024 5.35427 7.97544 4.78389C6.97887 4.21818 5.72376 4.0295 4.51481 4.28531C4.40136 4.30931 4.2882 4.33725 4.17557 4.36919ZM3.92371 7.94805C4.28648 7.52883 4.71663 7.30903 5.13585 7.22032C5.66605 7.10813 6.16839 7.20776 6.49446 7.39285C6.81231 7.57328 6.8402 7.74099 6.8402 7.8114L6.84025 7.81152C6.84196 7.81535 6.8815 7.90401 6.57523 8.05099C6.22512 8.21901 5.64166 8.31793 4.98044 8.23955C4.57746 8.19179 4.21694 8.08668 3.92371 7.94805ZM6.6013 24.6457C6.77644 24.6111 6.86906 24.524 6.91852 24.3769C7.10609 23.8193 6.95764 23.5841 6.78296 23.4161C6.51381 23.1573 5.96439 22.9171 5.24306 22.8919C4.93915 22.8814 4.64917 22.9108 4.38622 22.9718C4.74963 23.6057 5.14158 24.0269 5.49066 24.2831C6.00361 24.6597 6.40414 24.6846 6.6013 24.6457ZM3.97903 15.2265C4.32975 15.6056 4.73766 15.808 5.13572 15.8923C5.66592 16.0044 6.16826 15.9048 6.49433 15.7197C6.81218 15.5393 6.84007 15.3716 6.84007 15.3012L6.84014 15.2923C6.84085 15.2358 6.84181 15.1587 6.60834 15.0387C6.31036 14.8857 5.79025 14.7852 5.16874 14.86C4.69089 14.9175 4.29319 15.0467 3.97903 15.2265Z" fill="#FF0057"/>
</svg>
