<svg width="47" height="43" viewBox="0 0 47 43" fill="none" xmlns="http://www.w3.org/2000/svg">
<path fill-rule="evenodd" clip-rule="evenodd" d="M22.1756 10.3692C23.0507 9.41386 24.4178 8.84409 26.1759 9.03787C26.9993 9.12864 27.7404 8.53468 27.8312 7.71124C27.9219 6.8878 27.328 6.1467 26.5045 6.05593C21.8889 5.54717 18.586 8.57708 18.1255 12.3782C18.0352 13.1243 18.1377 13.8011 18.3805 14.3939C18.1122 15.3129 17.9888 16.3674 18.0284 17.5544C17.986 18.8156 18.1274 19.9272 18.4312 20.8858C18.2346 21.3719 18.1198 21.9223 18.1146 22.5414C18.0968 24.6532 18.3303 26.4553 18.7543 27.9572C18.1937 28.7698 17.9097 29.7973 18.0255 30.9896C18.0266 31.0007 18.0277 31.0117 18.0289 31.0228C18.0377 31.1005 18.0522 31.1761 18.0721 31.2494C18.8452 34.3665 20.0968 36.3166 21.8232 37.2915C23.5427 38.2625 25.3531 38.0428 26.6668 37.7498C27.4754 37.5695 27.9847 36.7679 27.8044 35.9593C27.6241 35.1508 26.8224 34.6415 26.0139 34.8218C24.8916 35.072 24.0173 35.0852 23.2984 34.6792C22.8258 34.4124 22.249 33.864 21.7155 32.7016C22.7804 33.4832 24.02 33.8185 25.1828 33.5888C26.3676 33.3547 27.3547 32.5441 27.7619 31.3335C28.3052 29.7186 27.9055 28.2567 26.8623 27.2536C25.9134 26.3413 24.575 25.9366 23.3476 25.8938C22.7151 25.8717 22.0468 25.9431 21.4015 26.1293C21.2988 25.5923 21.2191 24.9974 21.1699 24.3396C21.6027 24.569 22.0564 24.7303 22.5147 24.8273C23.7236 25.0831 24.9787 24.8944 25.9753 24.3287C26.9801 23.7583 27.8401 22.7127 27.8401 21.3012C27.8401 19.8764 26.9891 18.8891 25.9792 18.3703C25.0212 17.8781 23.866 17.7544 22.8102 17.8815C22.2426 17.9498 21.6245 18.1087 21.0288 18.3693C21.0197 18.1538 21.0183 17.9252 21.0258 17.683C21.029 17.639 21.0304 17.5945 21.0298 17.5496C21.03 17.5114 21.0287 17.4735 21.0261 17.4359C21.0193 17.2218 21.0195 17.0184 21.0259 16.8252C21.5523 17.0291 22.0999 17.1562 22.6273 17.2187C23.7053 17.3465 24.89 17.2275 25.8733 16.7556C26.8941 16.2657 27.8402 15.293 27.8402 13.8114C27.8402 12.3999 26.9802 11.3543 25.9754 10.7839C24.9789 10.2182 23.7238 10.0295 22.5148 10.2853C22.4014 10.3093 22.2882 10.3373 22.1756 10.3692ZM21.9237 13.9481C22.2865 13.5288 22.7166 13.309 23.1358 13.2203C23.666 13.1081 24.1684 13.2078 24.4945 13.3929C24.8123 13.5733 24.8402 13.741 24.8402 13.8114L24.8403 13.8115C24.842 13.8154 24.8815 13.904 24.5752 14.051C24.2251 14.219 23.6417 14.3179 22.9804 14.2396C22.5775 14.1918 22.2169 14.0867 21.9237 13.9481ZM24.6013 30.6457C24.7764 30.6111 24.8691 30.524 24.9185 30.3769C25.1061 29.8193 24.9576 29.5841 24.783 29.4161C24.5138 29.1573 23.9644 28.9171 23.2431 28.8919C22.9391 28.8814 22.6492 28.9108 22.3862 28.9718C22.7496 29.6057 23.1416 30.0269 23.4907 30.2831C24.0036 30.6597 24.4041 30.6846 24.6013 30.6457ZM21.979 21.2265C22.3298 21.6056 22.7377 21.808 23.1357 21.8923C23.6659 22.0044 24.1683 21.9048 24.4943 21.7197C24.8122 21.5393 24.8401 21.3716 24.8401 21.3012L24.8401 21.2923C24.8408 21.2358 24.8418 21.1587 24.6083 21.0387C24.3104 20.8857 23.7902 20.7852 23.1687 20.86C22.6909 20.9175 22.2932 21.0467 21.979 21.2265Z" fill="#FF0057"/>
</svg>
