<svg width="9" height="32" viewBox="0 0 9 32" fill="none" xmlns="http://www.w3.org/2000/svg">
<path fill-rule="evenodd" clip-rule="evenodd" d="M4.72994 3.76997C5.26114 3.17412 5.90472 2.90683 6.69535 3.029C7.51406 3.15552 8.28032 2.59438 8.40683 1.77567C8.53335 0.956962 7.97221 0.190707 7.1535 0.0641931C5.2438 -0.230911 3.61823 0.508754 2.49061 1.77362C1.39921 2.99787 0.78337 4.68521 0.632691 6.42915C0.571703 7.13502 0.646407 7.79091 0.838429 8.37981C0.630918 9.31125 0.537016 10.3761 0.565732 11.5536C0.534778 12.808 0.642924 13.9347 0.87929 14.9085C0.720453 15.4017 0.630615 15.9485 0.627027 16.5449C0.614099 18.694 0.788411 20.5163 1.10946 22.0258C0.674152 22.8455 0.483579 23.8437 0.563021 24.9613C0.567464 25.0238 0.575677 25.0851 0.587421 25.1451C1.11857 28.1506 1.97676 30.1156 3.29747 31.1612C4.76177 32.3205 6.35221 32.0361 7.37206 31.7173C8.16275 31.4701 8.60335 30.6287 8.35616 29.8381C8.10897 29.0474 7.26761 28.6068 6.47692 28.854C5.75922 29.0783 5.43471 29.0269 5.15963 28.8091C4.92069 28.62 4.58515 28.203 4.24711 27.3319C4.86534 27.6436 5.56647 27.7637 6.29185 27.5627C7.4614 27.2388 8.1366 26.232 8.38302 25.2051C8.72837 23.7658 8.50347 22.4434 7.7599 21.4411C7.03396 20.4625 5.92766 19.9484 4.82571 19.8946C4.48764 19.878 4.14467 19.9045 3.80726 19.9754C3.75791 19.5781 3.71713 19.1513 3.68686 18.6934C3.78596 18.7323 3.88721 18.7671 3.99056 18.7977C6.29067 19.4801 8.42432 17.6812 8.4243 15.3011C8.4243 14.1172 7.92492 13.114 7.0546 12.4872C6.22707 11.8912 5.20706 11.7359 4.28473 11.8916C4.03906 11.933 3.79646 11.9967 3.56015 12.0819C3.55945 11.9459 3.56069 11.8052 3.56404 11.6597C3.56619 11.6233 3.56703 11.5866 3.56652 11.5495C3.56668 11.5195 3.56594 11.4896 3.56434 11.4599C3.56115 11.3242 3.55979 11.1927 3.56014 11.0654C3.75744 11.1278 3.95694 11.1754 4.1561 11.2085C5.08497 11.3629 6.11858 11.2175 6.96577 10.6475C7.86509 10.0425 8.42442 9.03975 8.42443 7.81112C8.42444 5.57049 6.53355 3.84498 4.39297 4.21967C4.49823 4.05364 4.61113 3.90324 4.72994 3.76997ZM4.09732 8.0198C4.40289 7.40162 4.74409 7.22017 4.84388 7.19057C5.02484 7.13689 5.42443 7.22726 5.42443 7.8111C5.42443 8.06443 5.34283 8.12366 5.29108 8.15848C5.18719 8.22838 4.95958 8.30091 4.64787 8.24911C4.44495 8.21539 4.25499 8.13591 4.09732 8.0198ZM5.45213 24.5576C5.45671 24.5415 5.46129 24.524 5.46582 24.5051C5.64174 23.772 5.4757 23.3972 5.3505 23.2285C5.20767 23.0359 4.96737 22.9051 4.67928 22.891C4.60768 22.8875 4.53667 22.8914 4.46733 22.9028C4.75375 23.6798 5.06852 24.1732 5.33447 24.4469C5.37884 24.4926 5.41805 24.5288 5.45213 24.5576ZM5.37231 24.7339C5.37192 24.7333 5.37527 24.7286 5.38351 24.7218C5.37681 24.7311 5.37269 24.7345 5.37231 24.7339ZM5.60412 24.6583C5.61688 24.6597 5.62328 24.6622 5.6233 24.6631C5.62331 24.664 5.61694 24.6633 5.60412 24.6583ZM4.13843 15.1728C4.43283 15.7265 4.74843 15.8934 4.84375 15.9216C5.02472 15.9753 5.42431 15.8849 5.4243 15.3011C5.4243 15.0094 5.33108 14.9428 5.30312 14.9229L5.30136 14.9216C5.23301 14.8724 5.05805 14.8035 4.78395 14.8497C4.58157 14.8839 4.34485 14.9813 4.13843 15.1728Z" fill="#FF0057"/>
</svg>
