<svg width="47" height="43" viewBox="0 0 47 43" fill="none" xmlns="http://www.w3.org/2000/svg">
<path fill-rule="evenodd" clip-rule="evenodd" d="M24.1845 9.77046C24.7157 9.17461 25.3593 8.90732 26.1499 9.02949C26.9687 9.15601 27.7349 8.59487 27.8614 7.77616C27.9879 6.95745 27.4268 6.1912 26.6081 6.06468C24.6984 5.76958 23.0728 6.50924 21.9452 7.77411C20.8538 8.99835 20.238 10.6857 20.0873 12.4296C20.0263 13.1355 20.101 13.7914 20.293 14.3803C20.0855 15.3117 19.9916 16.3766 20.0203 17.5541C19.9894 18.8085 20.0975 19.9352 20.3339 20.909C20.175 21.4022 20.0852 21.949 20.0816 22.5454C20.0687 24.6945 20.243 26.5168 20.5641 28.0263C20.1287 28.846 19.9382 29.8442 20.0176 30.9618C20.0221 31.0243 20.0303 31.0856 20.042 31.1456C20.5732 34.1511 21.4313 36.1161 22.7521 37.1617C24.2164 38.321 25.8068 38.0366 26.8267 37.7178C27.6173 37.4706 28.0579 36.6292 27.8108 35.8385C27.5636 35.0479 26.7222 34.6073 25.9315 34.8544C25.2138 35.0788 24.8893 35.0274 24.6142 34.8096C24.3753 34.6205 24.0397 34.2035 23.7017 33.3324C24.3199 33.6441 25.0211 33.7641 25.7464 33.5632C26.916 33.2393 27.5912 32.2325 27.8376 31.2056C28.183 29.7663 27.9581 28.4439 27.2145 27.4416C26.4885 26.463 25.3823 25.9489 24.2803 25.8951C23.9422 25.8785 23.5993 25.905 23.2618 25.9759C23.2125 25.5786 23.1717 25.1518 23.1414 24.6939C23.2405 24.7328 23.3418 24.7676 23.4452 24.7982C25.7453 25.4806 27.8789 23.6817 27.8789 21.3016C27.8789 20.1177 27.3795 19.1145 26.5092 18.4877C25.6817 17.8917 24.6616 17.7364 23.7393 17.892C23.4937 17.9335 23.251 17.9972 23.0147 18.0824C23.014 17.9464 23.0153 17.8057 23.0186 17.6602C23.0208 17.6238 23.0216 17.587 23.0211 17.55C23.0213 17.5199 23.0205 17.4901 23.0189 17.4604C23.0157 17.3247 23.0144 17.1932 23.0147 17.0659C23.212 17.1283 23.4115 17.1759 23.6107 17.209C24.5396 17.3634 25.5732 17.218 26.4204 16.648C27.3197 16.0429 27.879 15.0402 27.879 13.8116C27.879 11.571 25.9881 9.84546 23.8476 10.2202C23.9528 10.0541 24.0657 9.90373 24.1845 9.77046ZM23.5519 14.0203C23.8575 13.4021 24.1987 13.2207 24.2985 13.1911C24.4794 13.1374 24.879 13.2278 24.879 13.8116C24.879 14.0649 24.7974 14.1241 24.7457 14.159C24.6418 14.2289 24.4142 14.3014 24.1025 14.2496C23.8995 14.2159 23.7096 14.1364 23.5519 14.0203ZM24.9067 30.5581C24.9113 30.542 24.9159 30.5245 24.9204 30.5056C25.0963 29.7725 24.9303 29.3977 24.8051 29.229C24.6623 29.0364 24.422 28.9056 24.1339 28.8915C24.0623 28.888 23.9913 28.8919 23.9219 28.9033C24.2083 29.6803 24.5231 30.1737 24.7891 30.4474C24.8334 30.4931 24.8726 30.5293 24.9067 30.5581ZM24.8269 30.7344C24.8265 30.7338 24.8299 30.7291 24.8381 30.7222C24.8314 30.7316 24.8273 30.735 24.8269 30.7344ZM25.0587 30.6588C25.0715 30.6602 25.0779 30.6627 25.0779 30.6636C25.0779 30.6645 25.0715 30.6637 25.0587 30.6588ZM23.593 21.1733C23.8874 21.727 24.203 21.8938 24.2983 21.9221C24.4793 21.9758 24.8789 21.8854 24.8789 21.3016C24.8789 21.0099 24.7857 20.9433 24.7577 20.9234L24.7559 20.9221C24.6876 20.8729 24.5126 20.804 24.2385 20.8502C24.0362 20.8844 23.7994 20.9818 23.593 21.1733Z" fill="white"/>
</svg>
