<svg width="47" height="43" viewBox="0 0 47 43" fill="none" xmlns="http://www.w3.org/2000/svg">
<path fill-rule="evenodd" clip-rule="evenodd" d="M21.6642 5.81208C22.8818 5.39369 24.4442 5.3937 26.3347 5.82591C27.1423 6.01055 27.6473 6.81491 27.4627 7.6225C27.278 8.43009 26.4737 8.93509 25.6661 8.75046C24.0753 8.38676 23.1316 8.48004 22.6392 8.64925C22.2017 8.79958 22.1555 8.98389 22.1462 9.021L22.146 9.02187C22.0816 9.27778 22.3299 9.71795 22.785 9.71795C24.9967 9.71795 26.5161 11.2674 26.7176 13.0105C26.8184 13.8816 26.5848 14.8303 25.8964 15.5617C25.2029 16.2986 24.2086 16.6477 23.1016 16.6477C22.624 16.6477 22.4128 16.7885 22.3321 16.8631C22.2425 16.946 22.1983 17.0517 22.1947 17.1622C22.1909 17.2775 22.2316 17.3705 22.2874 17.4291C22.3275 17.4712 22.4511 17.5775 22.785 17.5775C23.9016 17.5775 24.8459 18.0176 25.4979 18.747C26.1259 19.4495 26.4196 20.3466 26.4293 21.2018C26.439 22.0574 26.165 22.969 25.5295 23.686C24.8693 24.4309 23.9106 24.8602 22.785 24.8602C22.4277 24.8602 22.2535 24.977 22.1713 25.0594C22.0746 25.1561 22.026 25.2835 22.026 25.4045C22.026 25.5155 22.0654 25.6155 22.1582 25.6997C22.25 25.7829 22.508 25.9498 23.1016 25.9498C25.5012 25.9498 27.315 27.5044 27.2782 29.5984C27.2406 31.7411 25.3227 33.1943 22.785 33.1943C22.1032 33.1943 21.758 33.4151 21.6232 33.5569C21.5024 33.6839 21.4788 33.8056 21.5176 33.9448C21.6027 34.2506 22.4383 35.5 26.0004 35.5C26.8289 35.5 27.5004 36.1716 27.5004 37C27.5004 37.8284 26.8289 38.5 26.0004 38.5C22.0644 38.5 19.2811 37.0966 18.6276 34.7495C18.2969 33.5623 18.624 32.3576 19.449 31.4898C20.26 30.6368 21.4556 30.1943 22.785 30.1943C23.5321 30.1943 23.919 29.9988 24.0887 29.8624C24.251 29.7317 24.2775 29.6131 24.2787 29.5457C24.28 29.4715 24.2517 29.3558 24.1173 29.2371C23.9851 29.1203 23.6838 28.9498 23.1016 28.9498C21.926 28.9498 20.8964 28.6054 20.1428 27.9218C19.3902 27.2392 19.0263 26.3169 19.026 25.4055C19.0254 23.5553 20.5016 21.8602 22.785 21.8602C23.1133 21.8602 23.2329 21.7542 23.2845 21.6961C23.3607 21.6101 23.4319 21.451 23.4295 21.2359C23.427 21.0204 23.3511 20.8468 23.2613 20.7464C23.1955 20.6728 23.0736 20.5775 22.785 20.5775C21.7136 20.5775 20.7762 20.1926 20.1147 19.4978C19.469 18.8196 19.1676 17.9301 19.1963 17.063C19.2252 16.191 19.5882 15.3143 20.2955 14.6603C21.0118 13.9981 21.9874 13.6477 23.1016 13.6477C23.3463 13.6477 23.5009 13.61 23.5885 13.5767C23.673 13.5446 23.7042 13.5137 23.7118 13.5057L23.712 13.5054C23.7177 13.4994 23.7502 13.465 23.7375 13.3551C23.7238 13.2368 23.6567 13.0813 23.5127 12.9534C23.3826 12.8378 23.1585 12.718 22.785 12.718C20.3321 12.718 18.7068 10.3973 19.2365 8.29041C19.5247 7.14401 20.3952 6.24814 21.6642 5.81208Z" fill="#FF0057"/>
</svg>
