<svg width="47" height="43" viewBox="0 0 47 43" fill="none" xmlns="http://www.w3.org/2000/svg">
<path fill-rule="evenodd" clip-rule="evenodd" d="M21.664 5.81208C22.8816 5.39369 24.444 5.3937 26.3344 5.82591C27.142 6.01055 27.647 6.81491 27.4624 7.6225C27.2778 8.43009 26.4734 8.93509 25.6658 8.75046C24.075 8.38676 23.1313 8.48004 22.6389 8.64925C22.2014 8.79958 22.1552 8.98389 22.1459 9.021L22.1457 9.02187C22.0814 9.27778 22.3297 9.71795 22.7847 9.71795C24.9965 9.71795 26.5158 11.2674 26.7174 13.0105C26.8181 13.8816 26.5845 14.8303 25.8962 15.5617C25.2027 16.2986 24.2083 16.6477 23.1013 16.6477C22.6238 16.6477 22.4126 16.7885 22.3319 16.8631C22.2423 16.946 22.1981 17.0517 22.1944 17.1622C22.1906 17.2775 22.2313 17.3705 22.2872 17.4291C22.3272 17.4712 22.4509 17.5775 22.7847 17.5775C23.9013 17.5775 24.8456 18.0176 25.4977 18.747C26.1257 19.4495 26.4193 20.3466 26.429 21.2018C26.4388 22.0574 26.1648 22.969 25.5293 23.686C24.869 24.4309 23.9103 24.8602 22.7847 24.8602C22.4275 24.8602 22.2533 24.977 22.171 25.0594C22.0744 25.1561 22.0257 25.2835 22.0258 25.4045C22.0258 25.5155 22.0652 25.6155 22.158 25.6997C22.2498 25.7829 22.5078 25.9498 23.1013 25.9498C25.501 25.9498 27.3148 27.5044 27.278 29.5984C27.2403 31.7411 25.3224 33.1943 22.7847 33.1943C22.103 33.1943 21.7578 33.4151 21.623 33.5569C21.5022 33.6839 21.4786 33.8056 21.5173 33.9448C21.6025 34.2506 22.438 35.5 26.0002 35.5C26.8286 35.5 27.5002 36.1716 27.5002 37C27.5002 37.8284 26.8286 38.5 26.0002 38.5C22.0642 38.5 19.2809 37.0966 18.6273 34.7495C18.2967 33.5623 18.6238 32.3576 19.4487 31.4898C20.2597 30.6368 21.4554 30.1943 22.7847 30.1943C23.5318 30.1943 23.9188 29.9988 24.0884 29.8624C24.2508 29.7317 24.2773 29.6131 24.2784 29.5457C24.2797 29.4715 24.2514 29.3558 24.117 29.2371C23.9849 29.1203 23.6836 28.9498 23.1013 28.9498C21.9258 28.9498 20.8962 28.6054 20.1425 27.9218C19.3899 27.2392 19.0261 26.3169 19.0258 25.4055C19.0251 23.5553 20.5014 21.8602 22.7847 21.8602C23.1131 21.8602 23.2327 21.7542 23.2842 21.6961C23.3604 21.6101 23.4317 21.451 23.4292 21.2359C23.4268 21.0204 23.3509 20.8468 23.2611 20.7464C23.1953 20.6728 23.0734 20.5775 22.7847 20.5775C21.7133 20.5775 20.776 20.1926 20.1145 19.4978C19.4688 18.8196 19.1674 17.9301 19.1961 17.063C19.225 16.191 19.588 15.3143 20.2953 14.6603C21.0116 13.9981 21.9871 13.6477 23.1013 13.6477C23.3461 13.6477 23.5006 13.61 23.5882 13.5767C23.6727 13.5446 23.704 13.5137 23.7115 13.5057L23.7117 13.5054C23.7175 13.4994 23.75 13.465 23.7373 13.3551C23.7236 13.2368 23.6565 13.0813 23.5124 12.9534C23.3824 12.8378 23.1583 12.718 22.7847 12.718C20.3318 12.718 18.7066 10.3973 19.2363 8.29041C19.5245 7.14401 20.395 6.24814 21.664 5.81208Z" fill="white"/>
</svg>
