<svg width="47" height="43" viewBox="0 0 47 43" fill="none" xmlns="http://www.w3.org/2000/svg">
<path fill-rule="evenodd" clip-rule="evenodd" d="M21.996 5.53088C22.6226 4.87465 23.4964 4.50004 24.5307 4.5C25.3591 4.49997 26.0307 5.17151 26.0308 5.99994C26.0308 6.82837 25.3593 7.49997 24.5308 7.5C24.2635 7.50001 24.1904 7.57668 24.1666 7.60176C24.1662 7.60211 24.1659 7.60245 24.1656 7.60278C24.1112 7.65969 24.0342 7.79177 24.0037 8.01575C23.9917 8.104 23.9899 8.18581 23.9938 8.25699C24.6917 8.52337 25.0867 9.1378 25.2626 9.49923C25.5289 10.0465 25.651 10.6803 25.6791 11.2424C25.7069 11.7987 25.6514 12.4583 25.413 13.0443C25.2272 13.5008 24.7992 14.1695 24.0213 14.4136C24.0067 14.5051 23.9976 14.6088 23.996 14.7185C23.9944 14.828 24.0006 14.9332 24.0126 15.0274C24.7751 15.3395 25.1361 16.0885 25.2649 16.4217C25.4843 16.9893 25.5673 17.6441 25.5701 18.2211C25.5729 18.7969 25.4967 19.4568 25.2766 20.0312C25.138 20.3931 24.7587 21.1554 23.9643 21.4502C23.9446 21.5637 23.9331 21.6936 23.9331 21.8284C23.9331 21.9488 23.9423 22.0616 23.958 22.1594C24.7635 22.3728 25.2491 23.0167 25.4848 23.4984C25.781 24.1038 25.8904 24.8046 25.8857 25.4238C25.881 26.0412 25.7615 26.7574 25.4284 27.3772C25.1178 27.9554 24.5201 28.5932 23.5972 28.7164C23.5518 28.8275 23.5094 28.9908 23.5013 29.1822C23.4962 29.3031 23.5063 29.4081 23.524 29.4891C23.5251 29.494 23.5262 29.4988 23.5273 29.5034C24.5202 29.5534 25.2584 30.143 25.6988 30.7828C26.1553 31.446 26.3844 32.2689 26.3992 33.0779C26.4296 34.7474 25.5331 36.6496 23.302 37.4182C22.5187 37.688 21.6651 37.2718 21.3952 36.4886C21.1254 35.7053 21.5416 34.8516 22.3249 34.5818C23.149 34.2979 23.41 33.7 23.3997 33.1327C23.3942 32.8346 23.3097 32.6104 23.2359 32.4962C22.2539 32.4477 21.4895 31.9381 21.0311 31.216C20.5948 30.5288 20.4755 29.7276 20.504 29.0554C20.5327 28.3759 20.7191 27.644 21.0982 27.0339C21.4213 26.5139 21.9991 25.9271 22.8459 25.7751C22.8466 25.772 22.8473 25.7688 22.848 25.7656C22.8706 25.6608 22.8848 25.5357 22.8858 25.401C22.8868 25.2665 22.8746 25.1384 22.8533 25.0285C22.8529 25.0267 22.8525 25.0248 22.8522 25.023C22.0366 24.8203 21.5475 24.1787 21.3112 23.683C21.0271 23.0869 20.9332 22.4066 20.9331 21.8289C20.933 21.2468 21.0282 20.5922 21.2732 20.0249C21.4312 19.6591 21.8141 18.9927 22.5363 18.7065C22.5375 18.6988 22.5388 18.6908 22.54 18.6827C22.5599 18.5494 22.5709 18.3962 22.5701 18.2358C22.5693 18.0755 22.5569 17.9215 22.5355 17.7866C22.5333 17.7727 22.5311 17.7593 22.5288 17.7463C21.8148 17.4567 21.4454 16.7902 21.297 16.4296C21.0673 15.8716 20.9883 15.2339 20.9963 14.6755C21.0043 14.1189 21.1011 13.4691 21.3672 12.8999C21.5619 12.4834 21.9745 11.8807 22.6821 11.6269C22.6864 11.5545 22.687 11.4753 22.6828 11.3922C22.6763 11.262 22.659 11.1369 22.6344 11.0283C22.6342 11.0277 22.6341 11.0271 22.634 11.0265C21.8385 10.7606 21.4206 10.0333 21.2545 9.6202C21.0083 9.0079 20.9392 8.28781 21.0311 7.61177C21.1239 6.9289 21.4008 6.15413 21.996 5.53088ZM22.5575 10.7978C22.5576 10.7978 22.5585 10.7993 22.5603 10.8027C22.5584 10.7996 22.5575 10.7979 22.5575 10.7978ZM22.6341 11.9138C22.6326 11.9175 22.6326 11.917 22.6344 11.9131L22.6341 11.9138ZM22.4552 17.4769C22.4552 17.4768 22.4563 17.4788 22.4583 17.4831C22.4561 17.4791 22.4551 17.477 22.4552 17.4769ZM22.4655 18.9804C22.4655 18.9803 22.4664 18.9781 22.4686 18.974C22.4667 18.9784 22.4656 18.9805 22.4655 18.9804ZM22.7845 24.8065C22.7846 24.8064 22.7852 24.8075 22.7865 24.8099C22.7851 24.8077 22.7845 24.8065 22.7845 24.8065ZM23.6619 28.5947C23.6619 28.5947 23.6615 28.5952 23.6607 28.5962C23.6615 28.5952 23.6619 28.5947 23.6619 28.5947ZM24.022 22.3975C24.022 22.3976 24.0215 22.3966 24.0204 22.3945C24.0215 22.3964 24.0221 22.3975 24.022 22.3975ZM24.0346 21.1992C24.0346 21.1993 24.0337 21.2012 24.0317 21.2047C24.0335 21.2009 24.0345 21.1992 24.0346 21.1992ZM24.0879 14.1644C24.0879 14.1645 24.0873 14.1658 24.0859 14.1684C24.0872 14.1656 24.0879 14.1644 24.0879 14.1644ZM24.0419 8.50992C24.0418 8.50998 24.041 8.50843 24.0396 8.50509C24.0412 8.50819 24.0419 8.50986 24.0419 8.50992Z" fill="white"/>
</svg>
