<svg width="48" height="44" viewBox="0 0 48 44" fill="none" xmlns="http://www.w3.org/2000/svg">
<path d="M23.9297 39.8594C33.7383 39.8594 41.8594 31.7207 41.8594 21.9297C41.8594 12.1211 33.7207 4 23.9121 4C14.1211 4 6 12.1211 6 21.9297C6 31.7207 14.1387 39.8594 23.9297 39.8594ZM23.9297 36.8711C15.6328 36.8711 9.00586 30.2266 9.00586 21.9297C9.00586 13.6328 15.6152 6.98828 23.9121 6.98828C32.209 6.98828 38.8535 13.6328 38.8711 21.9297C38.8887 30.2266 32.2266 36.8711 23.9297 36.8711ZM18.832 20.3301C19.8691 20.3301 20.7305 19.416 20.7305 18.1328C20.7305 16.8496 19.8691 15.9355 18.832 15.9355C17.7949 15.9355 16.9512 16.8496 16.9512 18.1328C16.9512 19.416 17.7949 20.3301 18.832 20.3301ZM29.0977 20.3301C30.1348 20.3301 30.9961 19.416 30.9961 18.1328C30.9961 16.8496 30.1348 15.9355 29.0977 15.9355C28.0781 15.9355 27.2168 16.8496 27.2168 18.1328C27.2168 19.416 28.0781 20.3301 29.0977 20.3301ZM17.7773 27.1328C17.7773 28.293 20.2383 30.7363 23.9121 30.7363C27.5859 30.7363 30.0469 28.293 30.0469 27.1328C30.0469 26.7109 29.6426 26.5176 29.2734 26.6934C27.9902 27.3965 26.4609 28.1875 23.9121 28.1875C21.3633 28.1875 19.834 27.3789 18.5684 26.6934C18.1816 26.5176 17.7773 26.7109 17.7773 27.1328Z" fill="#FF0057"/>
</svg>
