<svg width="37" height="37" viewBox="0 0 37 37" fill="none" xmlns="http://www.w3.org/2000/svg">
<path d="M18.5 36.2383C28.3086 36.2383 36.4297 28.0996 36.4297 18.3086C36.4297 8.5 28.291 0.378906 18.4824 0.378906C8.69141 0.378906 0.570312 8.5 0.570312 18.3086C0.570312 28.0996 8.70898 36.2383 18.5 36.2383ZM18.5 33.25C10.2031 33.25 3.57617 26.6055 3.57617 18.3086C3.57617 10.0117 10.1855 3.36719 18.4824 3.36719C26.7793 3.36719 33.4238 10.0117 33.4414 18.3086C33.459 26.6055 26.7969 33.25 18.5 33.25ZM13.4023 16.709C14.4395 16.709 15.3008 15.7949 15.3008 14.5117C15.3008 13.2285 14.4395 12.3145 13.4023 12.3145C12.3652 12.3145 11.5215 13.2285 11.5215 14.5117C11.5215 15.7949 12.3652 16.709 13.4023 16.709ZM23.668 16.709C24.7051 16.709 25.5664 15.7949 25.5664 14.5117C25.5664 13.2285 24.7051 12.3145 23.668 12.3145C22.6484 12.3145 21.7871 13.2285 21.7871 14.5117C21.7871 15.7949 22.6484 16.709 23.668 16.709ZM12.3477 23.5117C12.3477 24.6719 14.8086 27.1152 18.4824 27.1152C22.1562 27.1152 24.6172 24.6719 24.6172 23.5117C24.6172 23.0898 24.2129 22.8965 23.8438 23.0723C22.5605 23.7754 21.0312 24.5664 18.4824 24.5664C15.9336 24.5664 14.4043 23.7578 13.1387 23.0723C12.752 22.8965 12.3477 23.0898 12.3477 23.5117Z" fill="#FF0057"/>
</svg>
