<svg width="47" height="43" viewBox="0 0 47 43" fill="none" xmlns="http://www.w3.org/2000/svg">
<path d="M23.5 39.9414C33.7129 39.9414 42.1152 31.5391 42.1152 21.3262C42.1152 11.0957 33.7129 2.69336 23.4824 2.69336C13.252 2.69336 4.86719 11.0957 4.86719 21.3262C4.86719 31.5391 13.2695 39.9414 23.5 39.9414ZM18.0684 19.5156C16.9434 19.5156 16.0293 18.5137 16.0293 17.1426C16.0293 15.7363 16.9434 14.752 18.0684 14.752C19.1758 14.752 20.125 15.7363 20.125 17.1426C20.125 18.5137 19.1758 19.5156 18.0684 19.5156ZM28.9492 19.5156C27.8066 19.5156 26.8926 18.5137 26.8926 17.1426C26.8926 15.7363 27.8066 14.752 28.9492 14.752C30.0566 14.752 31.0234 15.7363 31.0234 17.1426C31.0234 18.5137 30.0566 19.5156 28.9492 19.5156ZM16.8555 26.2129C16.8555 25.7383 17.3301 25.5098 17.7871 25.7207C19.1758 26.4238 20.7402 27.2324 23.4824 27.2324C26.2246 27.2324 27.7715 26.4062 29.1777 25.7207C29.6348 25.5098 30.1094 25.7383 30.1094 26.2129C30.1094 27.4785 27.4551 30.1152 23.4824 30.1152C19.5098 30.1152 16.8555 27.4785 16.8555 26.2129Z" fill="white"/>
</svg>
