<svg width="33" height="34" viewBox="0 0 33 34" fill="none" xmlns="http://www.w3.org/2000/svg">
<path d="M16.5 33.7969C28.4883 33.7969 34.5703 29.4023 32.3203 23.0215L28.3828 11.6836V5.77734C28.3828 3.01758 23.6367 0.890625 16.5 0.890625C9.38086 0.890625 4.65234 3.01758 4.65234 5.77734V11.6309L0.679688 23.0215C-1.55273 29.4023 4.51172 33.7969 16.5 33.7969ZM16.5 8.00977C11.1035 8.00977 7.48242 6.90234 7.48242 5.77734C7.48242 4.63477 11.1035 3.54492 16.5 3.54492C21.9316 3.54492 25.5527 4.63477 25.5527 5.77734C25.5527 6.90234 21.9316 8.00977 16.5 8.00977ZM16.5 17.7129C21.0527 17.7129 24.6035 16.7461 26.5898 15.2695L29.6309 23.9004C31.0898 28.0664 26.1328 30.9492 16.5 30.9492C6.86719 30.9492 1.91016 28.0664 3.36914 23.9004L6.41016 15.2695C8.37891 16.7461 11.9121 17.7129 16.5 17.7129Z" fill="#FF0057"/>
</svg>
