<svg width="47" height="43" viewBox="0 0 47 43" fill="none" xmlns="http://www.w3.org/2000/svg">
<path d="M23.5 37.7969C35.4883 37.7969 41.5703 33.4023 39.3203 27.0215L35.3828 15.6836V9.77734C35.3828 7.01758 30.6368 4.89062 23.5 4.89062C16.3809 4.89062 11.6524 7.01758 11.6524 9.77734V15.6309L7.67972 27.0215C5.4473 33.4023 11.5118 37.7969 23.5 37.7969ZM23.5 12.0098C18.1036 12.0098 14.4825 10.9023 14.4825 9.77734C14.4825 8.63477 18.1036 7.54492 23.5 7.54492C28.9317 7.54492 32.5528 8.63477 32.5528 9.77734C32.5528 10.9023 28.9317 12.0098 23.5 12.0098ZM23.5 21.7129C28.0528 21.7129 31.6036 20.7461 33.5899 19.2695L36.6309 27.9004C38.0899 32.0664 33.1328 34.9492 23.5 34.9492C13.8672 34.9492 8.91019 32.0664 10.3692 27.9004L13.4102 19.2695C15.3789 20.7461 18.9121 21.7129 23.5 21.7129Z" fill="#FF0057"/>
</svg>
