<svg width="47" height="43" viewBox="0 0 47 43" fill="none" xmlns="http://www.w3.org/2000/svg">
<path d="M23.5176 39.2207C36.7188 39.2207 43.3457 33.9297 40.5684 26.5996L36.3145 15.3672V9.77734C36.3145 6.34961 31.1289 3.81836 23.5176 3.81836C15.9238 3.81836 10.7383 6.34961 10.7383 9.77734V15.3145L6.46682 26.6172C3.61916 34.0527 10.2988 39.2207 23.5176 39.2207ZM23.5176 11.6758C18.6309 11.6758 15.3613 10.709 15.3613 9.77734C15.3613 8.8457 18.6309 7.86133 23.5176 7.86133C28.4219 7.86133 31.6738 8.8457 31.6738 9.77734C31.6738 10.709 28.4219 11.6758 23.5176 11.6758ZM23.5176 22.0469C27.4903 22.0469 30.7598 21.3086 33.0098 20.1309L36.1035 28.1113C37.4922 31.7148 32.6582 34.5098 23.5176 34.5098C14.3594 34.5098 9.50783 31.8379 10.9317 28.1113L14.0254 20.1309C16.2578 21.3086 19.5274 22.0469 23.5176 22.0469Z" fill="white"/>
</svg>
