<svg width="47" height="44" viewBox="0 0 47 44" fill="none" xmlns="http://www.w3.org/2000/svg">
<path d="M19.5977 13.0625L21.5664 15.0313L25.4863 9.84572L22.6738 16.1387L26.9805 20.4453H31.4805L29.5293 22.9942L31.5859 25.0508L35.418 20.1289C35.7168 19.7598 35.8926 19.4082 35.8926 19.0039C35.8926 18.336 35.3652 17.8262 34.627 17.8262H24.6777L29.9336 4.15041C30.6191 2.33986 28.7031 1.35549 27.543 2.86721L19.5977 13.0625ZM35.8047 35.9844C36.332 36.5117 37.2109 36.5117 37.7207 35.9844C38.248 35.4746 38.248 34.6133 37.7207 34.0684L11.1953 7.54299C10.668 7.01565 9.77148 7.01565 9.26172 7.54299C8.75195 8.05275 8.75195 8.94924 9.26172 9.459L35.8047 35.9844ZM11.1074 24.5235C11.1074 25.209 11.6348 25.7188 12.373 25.7188H22.3223L17.0664 39.377C16.3809 41.1875 18.2969 42.1719 19.457 40.6778L27.3848 30.4824L25.3984 28.5137L21.4961 33.6817L24.3086 27.4063L19.9668 23.0996H15.502L17.4531 20.5508L15.3965 18.4942L11.582 23.3985C11.2832 23.7852 11.1074 24.1367 11.1074 24.5235Z" fill="#FF0057"/>
</svg>
