<svg width="47" height="43" viewBox="0 0 47 43" fill="none" xmlns="http://www.w3.org/2000/svg">
<path d="M21.6016 28.9375L24.9414 25.6152C23.2715 25.4219 21.7949 24.7715 20.8633 23.8398C18.0684 21.0273 18.0508 17.125 20.8457 14.3301L26.875 8.31836C29.6699 5.52344 33.5723 5.52344 36.3672 8.31836C39.1797 11.1309 39.1797 15.0332 36.4024 17.8105L34.2402 19.9551C34.9434 21.5547 35.2598 23.6465 34.7149 25.4395L39.5313 20.6582C44.0664 16.1758 44.0488 9.72461 39.4961 5.18945C34.9434 0.636719 28.5449 0.654297 24.0274 5.17188L17.7168 11.4824C13.1992 16 13.1992 22.416 17.7344 26.9512C18.6133 27.8301 19.9844 28.6035 21.6016 28.9375ZM25.3809 13.4512L22.041 16.791C23.711 16.9844 25.1699 17.6348 26.1016 18.5664C28.9141 21.3789 28.9141 25.2812 26.1367 28.0586L20.0899 34.0879C17.2949 36.8828 13.3926 36.8828 10.6152 34.0879C7.78517 31.2754 7.78517 27.373 10.5801 24.5781L12.7246 22.4336C12.0391 20.834 11.7227 18.7598 12.2676 16.9492L7.45118 21.7305C2.91603 26.2305 2.93361 32.6641 7.46876 37.1992C12.0215 41.752 18.4375 41.7344 22.9375 37.2344L29.2656 30.9062C33.7656 26.3887 33.7832 19.9727 29.2305 15.4375C28.3692 14.5586 26.9981 13.8027 25.3809 13.4512Z" fill="white"/>
</svg>
