<svg width="31" height="40" viewBox="0 0 31 40" fill="none" xmlns="http://www.w3.org/2000/svg">
<path d="M11.5977 11.4668L13.5664 13.4355L17.4863 8.25L14.6738 14.543L18.9805 18.8496H23.4805L21.5293 21.3984L23.5859 23.4551L27.418 18.5332C27.7168 18.1641 27.8926 17.8125 27.8926 17.4082C27.8926 16.7402 27.3652 16.2305 26.627 16.2305H16.6777L21.9336 2.55469C22.6191 0.744141 20.7031 -0.240234 19.543 1.27148L11.5977 11.4668ZM27.8047 34.3887C28.332 34.916 29.2109 34.916 29.7207 34.3887C30.248 33.8789 30.248 33.0176 29.7207 32.4727L3.19531 5.94727C2.66797 5.41992 1.77148 5.41992 1.26172 5.94727C0.751953 6.45703 0.751953 7.35352 1.26172 7.86328L27.8047 34.3887ZM3.10742 22.9277C3.10742 23.6133 3.63477 24.123 4.37305 24.123H14.3223L9.06641 37.7812C8.38086 39.5918 10.2969 40.5762 11.457 39.082L19.3848 28.8867L17.3984 26.918L13.4961 32.0859L16.3086 25.8105L11.9668 21.5039H7.50195L9.45312 18.9551L7.39648 16.8984L3.58203 21.8027C3.2832 22.1895 3.10742 22.541 3.10742 22.9277Z" fill="#FF0057"/>
</svg>
