<svg width="47" height="43" viewBox="0 0 47 43" fill="none" xmlns="http://www.w3.org/2000/svg">
<path d="M32.6406 24.8594L36.5078 20.1485C36.8594 19.7266 37.0352 19.3047 37.0352 18.8477C37.0352 18.0391 36.4023 17.4415 35.541 17.4415L25.2754 17.2657L30.4082 2.67583C31.1641 0.548875 29.0371 -0.558547 27.6133 1.14653L19.1758 11.4122L32.6406 24.8594ZM36.4902 36.3555C37.0703 36.918 38.0195 36.9356 38.582 36.3555C39.1621 35.793 39.1621 34.8438 38.582 34.2637L10.2988 5.98052C9.71875 5.40044 8.75195 5.40044 8.18945 5.98052C7.62695 6.54302 7.62695 7.50981 8.18945 8.07231L36.4902 36.3555ZM19.1758 41.1895L27.6133 30.9415L14.1309 17.4942L10.2812 22.1875C9.92969 22.627 9.75391 23.0313 9.75391 23.4883C9.75391 24.3145 10.3867 24.9122 11.248 24.9122L21.5137 25.0704L16.3809 39.6602C15.6426 41.8047 17.752 42.8946 19.1758 41.1895Z" fill="white"/>
</svg>
