<svg width="48" height="44" viewBox="0 0 48 44" fill="none" xmlns="http://www.w3.org/2000/svg">
<path d="M24.4197 28.9211L26.7576 26.5481C24.4373 26.3723 22.9255 25.6692 21.783 24.5266C18.7068 21.4504 18.7244 17.0911 21.7654 14.0501L27.4959 8.31958C30.572 5.26099 34.8962 5.24341 37.9724 8.31958C41.0486 11.3958 41.0134 15.7376 37.9724 18.7786L34.5271 22.2239C35.0193 23.3489 35.1248 24.6497 34.949 25.7922L40.1169 20.6418C44.3181 16.4231 44.3533 10.4641 40.0994 6.19263C35.8279 1.92115 29.8513 1.9563 25.6326 6.17505L19.6384 12.1868C15.4197 16.4055 15.3845 22.3821 19.656 26.636C20.7634 27.7434 22.1697 28.5344 24.4197 28.9211ZM24.8591 14.4368L22.5212 16.8098C24.8416 17.0032 26.3533 17.6887 27.4959 18.8313C30.572 21.9075 30.5544 26.2668 27.5134 29.3079L21.7654 35.0383C18.7068 38.0969 14.3826 38.1145 11.3064 35.0559C8.23023 31.9622 8.24781 27.6379 11.3064 24.5793L14.7517 21.134C14.2595 20.0266 14.1365 18.7083 14.3298 17.5657L9.16187 22.7161C4.9607 26.9348 4.92554 32.9114 9.17945 37.1653C13.4509 41.4368 19.4275 41.4016 23.6287 37.2004L29.6404 31.1711C33.8591 26.9524 33.8943 20.9758 29.6228 16.7219C28.5154 15.6145 27.1091 14.8235 24.8591 14.4368Z" fill="#FF0057"/>
</svg>
