<svg width="33" height="41" viewBox="0 0 33 41" fill="none" xmlns="http://www.w3.org/2000/svg">
<path d="M15.5156 8.59961C15.7266 8.59961 15.832 8.47656 15.8848 8.2832C16.4121 5.34766 16.3945 5.27734 19.4531 4.69727C19.6465 4.66211 19.7871 4.53906 19.7871 4.32812C19.7871 4.11719 19.6465 3.99414 19.4531 3.95898C16.3945 3.34375 16.5 3.27344 15.8848 0.373047C15.832 0.179688 15.7266 0.0566406 15.5156 0.0566406C15.3047 0.0566406 15.1816 0.179688 15.1465 0.373047C14.5312 3.27344 14.6367 3.34375 11.5781 3.95898C11.3672 3.99414 11.2441 4.11719 11.2441 4.32812C11.2441 4.53906 11.3672 4.66211 11.5781 4.69727C14.6367 5.3125 14.6016 5.34766 15.1465 8.2832C15.1816 8.47656 15.3047 8.59961 15.5156 8.59961ZM7.00781 20.6934C7.3418 20.6934 7.57031 20.4824 7.60547 20.166C8.23828 15.4727 8.39648 15.4727 13.248 14.541C13.5469 14.4883 13.7754 14.2773 13.7754 13.9434C13.7754 13.627 13.5469 13.3984 13.248 13.3457C8.39648 12.6777 8.2207 12.5195 7.60547 7.73828C7.57031 7.42188 7.3418 7.19336 7.00781 7.19336C6.69141 7.19336 6.46289 7.42188 6.41016 7.75586C5.84766 12.4668 5.58398 12.4492 0.767578 13.3457C0.46875 13.416 0.240234 13.627 0.240234 13.9434C0.240234 14.2949 0.46875 14.4883 0.837891 14.541C5.61914 15.3145 5.84766 15.4375 6.41016 20.1309C6.46289 20.4824 6.69141 20.6934 7.00781 20.6934ZM18.9258 40.1523C19.3828 40.1523 19.7168 39.8184 19.7871 39.3438C21.0352 29.7109 22.4062 28.252 31.9336 27.1973C32.4258 27.1445 32.7598 26.7754 32.7598 26.3184C32.7598 25.8613 32.4258 25.5098 31.9336 25.4395C22.4062 24.3848 21.0352 22.9258 19.7871 13.293C19.7168 12.8184 19.3828 12.502 18.9258 12.502C18.4688 12.502 18.1348 12.8184 18.0645 13.293C16.7988 22.9258 15.4453 24.3848 5.91797 25.4395C5.42578 25.5098 5.0918 25.8613 5.0918 26.3184C5.0918 26.7754 5.42578 27.1445 5.91797 27.1973C15.4277 28.4453 16.7461 29.7285 18.0645 39.3438C18.1348 39.8184 18.4688 40.1523 18.9258 40.1523Z" fill="#FF0057"/>
</svg>
