<svg width="47" height="44" viewBox="0 0 47 44" fill="none" xmlns="http://www.w3.org/2000/svg">
<path d="M22.1816 9.40625C22.4453 9.40625 22.6387 9.21289 22.6738 8.9668C23.1484 6.11914 23.1309 6.10156 26.1543 5.50391C26.418 5.45117 26.5938 5.27539 26.5938 5.01172C26.5938 4.73047 26.4004 4.53711 26.1367 4.50195C23.1309 3.99219 23.1836 3.95703 22.6738 1.05664C22.6387 0.792969 22.4453 0.599609 22.1816 0.599609C21.9004 0.599609 21.7246 0.792969 21.6895 1.07422C21.2148 3.86914 21.25 3.88672 18.209 4.50195C17.9453 4.55469 17.7695 4.73047 17.7695 5.01172C17.7695 5.27539 17.9453 5.45117 18.2441 5.50391C21.2324 6.04883 21.2148 6.08398 21.6895 8.94922C21.7246 9.21289 21.9004 9.40625 22.1816 9.40625ZM13.6211 22.0801C14.043 22.0801 14.377 21.7637 14.4297 21.3594C15.0273 16.7715 15.1152 16.7363 19.9492 15.8574C20.3711 15.7871 20.6699 15.4707 20.6699 15.0488C20.6699 14.627 20.3535 14.293 19.9492 14.2402C15.1504 13.5898 15.0273 13.4668 14.4297 8.75586C14.377 8.33398 14.043 8.01758 13.6211 8.01758C13.1816 8.01758 12.8652 8.33398 12.8125 8.79102C12.25 13.3438 12.1094 13.3789 7.27539 14.2402C6.87109 14.3105 6.57227 14.627 6.57227 15.0488C6.57227 15.4883 6.87109 15.7871 7.38086 15.8574C12.0918 16.5781 12.25 16.7363 12.8125 21.3242C12.8652 21.7637 13.1816 22.0801 13.6211 22.0801ZM26.2773 41.4336C26.875 41.4336 27.3496 40.9941 27.4375 40.3789C28.7383 31.0273 30.0391 29.5332 39.3027 28.4785C39.9531 28.4082 40.4102 27.916 40.4102 27.3184C40.4102 26.7031 39.9531 26.2285 39.3027 26.1406C30.1797 24.9805 28.8789 23.7148 27.4375 14.2578C27.332 13.625 26.875 13.1855 26.2773 13.1855C25.6797 13.1855 25.2227 13.625 25.1172 14.2578C23.8164 23.6094 22.5156 25.1035 13.252 26.1406C12.6016 26.2109 12.1621 26.7031 12.1621 27.3184C12.1621 27.916 12.6016 28.4082 13.252 28.4785C22.3574 29.7441 23.6406 30.9219 25.1172 40.3789C25.2227 40.9941 25.6973 41.4336 26.2773 41.4336Z" fill="white"/>
</svg>
