<svg width="47" height="44" viewBox="0 0 47 44" fill="none" xmlns="http://www.w3.org/2000/svg">
<path d="M22.5156 9.19531C22.7266 9.19531 22.832 9.07227 22.8848 8.87891C23.4121 5.94336 23.3945 5.87305 26.4531 5.29297C26.6465 5.25781 26.7871 5.13477 26.7871 4.92383C26.7871 4.71289 26.6465 4.58984 26.4531 4.55469C23.3945 3.93945 23.5 3.86914 22.8848 0.96875C22.832 0.775391 22.7266 0.652344 22.5156 0.652344C22.3047 0.652344 22.1816 0.775391 22.1465 0.96875C21.5312 3.86914 21.6367 3.93945 18.5781 4.55469C18.3672 4.58984 18.2441 4.71289 18.2441 4.92383C18.2441 5.13477 18.3672 5.25781 18.5781 5.29297C21.6367 5.9082 21.6016 5.94336 22.1465 8.87891C22.1816 9.07227 22.3047 9.19531 22.5156 9.19531ZM14.0078 21.2891C14.3418 21.2891 14.5703 21.0781 14.6055 20.7617C15.2383 16.0684 15.3965 16.0684 20.248 15.1367C20.5469 15.084 20.7754 14.873 20.7754 14.5391C20.7754 14.2227 20.5469 13.9941 20.248 13.9414C15.3965 13.2734 15.2207 13.1152 14.6055 8.33398C14.5703 8.01758 14.3418 7.78906 14.0078 7.78906C13.6914 7.78906 13.4629 8.01758 13.4102 8.35156C12.8477 13.0625 12.584 13.0449 7.76758 13.9414C7.46875 14.0117 7.24023 14.2227 7.24023 14.5391C7.24023 14.8906 7.46875 15.084 7.83789 15.1367C12.6191 15.9102 12.8477 16.0332 13.4102 20.7266C13.4629 21.0781 13.6914 21.2891 14.0078 21.2891ZM25.9258 40.748C26.3828 40.748 26.7168 40.4141 26.7871 39.9395C28.0352 30.3066 29.4062 28.8477 38.9336 27.793C39.4258 27.7402 39.7598 27.3711 39.7598 26.9141C39.7598 26.457 39.4258 26.1055 38.9336 26.0352C29.4062 24.9805 28.0352 23.5215 26.7871 13.8887C26.7168 13.4141 26.3828 13.0977 25.9258 13.0977C25.4688 13.0977 25.1348 13.4141 25.0645 13.8887C23.7988 23.5215 22.4453 24.9805 12.918 26.0352C12.4258 26.1055 12.0918 26.457 12.0918 26.9141C12.0918 27.3711 12.4258 27.7402 12.918 27.793C22.4277 29.041 23.7461 30.3242 25.0645 39.9395C25.1348 40.4141 25.4688 40.748 25.9258 40.748Z" fill="#FF0057"/>
</svg>
