<svg width="47" height="43" viewBox="0 0 47 43" fill="none" xmlns="http://www.w3.org/2000/svg">
<path d="M12.918 36.9531H16.6094C16.8906 36.9531 17.084 37.0235 17.3125 37.252L19.9141 39.8535C22.3398 42.2617 24.6602 42.2617 27.0859 39.8535L29.6875 37.252C29.916 37.0235 30.1094 36.9531 30.3906 36.9531H34.082C37.4922 36.9531 39.1445 35.3008 39.1445 31.8906V28.1992C39.1445 27.918 39.2324 27.7071 39.4434 27.4961L42.0449 24.877C44.4707 22.4688 44.4531 20.1485 42.0449 17.7227L39.4434 15.1211C39.2149 14.8926 39.1445 14.6992 39.1445 14.4004V10.7266C39.1445 7.31643 37.4922 5.66409 34.082 5.66409H30.3906C30.1094 5.66409 29.8984 5.5762 29.6875 5.36526L27.0859 2.7637C24.6602 0.320336 22.3398 0.337914 19.9141 2.78127L17.3125 5.36526C17.1016 5.5762 16.8906 5.66409 16.6094 5.66409H12.918C9.49024 5.66409 7.85547 7.28127 7.85547 10.7266V14.4004C7.85547 14.6992 7.76758 14.9102 7.55665 15.1211L4.95508 17.7227C2.5293 20.1485 2.54688 22.4688 4.95508 24.877L7.55665 27.4961C7.76758 27.7071 7.85547 27.918 7.85547 28.1992V31.8906C7.85547 35.3008 9.50782 36.9531 12.918 36.9531Z" fill="white"/>
</svg>
