<svg width="47" height="43" viewBox="0 0 47 43" fill="none" xmlns="http://www.w3.org/2000/svg">
<path d="M12.8477 36.5488H16.6445C17.0137 36.5488 17.2774 36.6543 17.541 36.918L20.2481 39.6074C22.4629 41.8399 24.5195 41.8223 26.7344 39.6074L29.4414 36.918C29.7051 36.6543 29.9688 36.5488 30.3379 36.5488H34.1348C37.2813 36.5488 38.7402 35.1074 38.7402 31.9434V28.1465C38.7402 27.7773 38.8457 27.5313 39.1094 27.25L41.7813 24.543C44.0137 22.3281 43.9961 20.2891 41.7813 18.0566L39.1094 15.3496C38.8457 15.0859 38.7402 14.8223 38.7402 14.4707V10.6563C38.7402 7.52735 37.2988 6.05079 34.1348 6.05079H30.3379C29.9688 6.05079 29.7051 5.9629 29.4414 5.69923L26.7344 3.00977C24.5195 0.77735 22.4629 0.794928 20.2481 3.00977L17.541 5.69923C17.2774 5.9629 17.0137 6.05079 16.6445 6.05079H12.8477C9.70118 6.05079 8.24219 7.49219 8.24219 10.6563V14.4707C8.24219 14.8223 8.1543 15.0859 7.89063 15.3496L5.20118 18.0566C2.96876 20.2891 2.98633 22.3281 5.20118 24.543L7.89063 27.25C8.1543 27.5313 8.24219 27.7773 8.24219 28.1465V31.9434C8.24219 35.0899 9.70118 36.5488 12.8477 36.5488ZM12.8477 33.7539C11.2832 33.7539 11.0371 33.5078 11.0371 31.9434V27.2148C11.0371 26.6875 10.8789 26.2832 10.4922 25.8965L7.16993 22.5918C6.06251 21.4668 6.06251 21.1504 7.16993 20.0254L10.4922 16.7207C10.8789 16.334 11.0371 15.9297 11.0371 15.3848V10.6563C11.0371 9.07423 11.2656 8.84571 12.8477 8.84571H17.5762C18.1211 8.84571 18.5254 8.70508 18.9121 8.30079L22.2168 4.97852C23.3418 3.8711 23.6582 3.8711 24.7656 4.97852L28.0879 8.30079C28.457 8.70508 28.8789 8.84571 29.4063 8.84571H34.1348C35.6992 8.84571 35.9453 9.0918 35.9453 10.6563V15.3848C35.9453 15.9297 36.1211 16.334 36.5078 16.7207L39.8301 20.0254C40.9375 21.1504 40.9375 21.4668 39.8301 22.5918L36.5078 25.8965C36.1211 26.2832 35.9453 26.6875 35.9453 27.2148V31.9434C35.9453 33.5078 35.6992 33.7539 34.1348 33.7539H29.4063C28.8789 33.7539 28.457 33.9121 28.0879 34.3164L24.7656 37.6387C23.6582 38.7461 23.3418 38.7461 22.2168 37.6387L18.9121 34.3164C18.5254 33.9121 18.1211 33.7539 17.5762 33.7539H12.8477Z" fill="#FF0057"/>
</svg>
