<svg width="41" height="42" viewBox="0 0 41 42" fill="none" xmlns="http://www.w3.org/2000/svg">
<path d="M9.91797 36.9531H13.6094C13.8906 36.9531 14.084 37.0234 14.3125 37.252L16.9141 39.8535C19.3398 42.2617 21.6602 42.2617 24.0859 39.8535L26.6875 37.252C26.916 37.0234 27.1094 36.9531 27.3906 36.9531H31.082C34.4922 36.9531 36.1445 35.3008 36.1445 31.8906V28.1992C36.1445 27.918 36.2324 27.707 36.4434 27.4961L39.0449 24.877C41.4707 22.4688 41.4531 20.1484 39.0449 17.7227L36.4434 15.1211C36.2148 14.8926 36.1445 14.6992 36.1445 14.4004V10.7266C36.1445 7.31641 34.4922 5.66406 31.082 5.66406H27.3906C27.1094 5.66406 26.8984 5.57617 26.6875 5.36523L24.0859 2.76367C21.6602 0.320312 19.3398 0.337891 16.9141 2.78125L14.3125 5.36523C14.1016 5.57617 13.8906 5.66406 13.6094 5.66406H9.91797C6.49023 5.66406 4.85547 7.28125 4.85547 10.7266V14.4004C4.85547 14.6992 4.76758 14.9102 4.55664 15.1211L1.95508 17.7227C-0.470703 20.1484 -0.453125 22.4688 1.95508 24.877L4.55664 27.4961C4.76758 27.707 4.85547 27.918 4.85547 28.1992V31.8906C4.85547 35.3008 6.50781 36.9531 9.91797 36.9531Z" fill="#FF0057"/>
</svg>
