<svg width="47" height="43" viewBox="0 0 47 43" fill="none" xmlns="http://www.w3.org/2000/svg">
<path fill-rule="evenodd" clip-rule="evenodd" d="M8.98446 6.12288C9.61396 5.49338 10.6346 5.49338 11.2641 6.12288L39.7417 34.6005C40.3712 35.23 40.3712 36.2506 39.7417 36.8801C39.1122 37.5096 38.0916 37.5096 37.4621 36.8801L8.98446 8.40251C8.35495 7.77301 8.35495 6.75239 8.98446 6.12288Z" fill="#FF0057"/>
<path fill-rule="evenodd" clip-rule="evenodd" d="M23.2417 18.1002L20.5348 15.3934C18.5205 15.2896 16.7813 15.0726 15.3273 14.7451L18.4466 17.8644C19.9075 18.0121 21.5066 18.0911 23.2417 18.1002ZM14.843 17.3003L7.46491 9.92223C7.38538 9.84269 7.31015 9.76048 7.23923 9.67589C7.2008 9.93984 7.18164 10.2055 7.18164 10.4722C7.18164 13.8669 9.79069 16.1724 14.843 17.3003ZM8.64881 6.61292C8.86324 6.35018 9.10142 6.09264 9.36349 5.84117C9.97353 5.51429 10.7494 5.60822 11.2641 6.12288L12.0988 6.95739C10.9608 7.77661 10.3227 8.63329 10.063 9.48077L8.98446 8.40251C8.5006 7.91866 8.38886 7.2037 8.64881 6.61292ZM14.024 5.84303L12.784 4.60309C12.5338 4.35288 12.2571 4.14529 11.963 3.98033C13.085 3.36734 14.408 2.82335 15.9355 2.36871C16.9023 2.06988 17.5527 2.35113 17.7988 3.07184C18.0449 3.79254 17.6758 4.47809 16.8145 4.75934C15.743 5.10295 14.8175 5.46598 14.024 5.84303ZM16.6072 8.42628C19.6533 7.07785 23.6035 6.16559 28.5918 6.16559C35.623 6.16559 40.5449 8.25738 40.5449 11.6675C40.5449 15.0619 35.3627 17.6318 26.2243 18.0434L23.6451 15.4641C32.5152 15.4364 37.7852 13.4305 37.7852 11.65C37.7852 10.1207 34.3574 8.71442 28.4336 8.71442C24.4061 8.71442 21.2517 9.52515 18.6762 10.4952L16.6072 8.42628ZM15.2446 10.1031C15.2656 10.2378 15.3088 10.3685 15.373 10.4898C15.5556 10.8548 15.9008 11.0729 16.2911 11.1497L15.2446 10.1031ZM26.6864 21.5449C25.8419 21.5921 24.981 21.6168 24.1094 21.6168C23.473 21.6168 22.8205 21.6037 22.1593 21.5771L24.4827 23.9005C25.9691 23.8896 27.4215 23.8132 28.8192 23.6777L26.6864 21.5449ZM31.5143 23.3333L29.4827 21.3018C32.4578 20.948 35.1208 20.3181 37.1875 19.525C37.9785 19.2261 38.6113 19.3316 38.9277 19.9468C39.2617 20.5621 38.9277 21.2476 38.2598 21.5289C36.3705 22.3068 34.0715 22.9237 31.5143 23.3333ZM31.9317 26.7902C30.5889 27.0225 29.2324 27.1814 27.8505 27.2683L29.9524 29.3702C31.2966 29.2253 32.6118 29.0202 33.8955 28.754L31.9317 26.7902ZM36.3424 28.1614L34.4467 26.2658C35.3855 26.0365 36.3212 25.7701 37.2578 25.4664C38.1543 25.1851 38.7871 25.3609 39.0332 25.9761C39.2617 26.5211 39.1211 27.2593 38.1895 27.5933C37.5824 27.7984 36.9666 27.9877 36.3424 28.1614ZM34.6639 34.0817C34.9899 33.7644 35.0869 33.3039 34.9551 32.8843C34.7441 32.2339 34.1289 31.9879 33.2852 32.1988C33.1516 32.2334 33.017 32.267 32.8816 32.2994L34.6639 34.0817ZM30.3111 32.7684L32.3483 34.8056C29.4757 35.3389 26.3655 35.3358 23.7051 35.0289C22.8262 34.941 22.4922 34.3961 22.5801 33.7457C22.668 33.0953 23.248 32.7086 24.0918 32.7964C26.1293 33.0541 28.2682 33.0309 30.3111 32.7684ZM27.1274 29.5847L24.8874 27.3447C23.2433 27.3249 21.5709 27.1915 20.2422 27.0132C19.3809 26.9078 18.8535 27.2418 18.748 27.8746C18.625 28.5074 18.959 29.105 19.873 29.2632C21.2266 29.5093 23.125 29.65 25.3047 29.6324C25.9173 29.6277 26.5249 29.6118 27.1274 29.5847ZM21.3648 23.8221C18.1509 23.6396 14.7825 23.1451 11.9629 22.355C11.1543 22.1265 10.8203 21.4937 11.0137 20.8433C11.207 20.1754 11.8574 19.9293 12.6484 20.1578C14.5195 20.7133 16.6824 21.1013 18.8794 21.3367L21.3648 23.8221ZM26.0605 40.6011C24.918 40.7418 23.6172 40.7593 22.5098 40.6187C21.6309 40.5132 21.2617 39.9332 21.332 39.3355C21.4199 38.773 21.9121 38.3511 22.7031 38.4566C23.6875 38.5797 24.8301 38.5621 25.7969 38.439C26.6582 38.3336 27.1152 38.7554 27.1855 39.3355C27.2383 39.9859 26.8691 40.4957 26.0605 40.6011Z" fill="#FF0057"/>
</svg>
