<svg width="47" height="43" viewBox="0 0 47 43" fill="none" xmlns="http://www.w3.org/2000/svg">
<path fill-rule="evenodd" clip-rule="evenodd" d="M8.8944 6.90307C9.49774 6.29973 10.4759 6.29973 11.0793 6.90307L38.3734 34.1972C38.9768 34.8005 38.9768 35.7788 38.3734 36.3821C37.7701 36.9854 36.7919 36.9854 36.1885 36.3821L8.8944 9.08796C8.29106 8.48462 8.29106 7.50641 8.8944 6.90307Z" fill="white"/>
<path d="M32.5604 36.2895C30.2033 38.5415 26.9723 39.9238 23.3839 39.9238C16.089 39.9238 10.2531 34.2109 10.2531 27.0918C10.2531 23.4922 11.8836 19.9815 13.3887 17.1178L32.5604 36.2895Z" fill="white"/>
<path d="M34.1958 34.3894L14.6201 14.8137L16.1451 11.9689L35.7035 31.5273C35.323 32.5494 34.8143 33.5096 34.1958 34.3894Z" fill="white"/>
<path d="M36.3985 28.6868L17.379 9.66726L20.1847 4.43359C20.8702 3.13281 21.9777 2.44727 23.3839 2.44727C24.755 2.44727 25.8448 3.13281 26.5656 4.41602L32.964 16.3691C34.5636 19.3574 36.4972 23.1719 36.4972 27.0918C36.4972 27.6322 36.4637 28.1645 36.3985 28.6868Z" fill="white"/>
</svg>
