<svg width="38" height="43" viewBox="0 0 38 43" fill="none" xmlns="http://www.w3.org/2000/svg">
<path d="M0.565929 2.56593C1.3205 1.81136 2.54391 1.81136 3.29848 2.56593L37.4341 36.7015C38.1886 37.4561 38.1886 38.6795 37.4341 39.4341C36.6795 40.1886 35.4561 40.1886 34.7015 39.4341L0.565929 5.29848C-0.188643 4.54391 -0.188643 3.3205 0.565929 2.56593Z" fill="#FF0057"/>
<path d="M0.565929 2.56593C1.3205 1.81136 2.54391 1.81136 3.29848 2.56593L37.4341 36.7015C38.1886 37.4561 38.1886 38.6795 37.4341 39.4341C36.6795 40.1886 35.4561 40.1886 34.7015 39.4341L0.565929 5.29848C-0.188643 4.54391 -0.188643 3.3205 0.565929 2.56593Z" stroke="white"/>
<path fill-rule="evenodd" clip-rule="evenodd" d="M2.05041 8.20544C2.01678 8.47307 2 8.74213 2 9.01196C2 12.7262 4.90383 15.3236 10.4334 16.5884L2.05041 8.20544ZM14.0921 20.2471C12.0386 19.9967 10.031 19.6135 8.24023 19.0842C7.20312 18.7678 6.32422 19.1194 6.06055 20.0159C5.79688 20.9475 6.32422 21.8088 7.41406 22.1252C10.4779 23.0206 14.1208 23.5486 17.5717 23.7268L14.0921 20.2471ZM25.8304 23.5001L22.8676 20.5374C27.0095 20.3044 30.8701 19.5559 33.6934 18.5569C34.7305 18.2053 35.6445 18.4163 36.0488 19.2248C36.4531 20.0862 36.084 21.053 35.082 21.4397C32.5961 22.3967 29.3974 23.1212 25.8304 23.5001ZM20.6926 26.8476C19.092 26.8205 17.4393 26.7055 16.1855 26.5373C15.0781 26.3791 14.3574 26.9065 14.1992 27.7327C14.0234 28.6291 14.5156 29.5081 15.7109 29.6838C17.1699 29.8948 19.1211 30.053 21.5293 30.0354C22.2976 30.027 23.0569 30.0027 23.8076 29.9626L20.6926 26.8476ZM31.3008 28.9705L28.583 26.2527C30.3769 25.944 32.1444 25.5169 33.9219 24.9729C35.0469 24.6389 35.8379 24.9905 36.1543 25.7991C36.4883 26.6604 36.1016 27.6448 34.9766 27.9963C33.7723 28.3742 32.5479 28.6987 31.3008 28.9705ZM26.5948 32.7498L29.4429 35.5979C26.3695 36.1869 22.6171 36.2816 19.666 35.9416C18.4883 35.8186 18.0488 34.9573 18.1367 34.1663C18.2422 33.3049 18.998 32.7248 20.123 32.8127C22.2332 33.0088 24.4947 32.9779 26.5948 32.7498ZM19.7971 17.4669L16.1196 13.7894C17.1641 13.8503 18.2878 13.8811 19.4902 13.8811C27.4004 13.8811 33.9043 12.2815 33.9043 10.5413C33.9043 9.15258 30.0723 8.08032 24.7637 8.08032C19.7715 8.08032 16.1855 9.09985 13.2676 10.137C13.044 10.2137 12.8261 10.2632 12.6171 10.2868L10.5477 8.21741C10.6489 7.65991 11.0121 7.12627 11.7031 6.84985C15.2012 5.4436 19.5957 4.59985 24.957 4.59985C32.8672 4.59985 37.8066 6.83227 37.8066 10.5588C37.8066 14.6716 31.0633 17.4427 19.7971 17.4669ZM7.92096 5.5907C9.02852 4.79221 10.6091 4.07742 12.7051 3.45727C13.9004 3.12329 14.3398 2.13891 14.0234 1.17211C13.707 0.170161 12.8105 -0.216558 11.4922 0.117427C8.89361 0.804653 6.83729 1.79799 5.31252 2.98226L7.92096 5.5907ZM22.3379 42.0061C21.002 42.1643 19.6836 42.1643 18.4531 42.0237C17.4336 41.9182 16.8359 41.2327 16.9238 40.3362C17.0117 39.4748 17.7148 38.8596 18.7695 38.9827C19.7539 39.1057 20.8965 39.1057 21.9863 38.9651C23.0586 38.842 23.7617 39.4573 23.832 40.3186C23.9199 41.2502 23.3223 41.9006 22.3379 42.0061Z" fill="#FF0057"/>
</svg>
