<svg width="47" height="44" viewBox="0 0 47 44" fill="none" xmlns="http://www.w3.org/2000/svg">
<path fill-rule="evenodd" clip-rule="evenodd" d="M7.20655 6.81593C7.86184 6.16064 8.92427 6.16064 9.57956 6.81593L39.2236 36.46C39.8789 37.1153 39.8789 38.1777 39.2236 38.833C38.5683 39.4883 37.5059 39.4883 36.8506 38.833L7.20655 9.18893C6.55127 8.53364 6.55127 7.47121 7.20655 6.81593Z" fill="white"/>
<path fill-rule="evenodd" clip-rule="evenodd" d="M21.2061 18.4425L17.3849 14.6213C16.3453 14.5077 15.4038 14.3571 14.561 14.1704C12.7059 13.7594 11.3288 13.1729 10.4358 12.4182L16.0323 18.0147C16.8746 18.1386 17.7645 18.2375 18.7015 18.3109C19.5022 18.3736 20.3372 18.4175 21.2061 18.4425ZM11.4044 16.9224L5.43875 10.9567C5.41118 10.9291 5.38407 10.9013 5.35742 10.8731C5.70983 13.5933 7.7677 15.6425 11.4044 16.9224ZM8.79716 3.84394C9.72799 3.93387 10.6344 4.33527 11.3473 5.04816L12.2487 5.94959C13.2422 5.40527 14.4899 4.90644 16.008 4.45727C17.2033 4.12329 17.6428 3.13891 17.3264 2.17211C17.01 1.17016 16.1135 0.783442 14.7951 1.11743C12.2984 1.77772 10.3022 2.72061 8.79716 3.84394ZM14.4654 8.16628C14.6166 8.04144 14.7962 7.93379 15.0061 7.84985C18.5041 6.4436 22.8986 5.59985 28.26 5.59985C36.1701 5.59985 41.1096 7.83227 41.1096 11.5588C41.1096 15.4677 35.0184 18.1646 24.7423 18.4432L21.1602 14.861C21.6873 14.8744 22.2317 14.8811 22.7932 14.8811C30.7033 14.8811 37.2072 13.2815 37.2072 11.5413C37.2072 10.1526 33.3752 9.08032 28.0666 9.08032C23.4344 9.08032 20.0129 9.95813 17.2124 10.9133L14.4654 8.16628ZM24.3687 21.6051C24.0728 21.6107 23.7761 21.6135 23.4787 21.6135C22.9865 21.6135 22.4866 21.6061 21.9817 21.5911C21.155 21.5664 20.3147 21.5214 19.4726 21.455L22.8081 24.7905C23.0332 24.7936 23.2569 24.7952 23.4787 24.7952C24.0437 24.7952 24.6045 24.7865 25.1601 24.7695C25.9232 24.7462 26.6765 24.7072 27.417 24.6534L24.3687 21.6051ZM30.6188 24.3196L27.7242 21.4251C31.2706 21.1114 34.5295 20.4298 36.9963 19.5569C38.0334 19.2053 38.9475 19.4163 39.3518 20.2248C39.7561 21.0862 39.3869 22.053 38.385 22.4397C36.2495 23.2618 33.5879 23.9124 30.6188 24.3196ZM30.2624 27.4988C29.5526 27.5918 28.8371 27.6666 28.1137 27.7231C27.3705 27.7812 26.6191 27.8199 25.8569 27.8393L28.8567 30.8392C29.5766 30.7756 30.2886 30.6968 30.9932 30.6026C31.684 30.5102 32.3676 30.403 33.0445 30.2809L30.2624 27.4988ZM35.9528 29.6537L33.2859 26.9868C34.6032 26.713 35.9113 26.3749 37.2248 25.9729C38.3498 25.6389 39.1408 25.9905 39.4572 26.7991C39.7912 27.6604 39.4045 28.6448 38.2795 28.9963C37.5124 29.2371 36.737 29.4561 35.9528 29.6537ZM34.2533 36.2357C34.8817 35.9815 35.2315 35.4646 35.2814 34.8908C35.299 34.6879 35.2792 34.4778 35.2209 34.2698C35.0166 33.5108 34.376 33.1276 33.5508 33.1602C33.3821 33.1669 33.2056 33.1909 33.0236 33.2327C32.5497 33.3423 32.0542 33.4399 31.5426 33.525L34.2533 36.2357ZM28.3616 33.8796L31.3131 36.831C28.5581 37.2056 25.4747 37.2303 22.969 36.9416C21.7912 36.8186 21.3518 35.9573 21.4397 35.1663C21.5451 34.3049 22.301 33.7248 23.426 33.8127C25.0296 33.9617 26.7205 33.9796 28.3616 33.8796ZM25.5059 31.0239L22.2679 27.7858C21.2568 27.7308 20.2909 27.645 19.4885 27.5373C18.3811 27.3791 17.6604 27.9065 17.5022 28.7327C17.3264 29.6291 17.8186 30.5081 19.0139 30.6838C20.4729 30.8948 22.424 31.053 24.8322 31.0354C25.0576 31.0329 25.2821 31.0291 25.5059 31.0239ZM19.0862 24.6041C16.1913 24.3567 13.2554 23.8671 10.717 23.1252C9.62716 22.8088 9.09982 21.9475 9.36349 21.0159C9.62716 20.1194 10.5061 19.7678 11.5432 20.0842C12.7624 20.4446 14.0821 20.7372 15.4484 20.9663L19.0862 24.6041ZM10.2282 7.46464L9.57956 6.81593C8.92427 6.16064 7.86184 6.16064 7.20655 6.81593C6.55127 7.47121 6.55127 8.53364 7.20655 9.18893L9.93297 11.9154C9.44857 11.3335 9.20529 10.6689 9.20529 9.92407C9.20529 9.59376 9.2522 9.27127 9.3476 8.95701C9.50566 8.43635 9.79682 7.93828 10.2282 7.46464ZM25.6408 43.0061C24.3049 43.1643 22.9865 43.1643 21.7561 43.0237C20.7365 42.9182 20.1389 42.2327 20.2268 41.3362C20.3147 40.4748 21.0178 39.8596 22.0725 39.9827C23.0569 40.1057 24.1994 40.1057 25.2893 39.9651C26.3615 39.842 27.0647 40.4573 27.135 41.3186C27.2229 42.2502 26.6252 42.9006 25.6408 43.0061Z" fill="white"/>
</svg>
