<svg width="30" height="36" viewBox="0 0 30 36" fill="none" xmlns="http://www.w3.org/2000/svg">
<path d="M0.43934 4.43934C1.02513 3.85355 1.97487 3.85355 2.56066 4.43934L29.0607 30.9393C29.6464 31.5251 29.6464 32.4749 29.0607 33.0607C28.4749 33.6464 27.5251 33.6464 26.9393 33.0607L0.43934 6.56066C-0.146447 5.97487 -0.146447 5.02513 0.43934 4.43934Z" fill="#FF0057"/>
<path d="M0.43934 4.43934C1.02513 3.85355 1.97487 3.85355 2.56066 4.43934L29.0607 30.9393C29.6464 31.5251 29.6464 32.4749 29.0607 33.0607C28.4749 33.6464 27.5251 33.6464 26.9393 33.0607L0.43934 6.56066C-0.146447 5.97487 -0.146447 5.02513 0.43934 4.43934Z" stroke="#FDDCD5"/>
<path fill-rule="evenodd" clip-rule="evenodd" d="M23.5376 31.354C21.3126 33.9527 17.9627 35.5957 14.1816 35.5957C7.39648 35.5957 2 30.3047 2 23.6953C2 20.0215 3.82812 16.4004 5.42773 13.4121L5.48625 13.3027L7.64802 15.4644C6.18798 18.2116 4.88281 20.886 4.88281 23.6953C4.88281 28.7402 9.01367 32.7129 14.1816 32.7129C17.1577 32.7129 19.7957 31.3954 21.498 29.3145L23.5376 31.354ZM26.219 25.5501C26.314 24.9462 26.3633 24.3268 26.3633 23.6953C26.3633 20.0215 24.5352 16.4004 22.9355 13.4121L16.5547 1.49414C15.9922 0.492188 15.2012 0 14.1816 0C13.1445 0 12.3535 0.492188 11.8086 1.47656L8.44225 7.77338L10.6086 9.93973L14.0059 3.60352C14.0938 3.39258 14.3047 3.41016 14.3926 3.60352L20.3691 14.7832C21.8083 17.456 23.1906 20.0719 23.4534 22.7845L26.219 25.5501Z" fill="#FF0057"/>
</svg>
