<svg width="47" height="43" viewBox="0 0 47 43" fill="none" xmlns="http://www.w3.org/2000/svg">
<path fill-rule="evenodd" clip-rule="evenodd" d="M9.43934 7.43739C10.0251 6.8516 10.9749 6.8516 11.5607 7.43739L38.0607 33.9374C38.6464 34.5232 38.6464 35.4729 38.0607 36.0587C37.4749 36.6445 36.5251 36.6445 35.9393 36.0587L9.43934 9.55871C8.85355 8.97292 8.85355 8.02317 9.43934 7.43739Z" fill="#FF0057"/>
<path fill-rule="evenodd" clip-rule="evenodd" d="M32.3791 35.3269C30.1542 37.9412 26.7942 39.5957 23 39.5957C16.2148 39.5957 10.8184 34.3047 10.8184 27.6953C10.8184 24.0215 12.6465 20.4004 14.2461 17.4121L14.3221 17.2699L16.4838 19.4316C15.0168 22.1903 13.7012 24.8748 13.7012 27.6953C13.7012 32.7402 17.832 36.7129 23 36.7129C25.9893 36.7129 28.6374 35.3837 30.339 33.2868L32.3791 35.3269ZM34.8024 30.6791C34.5253 31.7441 34.1029 32.75 33.5564 33.6757L31.4384 31.5578C31.9359 30.5286 32.2393 29.3888 32.3036 28.1803L34.8024 30.6791ZM35.1703 28.2186C35.1778 28.0452 35.1816 27.8707 35.1816 27.6953C35.1816 24.0215 33.3535 20.4004 31.7539 17.4121L25.373 5.49414C24.8105 4.49219 24.0195 4 23 4C21.9629 4 21.1719 4.49219 20.627 5.47656L17.7708 10.8191L19.9381 12.9864L22.8242 7.60352C22.9121 7.39258 23.123 7.41016 23.2109 7.60352L29.1875 18.7832C30.3074 20.8629 31.3927 22.9082 31.9431 24.9914L35.1703 28.2186ZM18.9509 14.8276L16.7855 12.6622L15.3075 15.4268L17.4701 17.5895L18.9509 14.8276Z" fill="#FF0057"/>
</svg>
