<svg width="47" height="35" viewBox="0 0 47 35" fill="none" xmlns="http://www.w3.org/2000/svg">
<path d="M8.03125 14.9355C11.3184 14.9355 11.8457 13.582 13.3047 13.582C13.6387 13.582 13.8848 13.6523 14.3242 13.8633L17.2949 15.4453C17.6641 15.6387 17.9629 15.8145 18.1914 15.9727H18.2969C18.7012 14.4961 19.3691 13.5469 20.4766 12.8438V12.7383L16.4863 10.6113C15.2383 9.94336 15.1328 9.39844 15.1328 7.83398C15.1328 3.86133 11.9688 0.697266 8.03125 0.697266C4.11133 0.697266 0.964844 3.87891 0.964844 7.83398C0.964844 11.7715 4.11133 14.9355 8.03125 14.9355ZM8.03125 12.0703C5.71094 12.0703 3.84766 10.1543 3.84766 7.83398C3.84766 5.46094 5.71094 3.58008 8.03125 3.58008C10.3867 3.58008 12.2676 5.46094 12.2676 7.83398C12.2676 10.1543 10.3867 12.0703 8.03125 12.0703ZM8.03125 34.9395C11.9688 34.9395 15.1328 31.7754 15.1328 27.8027C15.1328 26.3438 15.2031 25.7637 16.2754 25.1836L46.0176 9.38086C45.2969 6.74414 42.4316 6.28711 38.0547 7.85156L23.043 13.248C20.9336 14.0039 20.0195 15.041 19.457 16.9922L19.1055 18.2754C18.8418 19.1895 18.4375 19.6465 17.0488 20.3496L14.3242 21.791C13.8848 22.0195 13.6387 22.0898 13.3047 22.0898C11.8281 22.0898 11.3008 20.7188 8.03125 20.7188C4.11133 20.7188 0.964844 23.8828 0.964844 27.8027C0.964844 31.7578 4.11133 34.9395 8.03125 34.9395ZM23.4297 18.3457C22.6562 18.3457 21.9707 17.6953 21.9707 16.8867C21.9707 16.043 22.6562 15.4102 23.4297 15.4102C24.2559 15.4102 24.9414 16.043 24.9414 16.8867C24.9414 17.6953 24.2559 18.3457 23.4297 18.3457ZM38.0547 27.8379C42.4668 29.4727 45.2969 28.9453 46.0176 26.2383L31.709 18.6797L24.4492 22.4941V22.7051L38.0547 27.8379ZM8.03125 32.0566C5.71094 32.0566 3.84766 30.1758 3.84766 27.8027C3.84766 25.4824 5.71094 23.584 8.03125 23.584C10.3867 23.584 12.2676 25.4824 12.2676 27.8027C12.2676 30.1758 10.3867 32.0566 8.03125 32.0566Z" fill="#FF0057"/>
</svg>
