<svg width="49" height="43" viewBox="0 0 49 43" fill="none" xmlns="http://www.w3.org/2000/svg">
<path d="M8.64453 19.5156C12.1953 19.5156 12.5469 18.1797 14.2344 18.1797C14.6387 18.1797 14.9551 18.2676 15.377 18.4961L17.3984 19.5859C17.8203 19.832 18.1719 20.0254 18.4531 20.1836H18.6289C19.1387 18.3555 19.6836 17.3887 20.9141 16.4746V16.3164L17.9082 14.7168C16.5547 13.9961 16.3613 13.4512 16.3613 11.834C16.3613 7.52734 12.9336 4.09961 8.64453 4.09961C4.37305 4.09961 0.962891 7.54492 0.962891 11.834C0.962891 16.1055 4.37305 19.5156 8.64453 19.5156ZM8.64453 15.3672C6.71094 15.3672 5.14648 13.75 5.14648 11.834C5.14648 9.83008 6.71094 8.26562 8.64453 8.26562C10.6133 8.26562 12.1953 9.83008 12.1953 11.834C12.1953 13.75 10.6133 15.3672 8.64453 15.3672ZM8.64453 39.502C12.9512 39.502 16.3613 36.0918 16.3613 31.8027C16.3613 30.291 16.5371 29.6406 17.8027 28.9551L48.0195 12.9414C47.2988 9.90039 43.9766 9.10938 39.248 10.8145L23.6914 16.4395C21.3711 17.2832 20.2988 18.4434 19.7012 20.6055L19.3145 21.9766C19.0332 22.9961 18.5586 23.418 16.959 24.2793L15.377 25.123C14.8672 25.3867 14.6211 25.4746 14.2344 25.4746C12.6523 25.4746 12.1953 24.1035 8.64453 24.1035C4.37305 24.1035 0.962891 27.5312 0.962891 31.8027C0.962891 36.0918 4.37305 39.502 8.64453 39.502ZM24.0078 22.0469C23.252 22.0469 22.5664 21.3965 22.5664 20.6055C22.5664 19.7793 23.252 19.1465 24.0078 19.1465C24.8164 19.1465 25.502 19.7793 25.502 20.6055C25.502 21.4141 24.8164 22.0469 24.0078 22.0469ZM39.248 32.6816C43.9941 34.4219 47.2812 33.6484 48.0195 30.5195L32.7266 22.4512L24.3418 26.8984V27.1797L39.248 32.6816ZM8.64453 35.3359C6.71094 35.3359 5.14648 33.7363 5.14648 31.8027C5.14648 29.834 6.71094 28.252 8.64453 28.252C10.6133 28.252 12.1953 29.834 12.1953 31.8027C12.1953 33.7363 10.6133 35.3359 8.64453 35.3359Z" fill="white"/>
</svg>
