<svg width="47" height="43" viewBox="0 0 47 43" fill="none" xmlns="http://www.w3.org/2000/svg">
<path d="M8.03125 18.9355C11.3184 18.9355 11.8457 17.582 13.3047 17.582C13.6387 17.582 13.8848 17.6523 14.3242 17.8633L17.2949 19.4453C17.6641 19.6387 17.9629 19.8145 18.1914 19.9727H18.2969C18.7012 18.4961 19.3691 17.5469 20.4766 16.8438V16.7383L16.4863 14.6113C15.2383 13.9434 15.1328 13.3984 15.1328 11.834C15.1328 7.86133 11.9688 4.69727 8.03125 4.69727C4.11133 4.69727 0.964844 7.87891 0.964844 11.834C0.964844 15.7715 4.11133 18.9355 8.03125 18.9355ZM8.03125 16.0703C5.71094 16.0703 3.84766 14.1543 3.84766 11.834C3.84766 9.46094 5.71094 7.58008 8.03125 7.58008C10.3867 7.58008 12.2676 9.46094 12.2676 11.834C12.2676 14.1543 10.3867 16.0703 8.03125 16.0703ZM8.03125 38.9395C11.9688 38.9395 15.1328 35.7754 15.1328 31.8027C15.1328 30.3438 15.2031 29.7637 16.2754 29.1836L46.0176 13.3809C45.2969 10.7441 42.4316 10.2871 38.0547 11.8516L23.043 17.248C20.9336 18.0039 20.0195 19.041 19.457 20.9922L19.1055 22.2754C18.8418 23.1895 18.4375 23.6465 17.0488 24.3496L14.3242 25.791C13.8848 26.0195 13.6387 26.0898 13.3047 26.0898C11.8281 26.0898 11.3008 24.7188 8.03125 24.7188C4.11133 24.7188 0.964844 27.8828 0.964844 31.8027C0.964844 35.7578 4.11133 38.9395 8.03125 38.9395ZM23.4297 22.3457C22.6562 22.3457 21.9707 21.6953 21.9707 20.8867C21.9707 20.043 22.6562 19.4102 23.4297 19.4102C24.2559 19.4102 24.9414 20.043 24.9414 20.8867C24.9414 21.6953 24.2559 22.3457 23.4297 22.3457ZM38.0547 31.8379C42.4668 33.4727 45.2969 32.9453 46.0176 30.2383L31.709 22.6797L24.4492 26.4941V26.7051L38.0547 31.8379ZM8.03125 36.0566C5.71094 36.0566 3.84766 34.1758 3.84766 31.8027C3.84766 29.4824 5.71094 27.584 8.03125 27.584C10.3867 27.584 12.2676 29.4824 12.2676 31.8027C12.2676 34.1758 10.3867 36.0566 8.03125 36.0566Z" fill="#FF0057"/>
</svg>
