<svg width="47" height="43" viewBox="0 0 47 43" fill="none" xmlns="http://www.w3.org/2000/svg">
<path d="M37.2988 27.8828V10.2871C37.2988 8.65234 36.1914 7.52734 34.5391 7.52734H16.9258C15.3789 7.52734 14.2188 8.70508 14.2188 10.1113C14.2188 11.5176 15.4141 12.6074 16.9082 12.6074H23.5527L28.9844 12.4141L25.9434 15.1211L10.5801 30.502C10 31.082 9.68359 31.7676 9.68359 32.4707C9.68359 33.8418 10.9668 35.1426 12.3555 35.1426C13.0586 35.1426 13.7266 34.8262 14.3242 34.2461L29.7051 18.8828L32.4297 15.8418L32.2012 21.0801V27.9004C32.2012 29.4121 33.291 30.5898 34.6973 30.5898C36.1211 30.5898 37.2988 29.3945 37.2988 27.8828Z" fill="white"/>
</svg>
