<svg width="27" height="27" viewBox="0 0 27 27" fill="none" xmlns="http://www.w3.org/2000/svg">
<path d="M26.4727 19.7598L26.4551 2.07617C26.4551 1.07422 25.8047 0.371094 24.75 0.371094H7.06641C6.08203 0.371094 5.41406 1.12695 5.41406 1.9707C5.41406 2.81445 6.16992 3.53516 6.99609 3.53516H13.1133L21.6914 3.25391L18.4219 6.11914L1.00195 23.5742C0.685547 23.8906 0.509766 24.2949 0.509766 24.6816C0.509766 25.5254 1.26562 26.3164 2.14453 26.3164C2.54883 26.3164 2.93555 26.1758 3.25195 25.8418L20.707 8.4043L23.6074 5.11719L23.291 13.3262V19.8301C23.291 20.6562 24.0117 21.4297 24.873 21.4297C25.7168 21.4297 26.4727 20.709 26.4727 19.7598Z" fill="#FF0057"/>
</svg>
