<svg width="47" height="43" viewBox="0 0 47 43" fill="none" xmlns="http://www.w3.org/2000/svg">
<path d="M36.4727 27.7598L36.4551 10.0762C36.4551 9.07422 35.8047 8.37109 34.75 8.37109H17.0664C16.082 8.37109 15.4141 9.12695 15.4141 9.9707C15.4141 10.8145 16.1699 11.5352 16.9961 11.5352H23.1133L31.6914 11.2539L28.4219 14.1191L11.002 31.5742C10.6855 31.8906 10.5098 32.2949 10.5098 32.6816C10.5098 33.5254 11.2656 34.3164 12.1445 34.3164C12.5488 34.3164 12.9355 34.1758 13.252 33.8418L30.707 16.4043L33.6074 13.1172L33.291 21.3262V27.8301C33.291 28.6562 34.0117 29.4297 34.873 29.4297C35.7168 29.4297 36.4727 28.709 36.4727 27.7598Z" fill="#FF0057"/>
</svg>
