<svg width="55" height="43" viewBox="0 0 55 43" fill="none" xmlns="http://www.w3.org/2000/svg">
<path d="M16.2852 40.0996C19.5898 40.0996 22.5781 39.3613 25.0391 37.1289C25.9883 37.8145 27.043 38.2012 28.6426 38.2012C30.1191 38.2012 31.2793 37.709 33.3711 37.709C35.2695 37.709 36.2363 38.2012 37.7656 38.2012C41.3867 38.2012 42.6523 36.3379 42.6523 34.2812C42.6523 30.959 40.1211 28.9727 35.0586 28.5332C36.8516 27.6543 38.5215 26.9688 39.6816 26.5469C41.791 27.9531 44.832 28.7969 47.082 28.7793C51.8281 28.7441 54.7109 27.2676 54.7109 22.3984C54.7109 16.4219 50.1582 11.9219 44.8145 11.8691L41 6.68359C38.0645 2.76367 34.9355 0.566406 30.9277 0.566406C27.8164 0.566406 23.5801 2.28906 23.5801 4.73242C23.5801 6.77148 25.9004 8.23047 28.168 9.6543C30.8047 11.3066 34.3555 13.3633 37.6602 15.2793C37.2207 15.6836 36.8867 15.8594 36.4473 15.8594C35.9023 15.8594 35.1816 15.5957 34.25 15.0508C27.1484 11.043 22.8945 7.79102 17.4277 7.79102C10.8887 7.79102 6.17773 11.1484 3.94531 17.582C1.76562 18.0391 0.271484 19.4629 0.271484 21.6602C0.271484 24.3848 2.48633 25.791 4.75391 25.9141C6.42383 28.6387 11.082 31.0469 17.0762 30.5547L18.7637 31.9434C18.3066 32.1719 17.8848 32.2422 17.3926 32.2422C16.2324 32.2246 15.1074 31.8555 13.7715 31.8555C11.3281 31.8555 9.62305 33.2793 9.62305 35.4062C9.62305 38.4121 12.2773 40.0996 16.2852 40.0996ZM33.2832 35.1953C31.0684 35.1953 29.6973 35.5469 28.7129 35.5469C27.9043 35.5469 27.0254 35.4238 26.1289 34.7031L18.2715 28.0762C12.6465 28.3223 8.5332 26.8457 6.14258 23.4004C4.34961 23.6113 3.04883 22.9258 3.04883 21.4492C3.04883 20.1133 4.22656 19.1816 6.16016 19.2871C7.9707 13.3457 11.9258 10.5859 17.3926 10.5859C23.123 10.5859 29.0293 15.209 33.3359 17.6348C34.4961 18.3379 35.7793 18.5664 36.6582 18.5664C38.5742 18.5664 40.1035 17.3535 41.4746 14.8926L29.7676 7.68555C28.5195 6.92969 26.7617 5.57617 26.7617 5.10156C26.7617 4.06445 29.1875 3.29102 30.9629 3.29102C33.7402 3.29102 36.0605 4.97852 38.2051 7.54492L43.6016 13.9961C48.5586 13.7676 52.3203 17.5645 52.3203 22.416C52.3203 25.5273 50.8613 26.4766 47.1699 26.4766C44.8672 26.4766 42.3359 25.5449 40.1387 24.1562C36.9219 24.9648 33.5293 26.4941 30.8047 28.5156C30.4355 28.5508 30.1367 28.5859 29.873 28.6211L28.5898 25.5273C25.9355 19.1465 21.6992 16.9668 17.375 16.9668C16.6719 16.9668 15.8633 16.9844 15.1426 17.1426C14.2812 17.3359 13.9473 17.793 13.9473 18.373C13.9473 19.041 14.4395 19.4805 15.1602 19.4629C15.916 19.4277 16.3906 19.3398 17.252 19.3398C21.2422 19.3398 24.0723 21.502 26.6211 27.2676L28.3086 31.1875C29.6445 30.9062 30.9102 30.6953 32.9141 30.6953C36.4824 30.6953 40.0508 31.6445 40.0508 34.0703C40.0508 35.002 39.2246 35.6348 37.7656 35.6348C36.043 35.6348 34.8125 35.1953 33.2832 35.1953ZM45.9922 21.3086C46.8711 21.3086 47.5918 20.5879 47.5918 19.7266C47.5918 18.8652 46.8711 18.1445 45.9922 18.1445C45.1309 18.1445 44.4102 18.8652 44.4102 19.7266C44.4102 20.5879 45.1309 21.3086 45.9922 21.3086ZM12.1543 35.4238C12.1543 34.7207 12.6113 34.1758 13.6309 34.1758C14.6328 34.1758 15.7402 34.457 16.9531 34.457C18.5703 34.457 19.6953 34.3164 20.7676 33.5957L23.0527 35.4941C21.4355 36.9531 19.0625 37.709 16.1973 37.709C13.7363 37.709 12.1543 36.8301 12.1543 35.4238Z" fill="#FF0057"/>
</svg>
