<svg width="53" height="43" viewBox="0 0 53 43" fill="none" xmlns="http://www.w3.org/2000/svg">
<path d="M27.7656 37.6211C28.9961 37.6211 30.0859 37.041 32.3887 37.041C34.709 37.041 35.3418 37.6211 37.0645 37.6211C39.666 37.6211 41.0371 36.5312 41.0371 34.7207C41.0371 31.627 37.6797 29.5527 32.3711 29.5527C29.7695 29.5527 28.6094 29.7988 27.1328 30.168L25.2344 25.8438C23.3711 21.6953 20.3652 18.9883 16.1113 18.9883H14.0371C13.3516 18.9883 12.8945 18.6895 12.8945 18.0215C12.8945 16.9316 14.3535 16.668 15.9531 16.668C21.1035 16.668 24.9004 19.498 27.2207 25.1934L28.4336 28.1289C29.6113 27.8828 30.8945 27.7598 32.1953 27.7598C33.2324 27.7598 34.1816 27.8301 35.1836 27.9707C36.2559 27.1797 37.4688 26.3535 39.2441 25.5801C41.2129 26.916 43.4629 27.7773 45.8008 27.7773C50.6523 27.7773 52.832 26.7227 52.832 22.1348C52.832 16.5977 48.8242 12.4492 43.498 12.4668L38.7871 6.19141C36.1328 2.74609 32.9863 1.09375 29.8574 1.09375C27.291 1.09375 23.4766 2.57031 23.4766 4.64453C23.4766 6.05078 26.3242 8.01953 28.5215 9.37305L38.6465 15.5605C37.8555 16.3164 37.1523 16.7207 36.2734 16.7207C34.9199 16.7207 33.4961 15.8945 31.3691 14.6641C25.9551 11.5352 21.7715 8.59961 16.1465 8.59961C10.293 8.59961 5.8457 11.957 3.47266 18.4961C1.5918 18.4961 0.167969 19.7266 0.167969 21.5371C0.167969 23.5762 1.78516 24.8594 4 24.8594C6.56641 28.4453 10.7676 29.8867 15.7422 29.8867C16.0059 29.8867 16.2695 29.8691 16.5332 29.8691L23.6523 35.7754C25.4102 37.375 26.4297 37.6211 27.7656 37.6211ZM45.3965 21.291C44.6055 21.291 43.9727 20.623 43.9727 19.8496C43.9727 19.0586 44.623 18.3555 45.4141 18.3555C46.2227 18.3555 46.8555 18.9883 46.8555 19.7793C46.8555 20.5703 46.2051 21.291 45.3965 21.291ZM15.0566 39.0098C18.4492 39.0098 20.5234 38.3594 22.2109 37.1992L16.7617 32.6641C16.5156 32.6816 16.2168 32.7168 15.8477 32.7168C14.9688 32.7168 13.668 32.4531 12.1211 32.4531C10.1523 32.4531 8.93945 33.5078 8.93945 35.0898C8.93945 37.4453 11.3301 39.0098 15.0566 39.0098Z" fill="white"/>
</svg>
