<svg width="32" height="37" viewBox="0 0 32 37" fill="none" xmlns="http://www.w3.org/2000/svg">
<path d="M21.2773 2.04687C22.0859 4.57812 22.4902 7.19726 22.4902 9.69336C22.4902 12.9277 21.9805 15.3008 21.9805 18.3594C21.9805 21.5234 24.125 23.4922 26.9199 23.4922C29.7852 23.4922 31.8242 21.3125 31.8242 18.5879C31.8242 16.584 30.5762 14.8262 28.9062 14.0879C28.3262 13.8066 27.6406 13.9121 27.3242 14.5449C27.043 15.0898 27.2187 15.7754 27.9395 16.1445C28.8359 16.5312 29.5391 17.4805 29.5391 18.5879C29.5391 20.0469 28.5195 21.207 26.9199 21.207C25.3203 21.207 24.2656 20.082 24.2656 18.3594C24.2656 15.4414 24.793 13.0332 24.793 9.69336C24.793 6.82812 24.2832 3.94531 23.457 1.34375C23.2461 0.605468 22.6133 0.324218 21.998 0.499999C21.4004 0.67578 21.0488 1.25586 21.2773 2.04687ZM13.0508 29.5391C13.0508 33.6523 15.6523 36.5352 19.291 36.5352C22.877 36.5352 25.4785 33.7754 25.4785 30.3477C25.4785 27.166 23.2637 24.8105 20.3457 24.3887C19.625 24.2832 19.0449 24.6875 18.957 25.3203C18.8691 25.9707 19.2734 26.5332 20.0996 26.6914C21.9277 26.9727 23.1934 28.502 23.1934 30.3477C23.1934 32.5098 21.5937 34.2324 19.291 34.2324C16.9531 34.2324 15.3359 32.3867 15.3359 29.5391C15.3359 24.1777 18.3945 18.3945 18.3945 11.3633C18.3945 7.74219 17.8145 4.45508 16.707 1.34375C16.4609 0.623046 15.8457 0.324218 15.2305 0.499999C14.6328 0.67578 14.2637 1.27344 14.5273 2.04687C15.6172 4.91211 16.0918 7.90039 16.0918 11.3633C16.0918 18.377 13.0508 23.6152 13.0508 29.5391ZM0.658202 18.377C0.658202 21.084 2.66211 23.1758 5.52734 23.1758C9.67578 23.1758 11.9961 18.9395 11.9961 11.1348C11.9961 7.88281 11.3633 4.33203 10.3262 1.34375C10.0801 0.623046 9.46484 0.324217 8.84961 0.499999C8.25195 0.67578 7.88281 1.27344 8.14648 2.04687C9.14844 4.8418 9.69336 7.9707 9.69336 11.1348C9.69336 17.5156 8.09375 20.8906 5.52734 20.8906C3.91016 20.8906 2.94336 19.7656 2.94336 18.377C2.94336 16.9883 3.875 16.1445 5.35156 15.8984C6.00195 15.793 6.5293 15.3359 6.47656 14.5801C6.42383 13.7715 5.75586 13.4551 5.05273 13.5605C2.60937 13.877 0.658202 15.6875 0.658202 18.377Z" fill="#FF0057"/>
</svg>
