<svg width="47" height="43" viewBox="0 0 47 43" fill="none" xmlns="http://www.w3.org/2000/svg">
<path d="M29.2773 5.0468C30.0859 7.57805 30.4902 10.1972 30.4902 12.6933C30.4902 15.9277 29.9805 18.3007 29.9805 21.3593C29.9805 24.5234 32.125 26.4921 34.9199 26.4921C37.7852 26.4921 39.8242 24.3124 39.8242 21.5878C39.8242 19.5839 38.5762 17.8261 36.9062 17.0878C36.3262 16.8066 35.6406 16.912 35.3242 17.5448C35.043 18.0898 35.2187 18.7753 35.9395 19.1445C36.8359 19.5312 37.5391 20.4804 37.5391 21.5878C37.5391 23.0468 36.5195 24.207 34.9199 24.207C33.3203 24.207 32.2656 23.082 32.2656 21.3593C32.2656 18.4413 32.793 16.0331 32.793 12.6933C32.793 9.82805 32.2832 6.94524 31.457 4.34367C31.2461 3.60539 30.6133 3.32414 29.998 3.49992C29.4004 3.67571 29.0488 4.25578 29.2773 5.0468ZM21.0508 32.539C21.0508 36.6523 23.6523 39.5351 27.291 39.5351C30.877 39.5351 33.4785 36.7753 33.4785 33.3476C33.4785 30.1659 31.2637 27.8105 28.3457 27.3886C27.625 27.2831 27.0449 27.6874 26.957 28.3202C26.8691 28.9706 27.2734 29.5331 28.0996 29.6913C29.9277 29.9726 31.1934 31.5019 31.1934 33.3476C31.1934 35.5097 29.5937 37.2323 27.291 37.2323C24.9531 37.2323 23.3359 35.3866 23.3359 32.539C23.3359 27.1777 26.3945 21.3945 26.3945 14.3632C26.3945 10.7421 25.8145 7.455 24.707 4.34367C24.4609 3.62297 23.8457 3.32414 23.2305 3.49992C22.6328 3.67571 22.2637 4.27336 22.5273 5.0468C23.6172 7.91203 24.0918 10.9003 24.0918 14.3632C24.0918 21.3769 21.0508 26.6152 21.0508 32.539ZM8.6582 21.3769C8.6582 24.0839 10.6621 26.1757 13.5273 26.1757C17.6758 26.1757 19.9961 21.9394 19.9961 14.1347C19.9961 10.8827 19.3633 7.33196 18.3262 4.34367C18.0801 3.62297 17.4648 3.32414 16.8496 3.49992C16.252 3.67571 15.8828 4.27336 16.1465 5.0468C17.1484 7.84172 17.6934 10.9706 17.6934 14.1347C17.6934 20.5155 16.0937 23.8905 13.5273 23.8905C11.9102 23.8905 10.9434 22.7655 10.9434 21.3769C10.9434 19.9882 11.875 19.1445 13.3516 18.8984C14.002 18.7929 14.5293 18.3359 14.4766 17.58C14.4238 16.7714 13.7559 16.455 13.0527 16.5605C10.6094 16.8769 8.6582 18.6874 8.6582 21.3769Z" fill="#FF0057"/>
</svg>
