<svg width="47" height="43" viewBox="0 0 47 43" fill="none" xmlns="http://www.w3.org/2000/svg">
<path d="M29.2422 5.01182C29.998 7.54307 30.3848 10.1798 30.3848 12.6759C30.3848 15.8575 29.8926 18.2481 29.8926 21.3067C29.8926 24.6114 32.1953 26.8966 35.2715 26.8966C38.3652 26.8966 40.6328 24.5411 40.6328 21.5353C40.6328 19.4786 39.3848 17.5626 37.6094 16.7013C36.8008 16.2794 35.8867 16.4728 35.4473 17.2462C34.9727 18.0372 35.2539 19.0216 36.1855 19.5314C36.9062 19.8653 37.4512 20.6739 37.4512 21.5353C37.4512 22.7833 36.6074 23.7149 35.2715 23.7149C33.9355 23.7149 33.0742 22.7833 33.0742 21.3067C33.0742 18.4767 33.5664 15.9981 33.5664 12.6759C33.5664 9.82823 33.0918 6.8751 32.2832 4.08018C32.0195 3.11338 31.1406 2.65635 30.2793 2.90245C29.4004 3.14854 28.9434 3.99229 29.2422 5.01182ZM20.418 32.7501C20.418 37.0567 23.2305 40.1505 27.0977 40.1505C30.9121 40.1505 33.7422 37.2501 33.7422 33.5235C33.7422 30.5001 31.7383 27.9689 28.9609 27.2306C28.0469 26.9493 27.168 27.3536 26.9043 28.1798C26.623 29.0587 27.0801 29.9552 28.0996 30.2892C29.5586 30.6583 30.5605 32.0118 30.5605 33.5235C30.5605 35.4747 29.1367 36.9689 27.0977 36.9689C25.0234 36.9689 23.5996 35.3165 23.5996 32.7501C23.5996 27.4239 26.6582 21.4825 26.6582 14.4161C26.6582 10.7423 26.0781 7.33213 24.9883 4.0626C24.6719 3.11338 23.8457 2.65635 22.9844 2.90245C22.0879 3.16612 21.6133 4.04502 21.9648 5.0294C23.0195 8.0001 23.4766 11.006 23.4766 14.4161C23.4766 21.3067 20.418 26.6505 20.418 32.7501ZM7.51562 21.3243C7.51562 24.295 9.74805 26.5802 12.8242 26.5802C17.2715 26.5802 19.7324 22.045 19.7324 13.9415C19.7324 10.7071 19.1172 7.13877 18.0977 4.0626C17.7812 3.11338 16.9375 2.65635 16.0937 2.90245C15.1973 3.16612 14.7227 4.04502 15.0742 5.0294C16.041 7.80674 16.5508 10.8478 16.5508 13.9415C16.5508 19.9708 15.0918 23.3985 12.8242 23.3985C11.5059 23.3985 10.6973 22.5196 10.6973 21.3243C10.6973 20.2872 11.3652 19.5665 12.5078 19.2501C13.3516 18.9337 13.8262 18.1075 13.5449 17.211C13.2637 16.297 12.3145 15.9454 11.3828 16.2794C9.15039 16.9474 7.51562 18.8634 7.51562 21.3243Z" fill="white"/>
</svg>
