<svg width="47" height="43" viewBox="0 0 47 43" fill="none" xmlns="http://www.w3.org/2000/svg">
<path d="M7.97847 36.7599C11.705 40.4688 16.9785 40.4337 21.0566 36.3731L26.4179 30.9767L33.2558 24.1563L38.6347 18.7774C42.7128 14.7169 42.7304 9.44346 39.0214 5.71689C35.2949 2.00791 30.0214 2.02549 25.9609 6.08603L20.582 11.4825L13.7617 18.3204L8.36519 23.6817C4.30464 27.7599 4.26948 33.0333 7.97847 36.7599ZM33.2734 18.004L26.7167 11.4649C26.33 11.0782 25.9433 10.7618 25.5566 10.5157L27.9472 8.1251C30.7597 5.29502 34.4687 4.9083 37.1582 7.5626C39.8652 10.2345 39.4433 13.9786 36.6132 16.7911L34.2226 19.1817C33.9765 18.795 33.6601 18.4083 33.2734 18.004ZM25.0996 13.5919L31.1464 19.6388C32.1484 20.6407 32.0429 21.379 30.9882 22.4161L24.6777 28.7267C23.6406 29.7813 22.9023 29.8868 21.9003 28.8849L15.8535 22.838C14.8515 21.836 14.957 21.0802 16.0117 20.0431L22.3222 13.7501C23.3593 12.6954 24.0976 12.5899 25.0996 13.5919ZM23.4824 19.2696C24.3437 19.2696 24.9765 18.6017 24.9765 17.7931C25.0117 16.9845 24.3261 16.2989 23.5 16.2989C22.6738 16.2989 22.0234 16.9845 22.0234 17.8282C22.0234 18.5841 22.7089 19.2696 23.4824 19.2696ZM20.1074 22.7149C20.916 22.7149 21.5664 22.0118 21.5664 21.256C21.5664 20.4122 20.916 19.7442 20.0898 19.7442C19.246 19.7442 18.5957 20.4122 18.5957 21.2384C18.5957 22.047 19.246 22.7149 20.1074 22.7149ZM26.9101 22.7149C27.7363 22.7149 28.4218 22.0294 28.4042 21.2208C28.4042 20.4122 27.7539 19.7442 26.8925 19.7442C26.1191 19.7442 25.4335 20.4298 25.4335 21.1856C25.4335 22.0294 26.1015 22.7149 26.9101 22.7149ZM23.5 26.1427C24.3261 26.1427 24.9765 25.4747 24.9765 24.631C24.9765 23.8751 24.3261 23.172 23.5175 23.172C22.6562 23.172 22.0058 23.8399 22.0058 24.6485C22.0058 25.4747 22.6562 26.1427 23.5 26.1427ZM9.84175 34.8966C7.13472 32.2247 7.55659 28.4981 10.3867 25.6681L12.7773 23.2774C13.0234 23.6817 13.3398 24.0685 13.7265 24.4552L20.2832 31.0118C20.6699 31.3985 21.0566 31.7149 21.4433 31.961L19.0703 34.3517C16.2402 37.1642 12.5312 37.5685 9.84175 34.8966Z" fill="#FF0057"/>
</svg>
