<svg width="47" height="43" viewBox="0 0 47 43" fill="none" xmlns="http://www.w3.org/2000/svg">
<path d="M35.7696 21.7305L38.5821 18.6543C42.5899 14.6465 42.5196 9.5664 38.8985 5.91015C35.2774 2.23632 30.1446 2.21874 26.1367 6.20898L23.0782 9.03905C24.5899 8.5996 26.2246 8.95116 27.9473 10.6738L34.3457 17.0723C36.0684 18.7773 36.1914 20.2012 35.7696 21.7305ZM20.7403 30.2031C22.4981 31.9609 24.1856 32.0137 25.9785 30.2031L32.3946 23.7871C34.2051 21.9766 34.17 20.3066 32.4121 18.5488L26.2422 12.3789C24.4844 10.6211 22.8321 10.5859 21.0039 12.4141L14.5879 18.8125C12.795 20.623 12.8301 22.3105 14.5879 24.0683L20.7403 30.2031ZM22.3399 18.7773C21.6719 18.1094 21.6719 17.0723 22.3223 16.4219C22.9903 15.7539 24.0098 15.7539 24.6602 16.4219C25.3106 17.0723 25.3282 18.0918 24.6426 18.7773C24.0274 19.3926 22.9551 19.3926 22.3399 18.7773ZM18.6133 22.4863C17.9453 21.8183 17.9453 20.7988 18.6133 20.1308C19.2813 19.4629 20.3008 19.4805 20.9688 20.1484C21.584 20.7812 21.6016 21.8183 20.9688 22.4512C20.2832 23.1543 19.2637 23.1191 18.6133 22.4863ZM28.3692 22.4863C27.7188 23.1191 26.6817 23.1191 26.0137 22.4512C25.3985 21.8359 25.3985 20.7812 26.0137 20.1484C26.6992 19.4629 27.7188 19.4805 28.3692 20.1308C29.0371 20.7988 29.0371 21.8183 28.3692 22.4863ZM8.08401 36.707C11.7051 40.3809 16.8379 40.416 20.8457 36.4082L23.8692 33.5605C22.3399 34 20.793 33.7012 19.0879 31.9961L12.6719 25.5801C10.9492 23.875 10.8086 22.4512 11.2305 20.9219L8.40042 23.9629C4.37503 27.9531 4.46292 33.0508 8.08401 36.707ZM22.3223 26.1777C21.6719 25.5449 21.6543 24.5254 22.3399 23.8398C22.9903 23.1894 24.0274 23.207 24.6426 23.8398C25.3106 24.4902 25.3282 25.5449 24.6602 26.1777C23.9746 26.8457 22.9903 26.8457 22.3223 26.1777Z" fill="white"/>
</svg>
