<svg width="37" height="38" viewBox="0 0 37 38" fill="none" xmlns="http://www.w3.org/2000/svg">
<path d="M2.97852 34.7598C6.70508 38.4688 11.9785 38.4336 16.0566 34.373L21.418 28.9766L28.2559 22.1562L33.6348 16.7773C37.7129 12.7168 37.7305 7.44336 34.0215 3.7168C30.2949 0.0078125 25.0215 0.0253906 20.9609 4.08594L15.582 9.48242L8.76172 16.3203L3.36523 21.6816C-0.695312 25.7598 -0.730469 31.0332 2.97852 34.7598ZM28.2734 16.0039L21.7168 9.46484C21.3301 9.07812 20.9434 8.76172 20.5566 8.51562L22.9473 6.125C25.7598 3.29492 29.4688 2.9082 32.1582 5.5625C34.8652 8.23438 34.4434 11.9785 31.6133 14.791L29.2227 17.1816C28.9766 16.7949 28.6602 16.4082 28.2734 16.0039ZM20.0996 11.5918L26.1465 17.6387C27.1484 18.6406 27.043 19.3789 25.9883 20.416L19.6777 26.7266C18.6406 27.7812 17.9023 27.8867 16.9004 26.8848L10.8535 20.8379C9.85156 19.8359 9.95703 19.0801 11.0117 18.043L17.3223 11.75C18.3594 10.6953 19.0977 10.5898 20.0996 11.5918ZM18.4824 17.2695C19.3438 17.2695 19.9766 16.6016 19.9766 15.793C20.0117 14.9844 19.3262 14.2988 18.5 14.2988C17.6738 14.2988 17.0234 14.9844 17.0234 15.8281C17.0234 16.584 17.709 17.2695 18.4824 17.2695ZM15.1074 20.7148C15.916 20.7148 16.5664 20.0117 16.5664 19.2559C16.5664 18.4121 15.916 17.7441 15.0898 17.7441C14.2461 17.7441 13.5957 18.4121 13.5957 19.2383C13.5957 20.0469 14.2461 20.7148 15.1074 20.7148ZM21.9102 20.7148C22.7363 20.7148 23.4219 20.0293 23.4043 19.2207C23.4043 18.4121 22.7539 17.7441 21.8926 17.7441C21.1191 17.7441 20.4336 18.4297 20.4336 19.1855C20.4336 20.0293 21.1016 20.7148 21.9102 20.7148ZM18.5 24.1426C19.3262 24.1426 19.9766 23.4746 19.9766 22.6309C19.9766 21.875 19.3262 21.1719 18.5176 21.1719C17.6562 21.1719 17.0059 21.8398 17.0059 22.6484C17.0059 23.4746 17.6562 24.1426 18.5 24.1426ZM4.8418 32.8965C2.13477 30.2246 2.55664 26.498 5.38672 23.668L7.77734 21.2773C8.02344 21.6816 8.33984 22.0684 8.72656 22.4551L15.2832 29.0117C15.6699 29.3984 16.0566 29.7148 16.4434 29.9609L14.0703 32.3516C11.2402 35.1641 7.53125 35.5684 4.8418 32.8965Z" fill="#FF0057"/>
</svg>
