<svg width="37" height="37" viewBox="0 0 37 37" fill="none" xmlns="http://www.w3.org/2000/svg">
<path d="M27.7109 18.9414L28.2031 18.3965C29.0645 17.5 29.1172 16.4453 28.1855 15.5312L27.6582 15.0215C30.3477 12.6133 33.3359 12.2793 35.1816 10.3984C37.8008 7.76172 36.957 4.07031 35.1113 2.22461C33.2832 0.361328 29.627 -0.429688 26.9375 2.1543C25.0391 3.98242 24.7227 6.98828 22.3145 9.67773L21.8047 9.15039C20.9082 8.23633 19.8359 8.27148 18.9395 9.13281L18.4121 9.625C17.3223 10.6621 17.5332 11.5762 18.4473 12.5078L19.2031 13.2461L5.91406 26.5352C0.482422 31.9668 3.10156 31.123 0.148438 35.2891L1.73047 36.959C5.75586 34.0234 5.21094 36.9062 10.7305 31.4043L24.0723 18.1328L24.8281 18.8887C25.7598 19.8203 26.6914 20.0137 27.7109 18.9414ZM13.8066 23.5996C13.1738 22.8965 13.3145 22.2461 14 21.543L20.7148 14.7578L22.6133 16.6738L15.8457 23.4414C15.2305 24.0566 14.4219 24.25 13.8066 23.5996Z" fill="#FF0057"/>
</svg>
