<svg width="47" height="43" viewBox="0 0 47 43" fill="none" xmlns="http://www.w3.org/2000/svg">
<path d="M33.0977 23.6466L33.7305 22.9962C34.873 21.836 34.8906 20.4474 33.6953 19.2345L33.2734 18.8126C36.2793 16.2462 39.3555 16.1759 41.5352 13.961C44.4531 11.0079 44.0137 6.54307 41.4648 3.97666C38.9512 1.39268 34.4512 0.970802 31.4629 3.87119C29.2305 6.05088 29.1777 9.14463 26.6113 12.1505L26.207 11.711C25.0469 10.5333 23.623 10.5509 22.4277 11.6935L21.7773 12.3087C20.4414 13.5919 20.5645 14.8399 21.8301 16.1056L22.4805 16.756L10.334 28.9024C4.25195 35.0021 5.85156 36.1622 3.44336 39.379L5.6582 41.7169C8.80469 39.2735 10.3867 41.0665 16.4336 35.0548L28.668 22.9083L29.3359 23.5938C30.6191 24.8419 31.8145 24.9474 33.0977 23.6466ZM17.3477 28.1993C16.8555 27.6544 16.9434 27.1798 17.5059 26.6173L24.9062 19.1642L26.3125 20.5704L18.8594 28.0235C18.3496 28.5333 17.7695 28.6563 17.3477 28.1993Z" fill="white"/>
</svg>
