<svg width="47" height="43" viewBox="0 0 47 43" fill="none" xmlns="http://www.w3.org/2000/svg">
<path d="M32.7109 21.9414L33.2031 21.3965C34.0645 20.5 34.1172 19.4453 33.1855 18.5313L32.6582 18.0215C35.3477 15.6133 38.3359 15.2793 40.1816 13.3984C42.8008 10.7617 41.957 7.07032 40.1113 5.22462C38.2832 3.36133 34.627 2.57032 31.9375 5.1543C30.0391 6.98243 29.7227 9.98829 27.3145 12.6777L26.8047 12.1504C25.9082 11.2363 24.8359 11.2715 23.9395 12.1328L23.4121 12.625C22.3223 13.6621 22.5332 14.5762 23.4473 15.5078L24.2031 16.2461L10.9141 29.5352C5.48242 34.9668 8.10156 34.1231 5.14844 38.2891L6.73047 39.959C10.7559 37.0234 10.2109 39.9063 15.7305 34.4043L29.0723 21.1328L29.8281 21.8887C30.7598 22.8203 31.6914 23.0137 32.7109 21.9414ZM18.8066 26.5996C18.1738 25.8965 18.3145 25.2461 19 24.543L25.7148 17.7578L27.6133 19.6738L20.8457 26.4414C20.2305 27.0566 19.4219 27.25 18.8066 26.5996Z" fill="#FF0057"/>
</svg>
