<svg width="37" height="37" viewBox="0 0 37 37" fill="none" xmlns="http://www.w3.org/2000/svg">
<path d="M0.376953 16.3086C0.376953 24.377 7.30273 28.9121 15.9512 28.9121C16.6367 28.9121 17.3223 28.877 18.0078 28.8418C18.7109 29.1406 19.5723 29.3164 20.5391 29.3164C23.1934 29.3164 25.8477 28.5781 28.2383 27.3125C28.2734 27.5762 28.291 27.8574 28.291 28.1387C28.291 30.248 27.0957 32.3047 25.1445 33.5527C24.6348 33.9219 24.248 34.291 24.248 34.9238C24.248 35.5742 24.7754 36.1367 25.6191 36.1367C25.9883 36.1367 26.2168 36.0312 26.5684 35.8203C29.2578 34.0625 30.9453 31.127 30.9453 28.0859C30.9453 27.2773 30.8223 26.5215 30.6113 25.8008C34.1445 23.1113 36.6055 19.1562 36.6055 14.8145C36.6055 6.44727 29.1348 0.628906 20.2227 0.628906C10.4668 0.628906 0.376953 7.02734 0.376953 16.3086ZM3.03125 16.3262C3.03125 8.66211 11.8203 3.2832 20.2402 3.2832C27.6055 3.2832 33.9512 7.85352 33.9512 14.7969C33.9512 18.1191 32.0879 21.1953 29.3984 23.3926C27.9219 21.4414 25.5137 20.2109 22.7715 20.2109C18.7285 20.2109 15.7051 22.3203 15.7051 25.4316C15.7051 25.7305 15.7402 26.0117 15.793 26.2754C8.79688 26.1875 3.03125 22.8828 3.03125 16.3262ZM18.377 25.3438C18.377 23.8672 20.416 22.8828 22.9648 22.8828C24.7227 22.8828 26.252 23.6387 27.2012 24.8691C25.1445 26.0117 22.8242 26.6797 20.5391 26.6797C19.291 26.6797 18.377 26.1875 18.377 25.3438Z" fill="#FF0057"/>
</svg>
