<svg width="47" height="43" viewBox="0 0 47 43" fill="none" xmlns="http://www.w3.org/2000/svg">
<path d="M5.37695 21.3086C5.37695 29.377 12.3027 33.9121 20.9512 33.9121C21.6367 33.9121 22.3223 33.877 23.0078 33.8418C23.7109 34.1406 24.5723 34.3164 25.5391 34.3164C28.1934 34.3164 30.8477 33.5781 33.2383 32.3125C33.2734 32.5762 33.291 32.8574 33.291 33.1387C33.291 35.248 32.0957 37.3047 30.1445 38.5527C29.6348 38.9219 29.248 39.291 29.248 39.9238C29.248 40.5742 29.7754 41.1367 30.6191 41.1367C30.9883 41.1367 31.2168 41.0312 31.5684 40.8203C34.2578 39.0625 35.9453 36.127 35.9453 33.0859C35.9453 32.2773 35.8223 31.5215 35.6113 30.8008C39.1445 28.1113 41.6055 24.1562 41.6055 19.8145C41.6055 11.4473 34.1348 5.62891 25.2227 5.62891C15.4668 5.62891 5.37695 12.0273 5.37695 21.3086ZM8.03125 21.3262C8.03125 13.6621 16.8203 8.2832 25.2402 8.2832C32.6055 8.2832 38.9512 12.8535 38.9512 19.7969C38.9512 23.1191 37.0879 26.1953 34.3984 28.3926C32.9219 26.4414 30.5137 25.2109 27.7715 25.2109C23.7285 25.2109 20.7051 27.3203 20.7051 30.4316C20.7051 30.7305 20.7402 31.0117 20.793 31.2754C13.7969 31.1875 8.03125 27.8828 8.03125 21.3262ZM23.377 30.3438C23.377 28.8672 25.416 27.8828 27.9648 27.8828C29.7227 27.8828 31.252 28.6387 32.2012 29.8691C30.1445 31.0117 27.8242 31.6797 25.5391 31.6797C24.291 31.6797 23.377 31.1875 23.377 30.3438Z" fill="#FF0057"/>
</svg>
