<svg width="47" height="43" viewBox="0 0 47 43" fill="none" xmlns="http://www.w3.org/2000/svg">
<path d="M4.11133 21.1504C4.11133 29.6055 11.2832 34.9316 20.9336 34.9316C21.4785 34.9316 22.041 34.9141 22.6035 34.8613C23.4648 35.2129 24.4844 35.4062 25.6094 35.4062C28.1758 35.4062 30.707 34.7734 33.0273 33.666C32.8691 35.3184 31.7617 37.0059 30.0391 38.1484C29.2305 38.7109 28.7559 39.3262 28.7559 40.2051C28.7559 41.3477 29.6699 42.209 30.9355 42.209C31.4629 42.209 31.8848 42.0684 32.3594 41.7344C35.4004 39.748 37.2988 36.4785 37.2988 33.2441C37.2988 32.4707 37.2285 31.75 37.0879 31.0469C40.5508 28.1113 42.8887 23.998 42.8887 19.6035C42.8887 10.3926 35.4004 4.13477 25.1875 4.13477C13.8145 4.13477 4.11133 11.0078 4.11133 21.1504ZM8.38281 21.168C8.38281 13.5918 16.2578 8.40625 25.2051 8.40625C32.8691 8.40625 38.6172 12.8711 38.6172 19.5859C38.6172 22.3281 37.2461 24.9824 35.1543 27.0566C33.4492 25.0703 30.8828 23.8926 27.8594 23.8926C22.9375 23.8926 19.3691 26.4766 19.3691 30.2734C19.3691 30.3965 19.3691 30.502 19.3691 30.625C12.918 30.0977 8.38281 26.7578 8.38281 21.168ZM23.6582 30.2734C23.6582 29.0781 25.5391 28.1641 28.0879 28.1641C29.5469 28.1641 30.7949 28.6914 31.6738 29.5879C29.793 30.5723 27.6836 31.1523 25.6094 31.1523C24.5195 31.1523 23.6582 30.7305 23.6582 30.2734Z" fill="white"/>
</svg>
