<svg width="130" height="130" viewBox="0 0 130 130" fill="none" xmlns="http://www.w3.org/2000/svg">
<g clip-path="url(#clip0)">
<path d="M130 64.9298C130 100.783 100.884 129.86 64.9824 129.86C53.6949 129.86 43.0755 126.98 33.7923 121.923C29.7484 119.711 25.9859 117.077 22.5047 114.128C8.75575 102.188 0 84.5597 0 64.9298C0 56.5721 1.58236 48.5656 4.46578 41.2264C4.74709 40.524 5.0284 39.8217 5.34487 39.1194C7.63051 33.8169 10.6194 28.8655 14.2061 24.4408C19.129 18.2604 25.1772 13.0281 32.0341 8.98974C41.7041 3.2658 52.9564 0 65.0176 0C100.92 0 130 29.0762 130 64.9298Z" fill="#FFEAE5"/>
<path d="M97.8604 20.8594C97.0868 14.7491 91.8826 10.0085 85.5532 10.0085C84.6389 10.0085 83.7598 10.1138 82.9159 10.2894C80.6654 7.09383 76.9732 5.02197 72.7536 5.02197C68.9207 5.02197 65.5099 6.74266 63.2594 9.44661C61.7474 8.81452 60.1298 8.46336 58.3717 8.46336C55.4531 8.46336 52.7806 9.48172 50.6708 11.1322C46.6622 9.41149 42.2315 8.46336 37.5899 8.46336C37.5548 8.46336 37.5548 8.46336 37.5196 8.46336C34.1439 8.46336 30.8385 9.51684 28.0606 11.4131C22.8915 15.0652 18.1796 19.4196 14.2061 24.4061C10.4084 29.1468 7.27887 34.4142 4.92291 40.103C4.78226 40.4542 4.6416 40.8405 4.46578 41.1916C1.58236 48.566 0 56.5374 0 64.9301C0 84.5952 8.75575 102.188 22.5399 114.093C25.9859 117.078 29.7836 119.676 33.8274 121.889C54.8905 118.412 70.9251 100.117 70.9251 78.1338C70.9251 72.6908 69.9405 67.4936 68.1471 62.6827C76.7271 59.5222 82.8456 51.3051 82.8456 41.613C82.8456 39.0144 82.3884 36.486 81.5797 34.1684C82.8456 34.5898 84.1466 34.8356 85.5532 34.8356C87.0652 34.8356 88.5069 34.5547 89.808 34.0981C91.4255 37.1181 94.766 39.0846 98.4934 38.7686C102.854 38.3823 106.37 34.8356 106.651 30.4461C107.003 25.2489 102.959 20.9296 97.8604 20.8594Z" fill="#030083"/>
<path d="M103.276 117.393C96.7 114.022 89.4563 112.442 86.5377 110.616C85.7993 110.159 84.9905 109.211 84.5334 108.474C83.6543 106.964 83.8653 104.189 83.4785 100.116C83.1269 96.3235 86.0806 95.0944 88.3311 94.7081C89.4212 94.5326 90.5816 94.5326 91.6716 94.673C98.634 95.586 106.687 96.8502 106.054 83.5061C105.772 77.747 102.186 84.8405 96.8055 77.2203C102.924 77.0447 108.128 79.6082 105.737 68.2306C123.424 63.5952 102.783 57.169 100.287 41.9988C97.7549 42.2095 92.9375 43.2279 86.9245 47.4418C86.9245 47.4418 86.8542 41.1209 98.8802 38.7681C80.4896 8.32239 64.8418 35.7481 65.8263 60.2241C62.2397 57.5904 59.5672 56.7827 57.5981 56.9934C52.0774 57.5904 51.796 66.1587 51.796 66.1587C52.2532 81.0128 64.244 77.5363 64.244 77.5363C70.2921 103.066 50.3895 113.39 50.3895 113.39C46.0995 118.341 43.6029 122.485 42.548 125.962C47.9984 127.963 59.6024 131.369 74.1953 129.262C88.6124 127.12 98.5989 120.799 103.276 117.393Z" fill="#030083"/>
<path d="M73.3514 129.298C71.8393 126.137 69.6943 122.45 67.0219 119.816C60.9738 113.882 51.4092 111.072 48.2797 108.614C47.6819 108.122 47.0138 107.245 46.7325 106.507C46.0995 105.067 46.5567 102.644 46.5918 98.9923C46.6622 95.586 49.3698 94.7784 51.4092 94.6379C52.3938 94.5677 53.4136 94.673 54.3982 94.9188C60.4815 96.3937 65.8263 99.7297 68.2175 86.3856C69.1317 81.3289 63.3297 87.4742 59.3211 80.2052C64.7714 80.6266 69.413 83.0496 69.413 72.8308C85.518 70.3726 66.7406 64.9296 67.0571 49.0571C64.8066 49.022 60.4111 49.4434 54.6795 52.639C54.6795 52.639 55.2069 47.0204 66.1077 46.0723C52.7103 17.3472 36.2186 40.1727 34.7768 61.9448C31.8583 59.2759 29.5726 58.2927 27.7793 58.2927C22.8212 58.2927 21.7663 65.8778 21.7663 65.8778C20.7466 79.0814 31.7176 77.1501 31.7176 77.1501C34.6362 100.362 16.0346 107.631 16.0346 107.631C19.9026 112.056 27.5331 119.781 39.2075 124.838C54.0817 131.299 67.3735 130.246 73.3514 129.298Z" fill="#FFEAE5"/>
<path d="M64.5605 58.3279C64.3143 56.2209 63.2242 55.2377 61.9232 54.8163L61.677 54.7812C60.7628 54.6758 59.1804 54.8865 57.0354 56.4316C54.7498 58.0821 57.3168 57.5554 59.8134 56.8179C59.5672 57.7309 59.3211 57.8363 59.4266 58.9249C59.6727 61.0319 61.1847 62.6121 62.521 62.4716C63.8923 62.296 64.8066 60.4349 64.5605 58.3279Z" fill="#030083"/>
<path d="M96.291 57.4908C98.1155 57.0227 99.097 54.7095 98.4834 52.324C97.8697 49.9386 95.8933 48.3842 94.0688 48.8522C92.2444 49.3203 91.2629 51.6335 91.8765 54.019C92.4901 56.4044 94.4666 57.9588 96.291 57.4908Z" fill="#FFEAE5"/>
</g>
<defs>
<clipPath id="clip0">
<rect width="130" height="130" fill="white"/>
</clipPath>
</defs>
</svg>
