<svg width="370" height="371" viewBox="0 0 370 371" fill="none" xmlns="http://www.w3.org/2000/svg">
<g clip-path="url(#clip0)">
<path d="M369.7 184.9C369.7 287 286.9 369.8 184.8 369.8C152.7 369.8 122.5 361.6 96.1 347.2C84.6 340.9 73.9 333.4 64 325C24.9 291 0 240.8 0 184.9C0 161.1 4.5 138.3 12.7 117.4C13.5 115.4 14.3 113.4 15.2 111.4C21.7 96.3 30.2 82.2 40.4 69.6C54.4 52 71.6 37.1 91.1 25.6C118.6 9.3 150.6 0 184.9 0C287 0 369.7 82.8 369.7 184.9Z" fill="#FFEAE5"/>
<path d="M278.3 59.1C276.1 41.7 261.3 28.2 243.3 28.2C240.7 28.2 238.2 28.5 235.8 29C229.4 19.9 218.9 14 206.9 14C196 14 186.3 18.9 179.9 26.6C175.6 24.8 171 23.8 166 23.8C157.7 23.8 150.1 26.7 144.1 31.4C132.7 26.5 120.1 23.8 106.9 23.8H106.7C97.2 23.8 87.9 26.7 80 32.1C65 42.4 51.6 54.9 40.2 69.1C29.6 82.7 20.7 97.7 14 113.9C13.6 114.9 13.2 116 12.7 117C4.5 138 0 160.7 0 184.6C0 240.6 24.9 290.7 64.1 324.6C73.9 333.1 84.7 340.5 96.2 346.8C156.1 336.9 201.7 284.8 201.7 222.2C201.7 206.7 198.9 191.9 193.8 178.2C218.2 169.2 235.6 145.8 235.6 118.2C235.6 110.8 234.3 103.6 232 97C235.6 98.2 239.3 98.9 243.3 98.9C247.6 98.9 251.7 98.1 255.4 96.8C260 105.4 269.5 111 280.1 110.1C292.5 109 302.5 98.9 303.3 86.4C304.3 71.6 292.8 59.3 278.3 59.1Z" fill="#030083"/>
<path d="M293.7 334.3C275 324.7 254.4 320.2 246.1 315C244 313.7 241.7 311 240.4 308.9C237.9 304.6 238.5 296.7 237.4 285.1C236.4 274.3 244.8 270.8 251.2 269.7C254.3 269.2 257.6 269.2 260.7 269.6C280.5 272.2 303.4 275.8 301.6 237.8C300.8 221.4 290.6 241.6 275.3 219.9C292.7 219.4 307.5 226.7 300.7 194.3C351 181.1 292.3 162.8 285.2 119.6C278 120.2 264.3 123.1 247.2 135.1C247.2 135.1 247 117.1 281.2 110.4C228.9 23.7 184.4 101.8 187.2 171.5C177 164 169.4 161.7 163.8 162.3C148.1 164 147.3 188.4 147.3 188.4C148.6 230.7 182.7 220.8 182.7 220.8C199.9 293.5 143.3 322.9 143.3 322.9C131.1 337 124 348.8 121 358.7C136.5 364.4 169.5 374.1 211 368.1C252 362 280.4 344 293.7 334.3Z" fill="#030083"/>
<path d="M208.5 368.5C204.2 359.5 198.2 348.7 190.6 341.2C173.4 324.3 146.2 316.3 137.3 309.3C135.6 307.9 133.7 305.4 132.9 303.3C131.1 299.2 132.4 292.3 132.5 281.9C132.7 272.2 140.4 269.9 146.2 269.5C149 269.3 151.9 269.6 154.7 270.3C172 274.5 187.2 284 194 246C196.6 231.6 180.1 249.1 168.7 228.4C184.2 229.6 197.4 236.5 197.4 207.4C243.2 200.4 189.8 184.9 190.7 139.7C184.3 139.6 171.8 140.8 155.5 149.9C155.5 149.9 157 133.9 188 131.2C149.9 49.4 103 114.4 98.9 176.4C90.6 168.8 84.1 166 79 166C64.9 166 61.9 187.6 61.9 187.6C59 225.2 90.2 219.7 90.2 219.7C98.5 285.8 45.6 306.5 45.6 306.5C56.6 319.1 78.3 341.1 111.5 355.5C153.8 373.9 191.6 371.8 208.5 368.5Z" fill="#FFEAE5"/>
<path d="M183.6 166.1C182.9 160.1 179.8 157.3 176.1 156.1L175.4 156C172.8 155.7 168.3 156.3 162.2 160.7C155.7 165.4 163 163.9 170.1 161.8C169.4 164.4 168.7 164.7 169 167.8C169.7 173.8 174 178.3 177.8 177.9C181.7 177.4 184.3 172.1 183.6 166.1Z" fill="#030083"/>
<path d="M274.196 163.646C279.423 162.243 282.187 155.614 280.369 148.84C278.551 142.066 272.839 137.711 267.612 139.114C262.385 140.517 259.621 147.146 261.439 153.92C263.257 160.694 268.968 165.048 274.196 163.646Z" fill="#FFEAE5"/>
</g>
<defs>
<clipPath id="clip0">
<rect width="369.7" height="370.5" fill="white"/>
</clipPath>
</defs>
</svg>
