<svg width="41" height="40" viewBox="0 0 41 40" fill="none" xmlns="http://www.w3.org/2000/svg">
<path d="M7.98438 38.834C9.00391 39.625 10.2871 39.3965 11.6582 38.377L20.4824 31.8906L29.3066 38.377C30.6953 39.3965 31.9609 39.625 32.998 38.834C34.0176 38.0605 34.2285 36.7773 33.6836 35.1953L30.1855 24.8418L39.0977 18.4609C40.4688 17.4766 41.084 16.334 40.6621 15.1035C40.2578 13.8906 39.0977 13.293 37.4102 13.3105L26.5117 13.3984L23.1895 2.97461C22.6621 1.33984 21.7656 0.425781 20.4824 0.425781C19.2168 0.425781 18.3203 1.33984 17.793 2.97461L14.4707 13.3984L3.55469 13.3105C1.86719 13.293 0.724609 13.8906 0.320312 15.0859C-0.119141 16.334 0.496094 17.4766 1.88477 18.4609L10.7793 24.8418L7.29883 35.1953C6.75391 36.7773 6.96484 38.0605 7.98438 38.834Z" fill="#FF0057"/>
</svg>
