<svg width="47" height="44" viewBox="0 0 47 44" fill="none" xmlns="http://www.w3.org/2000/svg">
<path d="M11.459 38.9902C12.1797 39.5527 13.0937 39.3594 14.1836 38.5684L23.4824 31.7305L32.7988 38.5684C33.8887 39.3594 34.7851 39.5527 35.5234 38.9902C36.2441 38.4453 36.4023 37.5488 35.9629 36.2656L32.289 25.332L41.6758 18.582C42.7656 17.8086 43.2051 17 42.9238 16.1211C42.6426 15.2773 41.8164 14.8555 40.4629 14.873L28.9492 14.9434L25.4512 3.95703C25.0293 2.65625 24.3965 2.00586 23.4824 2.00586C22.5859 2.00586 21.9531 2.65625 21.5312 3.95703L18.0332 14.9434L6.51951 14.873C5.166 14.8555 4.33982 15.2773 4.05857 16.1211C3.75975 17 4.21678 17.8086 5.30662 18.582L14.6933 25.332L11.0195 36.2656C10.5801 37.5488 10.7383 38.4453 11.459 38.9902ZM13.9902 35.5098C13.9551 35.4746 13.9726 35.457 13.9902 35.3516L17.4883 25.2969C17.7344 24.6113 17.5937 24.0664 16.9785 23.6445L8.22459 17.5977C8.1367 17.5449 8.11912 17.5098 8.1367 17.457C8.15428 17.4043 8.18943 17.4043 8.2949 17.4043L18.9297 17.5977C19.6504 17.6152 20.1074 17.3164 20.3359 16.5957L23.3945 6.41797C23.4121 6.3125 23.4472 6.27734 23.4824 6.27734C23.5351 6.27734 23.5703 6.3125 23.5879 6.41797L26.6465 16.5957C26.875 17.3164 27.332 17.6152 28.0527 17.5977L38.6875 17.4043C38.7929 17.4043 38.8281 17.4043 38.8457 17.457C38.8633 17.5098 38.8281 17.5449 38.7578 17.5977L30.0039 23.6445C29.3887 24.0664 29.248 24.6113 29.4941 25.2969L32.9922 35.3516C33.0097 35.457 33.0273 35.4746 32.9922 35.5098C32.957 35.5625 32.9043 35.5273 32.834 35.4746L24.3789 29.0234C23.8164 28.584 23.166 28.584 22.6035 29.0234L14.1484 35.4746C14.0781 35.5273 14.0254 35.5625 13.9902 35.5098Z" fill="#FF0057"/>
</svg>
