<svg width="47" height="43" viewBox="0 0 47 43" fill="none" xmlns="http://www.w3.org/2000/svg">
<path d="M10.9845 38.834C12.004 39.625 13.2872 39.3965 14.6583 38.377L23.4825 31.8906L32.3067 38.377C33.6954 39.3965 34.961 39.625 35.9981 38.834C37.0177 38.0605 37.2286 36.7773 36.6837 35.1953L33.1856 24.8418L42.0977 18.4609C43.4688 17.4766 44.0841 16.334 43.6622 15.1035C43.2579 13.8906 42.0977 13.293 40.4102 13.3105L29.5118 13.3984L26.1895 2.97461C25.6622 1.33984 24.7657 0.425781 23.4825 0.425781C22.2169 0.425781 21.3204 1.33984 20.7931 2.97461L17.4708 13.3984L6.55478 13.3105C4.86728 13.293 3.7247 13.8906 3.3204 15.0859C2.88095 16.334 3.49619 17.4766 4.88486 18.4609L13.7794 24.8418L10.2989 35.1953C9.754 36.7773 9.96494 38.0605 10.9845 38.834Z" fill="white"/>
</svg>
