<svg width="47" height="43" viewBox="0 0 47 43" fill="none" xmlns="http://www.w3.org/2000/svg">
<path d="M6.04492 16.334C6.04492 23.8223 12.3203 31.1875 22.2344 37.5156C22.6035 37.7441 23.1309 37.9902 23.5 37.9902C23.8691 37.9902 24.3965 37.7441 24.7832 37.5156C34.6797 31.1875 40.9551 23.8223 40.9551 16.334C40.9551 10.1113 36.6836 5.7168 30.9883 5.7168C27.7363 5.7168 25.0996 7.26367 23.5 9.63672C21.9355 7.28125 19.2637 5.7168 16.0117 5.7168C10.3164 5.7168 6.04492 10.1113 6.04492 16.334ZM8.875 16.334C8.875 11.6582 11.8984 8.54688 15.9766 8.54688C19.2812 8.54688 21.1797 10.6035 22.3047 12.3613C22.7793 13.0645 23.0781 13.2578 23.5 13.2578C23.9219 13.2578 24.1855 13.0469 24.6953 12.3613C25.9082 10.6387 27.7363 8.54688 31.0234 8.54688C35.1016 8.54688 38.125 11.6582 38.125 16.334C38.125 22.873 31.2168 29.9219 23.8691 34.8086C23.6934 34.9316 23.5703 35.0195 23.5 35.0195C23.4297 35.0195 23.3066 34.9316 23.1484 34.8086C15.7832 29.9219 8.875 22.873 8.875 16.334Z" fill="#FF0057"/>
</svg>
