<svg width="35" height="33" viewBox="0 0 35 33" fill="none" xmlns="http://www.w3.org/2000/svg">
<path d="M0.0449219 11.334C0.0449219 18.8223 6.32031 26.1875 16.2344 32.5156C16.6035 32.7441 17.1309 32.9902 17.5 32.9902C17.8691 32.9902 18.3965 32.7441 18.7832 32.5156C28.6797 26.1875 34.9551 18.8223 34.9551 11.334C34.9551 5.11133 30.6836 0.716797 24.9883 0.716797C21.7363 0.716797 19.0996 2.26367 17.5 4.63672C15.9355 2.28125 13.2637 0.716797 10.0117 0.716797C4.31641 0.716797 0.0449219 5.11133 0.0449219 11.334ZM2.875 11.334C2.875 6.6582 5.89844 3.54688 9.97656 3.54688C13.2812 3.54688 15.1797 5.60352 16.3047 7.36133C16.7793 8.06445 17.0781 8.25781 17.5 8.25781C17.9219 8.25781 18.1855 8.04688 18.6953 7.36133C19.9082 5.63867 21.7363 3.54688 25.0234 3.54688C29.1016 3.54688 32.125 6.6582 32.125 11.334C32.125 17.873 25.2168 24.9219 17.8691 29.8086C17.6934 29.9316 17.5703 30.0195 17.5 30.0195C17.4297 30.0195 17.3066 29.9316 17.1484 29.8086C9.7832 24.9219 2.875 17.873 2.875 11.334Z" fill="#FF0057"/>
</svg>
