<svg width="47" height="43" viewBox="0 0 47 43" fill="none" xmlns="http://www.w3.org/2000/svg">
<path d="M23.5 39.9414C33.7129 39.9414 42.1152 31.5391 42.1152 21.3262C42.1152 11.0957 33.7129 2.69336 23.4824 2.69336C13.252 2.69336 4.86719 11.0957 4.86719 21.3262C4.86719 31.5391 13.2695 39.9414 23.5 39.9414ZM23.4824 7.47461C31.1465 7.47461 37.334 13.6445 37.334 21.3262C37.334 24.3848 36.3496 27.2148 34.6797 29.5L15.3086 10.1289C17.5938 8.45898 20.4238 7.47461 23.4824 7.47461ZM23.5 35.1602C15.8184 35.1602 9.66602 28.9902 9.66602 21.3262C9.66602 18.2676 10.6328 15.4551 12.3027 13.1699L31.6562 32.5234C29.3711 34.1758 26.541 35.1602 23.5 35.1602Z" fill="white"/>
</svg>
