<svg width="47" height="43" viewBox="0 0 47 43" fill="none" xmlns="http://www.w3.org/2000/svg">
<path d="M23.5 39.2383C33.3086 39.2383 41.4297 31.0996 41.4297 21.3086C41.4297 11.5 33.291 3.37891 23.4824 3.37891C13.6914 3.37891 5.57031 11.5 5.57031 21.3086C5.57031 31.0996 13.709 39.2383 23.5 39.2383ZM23.4824 6.36719C31.7793 6.36719 38.4238 13.0117 38.4414 21.3086C38.459 24.9824 37.1406 28.3398 34.9609 30.9238L13.8848 9.84766C16.4688 7.66797 19.8086 6.36719 23.4824 6.36719ZM23.5 36.25C15.2031 36.25 8.57617 29.6055 8.57617 21.3086C8.57617 17.6523 9.85938 14.3125 12.0215 11.7109L33.0977 32.7871C30.4961 34.9492 27.1562 36.25 23.5 36.25Z" fill="#FF0057"/>
</svg>
