<svg width="37" height="37" viewBox="0 0 37 37" fill="none" xmlns="http://www.w3.org/2000/svg">
<path d="M18.5 36.2383C28.3086 36.2383 36.4297 28.0996 36.4297 18.3086C36.4297 8.5 28.291 0.378906 18.4824 0.378906C8.69141 0.378906 0.570312 8.5 0.570312 18.3086C0.570312 28.0996 8.70898 36.2383 18.5 36.2383ZM18.4824 3.36719C26.7793 3.36719 33.4238 10.0117 33.4414 18.3086C33.459 21.9824 32.1406 25.3398 29.9609 27.9238L8.88477 6.84766C11.4688 4.66797 14.8086 3.36719 18.4824 3.36719ZM18.5 33.25C10.2031 33.25 3.57617 26.6055 3.57617 18.3086C3.57617 14.6523 4.85938 11.3125 7.02148 8.71094L28.0977 29.7871C25.4961 31.9492 22.1562 33.25 18.5 33.25Z" fill="#FF0057"/>
</svg>
