<svg width="39" height="41" viewBox="0 0 39 41" fill="none" xmlns="http://www.w3.org/2000/svg">
<path d="M19.4824 10.4277C22.2773 10.4277 24.5449 8.16016 24.5449 5.36523C24.5449 2.57031 22.2773 0.302734 19.4824 0.302734C16.6875 0.302734 14.4199 2.57031 14.4199 5.36523C14.4199 8.17773 16.6699 10.4277 19.4824 10.4277ZM19.4824 8.00195C18.0234 8.00195 16.8457 6.82422 16.8457 5.36523C16.8457 3.92383 18.0234 2.72852 19.4824 2.72852C20.9238 2.72852 22.1191 3.92383 22.1191 5.36523C22.1191 6.82422 20.9238 8.00195 19.4824 8.00195ZM34.459 16.5449C35.9355 16.5449 37.1309 15.3496 37.1309 13.873C37.1309 12.3965 35.9355 11.1836 34.459 11.1836C32.9824 11.1836 31.7695 12.3965 31.7695 13.873C31.7695 15.3496 32.9824 16.5449 34.459 16.5449ZM4.52344 16.5449C6 16.5449 7.21289 15.3496 7.21289 13.873C7.21289 12.3965 6 11.1836 4.52344 11.1836C3.04688 11.1836 1.83398 12.3965 1.83398 13.873C1.83398 15.3496 3.04688 16.5449 4.52344 16.5449ZM19.4824 23.9805C20.9766 23.9805 22.1719 22.7852 22.1719 21.3086C22.1719 19.832 20.9766 18.6191 19.4824 18.6191C18.0059 18.6191 16.8105 19.832 16.8105 21.3086C16.8105 22.7852 18.0059 23.9805 19.4824 23.9805ZM5.85938 34.1934C8.6543 34.1934 10.9043 31.9082 10.9043 29.1133C10.9043 26.3184 8.6543 24.0684 5.85938 24.0684C3.06445 24.0684 0.779297 26.3184 0.779297 29.1133C0.779297 31.9258 3.0293 34.1934 5.85938 34.1934ZM33.1406 34.1934C35.9355 34.1934 38.2031 31.9082 38.2031 29.1133C38.2031 26.3184 35.9355 24.0684 33.1406 24.0684C30.3457 24.0684 28.0781 26.3184 28.0781 29.1133C28.0781 31.9258 30.3281 34.1934 33.1406 34.1934ZM5.85938 31.7676C4.40039 31.7676 3.20508 30.5723 3.20508 29.1133C3.20508 27.6719 4.40039 26.4941 5.85938 26.4941C7.30078 26.4941 8.47852 27.6719 8.47852 29.1133C8.47852 30.5723 7.30078 31.7676 5.85938 31.7676ZM33.1406 31.7676C31.6816 31.7676 30.5039 30.5723 30.5039 29.1133C30.5039 27.6719 31.6816 26.4941 33.1406 26.4941C34.582 26.4941 35.7773 27.6719 35.7773 29.1133C35.7773 30.5723 34.582 31.7676 33.1406 31.7676ZM19.4824 40.873C20.9766 40.873 22.1719 39.6602 22.1719 38.1836C22.1719 36.707 20.9766 35.4941 19.4824 35.4941C18.0059 35.4941 16.8105 36.707 16.8105 38.1836C16.8105 39.6602 18.0059 40.873 19.4824 40.873Z" fill="#FF0057"/>
</svg>
