<svg width="47" height="45" viewBox="0 0 47 45" fill="none" xmlns="http://www.w3.org/2000/svg">
<path d="M23.5176 12.375C26.7871 12.375 29.4238 9.70312 29.4238 6.43359C29.4238 3.16406 26.7871 0.527344 23.5176 0.527344C20.248 0.527344 17.5762 3.16406 17.5762 6.43359C17.5762 9.7207 20.2129 12.375 23.5176 12.375ZM23.5176 8.98242C22.1113 8.98242 20.9688 7.83984 20.9688 6.43359C20.9688 5.0625 22.1113 3.91992 23.5176 3.91992C24.8887 3.91992 26.0312 5.0625 26.0312 6.43359C26.0312 7.83984 24.8887 8.98242 23.5176 8.98242ZM39.3906 18.2988C41.0957 18.2988 42.4844 16.9102 42.4844 15.2051C42.4844 13.5176 41.0957 12.1113 39.3906 12.1113C37.7031 12.1113 36.2969 13.5176 36.2969 15.2051C36.2969 16.9102 37.7031 18.2988 39.3906 18.2988ZM7.60938 18.2988C9.29688 18.2988 10.6855 16.9102 10.6855 15.2051C10.6855 13.5176 9.29688 12.1113 7.60938 12.1113C5.92188 12.1113 4.51562 13.5176 4.51562 15.2051C4.51562 16.9102 5.9043 18.2988 7.60938 18.2988ZM23.5 26.4375C25.2051 26.4375 26.5938 25.0312 26.5938 23.3438C26.5938 21.6035 25.2227 20.25 23.5 20.25C21.7949 20.25 20.4062 21.6387 20.4062 23.3438C20.4062 25.0312 21.7949 26.4375 23.5 26.4375ZM8.94531 37.7754C12.2324 37.7754 14.8691 35.1211 14.8691 31.8516C14.8691 28.582 12.2324 25.9453 8.94531 25.9453C5.67578 25.9453 3.02148 28.582 3.02148 31.8516C3.02148 35.1387 5.6582 37.7754 8.94531 37.7754ZM38.0371 37.7754C41.3066 37.7754 43.9609 35.1211 43.9609 31.8516C43.9609 28.582 41.3066 25.9453 38.0371 25.9453C34.7676 25.9453 32.1133 28.582 32.1133 31.8516C32.1133 35.1387 34.75 37.7754 38.0371 37.7754ZM8.94531 34.4004C7.55664 34.4004 6.41406 33.2578 6.41406 31.8516C6.41406 30.4629 7.55664 29.3203 8.94531 29.3203C10.334 29.3203 11.4766 30.4629 11.4766 31.8516C11.4766 33.2578 10.334 34.4004 8.94531 34.4004ZM38.0371 34.4004C36.6309 34.4004 35.4883 33.2578 35.4883 31.8516C35.4883 30.4629 36.6484 29.3203 38.0371 29.3203C39.4258 29.3203 40.5684 30.4629 40.5684 31.8516C40.5684 33.2578 39.4258 34.4004 38.0371 34.4004ZM23.5 44.2969C25.2051 44.2969 26.5938 42.9082 26.5938 41.2031C26.5938 39.498 25.2051 38.1094 23.5 38.1094C21.7949 38.1094 20.4062 39.498 20.4062 41.2031C20.4062 42.9082 21.7949 44.2969 23.5 44.2969Z" fill="white"/>
</svg>
