<svg width="47" height="43" viewBox="0 0 47 43" fill="none" xmlns="http://www.w3.org/2000/svg">
<path d="M23.4824 10.4277C26.2773 10.4277 28.5449 8.16016 28.5449 5.36523C28.5449 2.57031 26.2773 0.302734 23.4824 0.302734C20.6875 0.302734 18.4199 2.57031 18.4199 5.36523C18.4199 8.17773 20.6699 10.4277 23.4824 10.4277ZM23.4824 8.00195C22.0234 8.00195 20.8457 6.82422 20.8457 5.36523C20.8457 3.92383 22.0234 2.72852 23.4824 2.72852C24.9238 2.72852 26.1191 3.92383 26.1191 5.36523C26.1191 6.82422 24.9238 8.00195 23.4824 8.00195ZM38.459 16.5449C39.9355 16.5449 41.1309 15.3496 41.1309 13.873C41.1309 12.3965 39.9355 11.1836 38.459 11.1836C36.9824 11.1836 35.7695 12.3965 35.7695 13.873C35.7695 15.3496 36.9824 16.5449 38.459 16.5449ZM8.52344 16.5449C10 16.5449 11.2129 15.3496 11.2129 13.873C11.2129 12.3965 10 11.1836 8.52344 11.1836C7.04688 11.1836 5.83398 12.3965 5.83398 13.873C5.83398 15.3496 7.04688 16.5449 8.52344 16.5449ZM23.4824 23.9805C24.9766 23.9805 26.1719 22.7852 26.1719 21.3086C26.1719 19.832 24.9766 18.6191 23.4824 18.6191C22.0059 18.6191 20.8105 19.832 20.8105 21.3086C20.8105 22.7852 22.0059 23.9805 23.4824 23.9805ZM9.85938 34.1934C12.6543 34.1934 14.9043 31.9082 14.9043 29.1133C14.9043 26.3184 12.6543 24.0684 9.85938 24.0684C7.06445 24.0684 4.7793 26.3184 4.7793 29.1133C4.7793 31.9258 7.0293 34.1934 9.85938 34.1934ZM37.1406 34.1934C39.9355 34.1934 42.2031 31.9082 42.2031 29.1133C42.2031 26.3184 39.9355 24.0684 37.1406 24.0684C34.3457 24.0684 32.0781 26.3184 32.0781 29.1133C32.0781 31.9258 34.3281 34.1934 37.1406 34.1934ZM9.85938 31.7676C8.40039 31.7676 7.20508 30.5723 7.20508 29.1133C7.20508 27.6719 8.40039 26.4941 9.85938 26.4941C11.3008 26.4941 12.4785 27.6719 12.4785 29.1133C12.4785 30.5723 11.3008 31.7676 9.85938 31.7676ZM37.1406 31.7676C35.6816 31.7676 34.5039 30.5723 34.5039 29.1133C34.5039 27.6719 35.6816 26.4941 37.1406 26.4941C38.582 26.4941 39.7773 27.6719 39.7773 29.1133C39.7773 30.5723 38.582 31.7676 37.1406 31.7676ZM23.4824 40.873C24.9766 40.873 26.1719 39.6602 26.1719 38.1836C26.1719 36.707 24.9766 35.4941 23.4824 35.4941C22.0059 35.4941 20.8105 36.707 20.8105 38.1836C20.8105 39.6602 22.0059 40.873 23.4824 40.873Z" fill="#FF0057"/>
</svg>
