<svg width="39" height="41" viewBox="0 0 39 41" fill="none" xmlns="http://www.w3.org/2000/svg">
<path d="M0.9375 27.7949C0.9375 33.7012 4.76953 38.6406 9.42773 38.6406H15.2461C17.5488 39.8535 20.3613 40.5918 23.5078 40.5918H25.9336C28.1309 40.5918 30.0293 40.4512 31.2773 40.1523C33.7207 39.5547 35.2324 37.8672 35.2324 35.7051C35.2324 35.2656 35.1621 34.8438 35.0215 34.4395C36.2344 33.543 36.9199 32.207 36.9199 30.748C36.9199 30.0273 36.7969 29.3242 36.5156 28.7441C37.3418 27.918 37.8164 26.7051 37.8164 25.4219C37.8164 24.5957 37.6055 23.7168 37.2363 23.084C37.7461 22.3633 38.0449 21.3965 38.0449 20.3242C38.0449 17.7051 35.9883 15.6309 33.3867 15.6309H26.7246C26.3027 15.6309 26.0215 15.4375 26.0215 15.0859C26.0215 13.1699 29.0273 8.72266 29.0273 5.1543C29.0273 2.72852 27.3223 0.970703 24.9844 0.970703C23.2617 0.970703 22.1191 1.86719 20.9766 4.04688C18.832 8.14258 16.2832 11.7988 12.1172 16.8965H8.75977C4.43555 16.8965 0.9375 21.8008 0.9375 27.7949ZM11.1504 27.707C11.1504 23.9102 12.0117 21.4844 14.4023 18.2852C17.0391 14.752 20.6953 10.5156 23.3496 5.25977C24 3.92383 24.457 3.625 25.0898 3.625C25.8457 3.625 26.373 4.16992 26.373 5.1543C26.373 8.00195 23.3672 12.3262 23.3672 15.0859C23.3672 17.0723 25.0195 18.2852 27.1113 18.2852H33.3867C34.5293 18.2852 35.3906 19.1641 35.3906 20.3242C35.3906 21.168 35.127 21.7129 34.4238 22.3809C34.1074 22.6797 34.0723 23.0312 34.3359 23.3652C34.916 24.209 35.1621 24.7363 35.1621 25.4219C35.1621 26.2656 34.7754 26.9688 33.9668 27.584C33.5273 27.9004 33.3516 28.3574 33.6152 28.9023C34.0547 29.7285 34.2656 30.1152 34.2656 30.748C34.2656 31.6973 33.668 32.418 32.4023 33.0684C31.998 33.2969 31.9102 33.6309 32.0684 34.0176C32.5078 35.0898 32.5781 35.2656 32.5781 35.7051C32.5781 36.5664 31.9453 37.252 30.6445 37.5684C29.6074 37.832 27.9551 37.9551 25.9512 37.9375L23.5254 37.9023C16.1602 37.832 11.1504 33.6836 11.1504 27.707ZM3.5918 27.7949C3.5918 23.2598 6.05273 19.5508 8.75977 19.5508H10.3945C9.07617 22.0117 8.49609 24.5781 8.49609 27.6543C8.49609 30.959 9.69141 33.8066 11.8184 35.9863H9.42773C6.31641 35.9863 3.5918 32.2422 3.5918 27.7949Z" fill="#FF0057"/>
</svg>
