<svg width="47" height="43" viewBox="0 0 47 43" fill="none" xmlns="http://www.w3.org/2000/svg">
<path d="M13.4629 28.2871C13.3574 35.7051 19.4043 41.1191 28.4395 41.1895L31.0586 41.207C33.4492 41.2246 35.4004 41.0488 36.5605 40.7676C38.4238 40.3105 39.8477 39.0977 39.8477 37.1992C39.8477 36.5137 39.6895 35.9863 39.4785 35.5645C39.3906 35.3887 39.4258 35.2656 39.5488 35.1953C40.8496 34.5098 41.7109 33.332 41.7109 31.8379C41.7109 31.0117 41.4824 30.2383 41.0957 29.623C40.9727 29.4473 41.0078 29.2891 41.2012 29.166C42.0977 28.5508 42.6777 27.3906 42.6777 26.0898C42.6777 25.123 42.3965 24.1914 41.9219 23.6465C41.7637 23.4707 41.7812 23.3477 41.9746 23.1895C42.5898 22.6094 42.9238 21.625 42.9238 20.5703C42.9238 18.4258 41.2539 16.7383 39.127 16.7383H32.3594C30.8477 16.7383 29.916 16.0176 29.916 14.875C29.916 12.4141 33.168 7.66797 33.168 4.15234C33.168 2.18359 31.8496 0.882812 30.0566 0.882812C28.5977 0.882812 27.7539 1.76172 26.8398 3.51953C23.9922 9.02148 20.2305 13.5391 17.2949 17.4062C14.6758 20.9043 13.5332 23.8398 13.4629 28.2871ZM3.79492 28.4453C3.79492 34.5273 7.52148 39.3789 12.4609 39.3789H15.5195C12.2324 36.6543 10.5273 32.7344 10.6152 28.252C10.668 23.6992 12.0566 20.3066 14.043 17.4766H11.7578C7.22266 17.4766 3.79492 22.2402 3.79492 28.4453Z" fill="#FFFDFE"/>
</svg>
