<svg width="47" height="43" viewBox="0 0 47 43" fill="none" xmlns="http://www.w3.org/2000/svg">
<path d="M4.9375 27.7949C4.9375 33.7012 8.76953 38.6406 13.4277 38.6406H19.2461C21.5488 39.8535 24.3613 40.5918 27.5078 40.5918H29.9336C32.1309 40.5918 34.0293 40.4512 35.2773 40.1523C37.7207 39.5547 39.2324 37.8672 39.2324 35.7051C39.2324 35.2656 39.1621 34.8438 39.0215 34.4395C40.2344 33.543 40.9199 32.207 40.9199 30.748C40.9199 30.0273 40.7969 29.3242 40.5156 28.7441C41.3418 27.918 41.8164 26.7051 41.8164 25.4219C41.8164 24.5957 41.6055 23.7168 41.2363 23.084C41.7461 22.3633 42.0449 21.3965 42.0449 20.3242C42.0449 17.7051 39.9883 15.6309 37.3867 15.6309H30.7246C30.3027 15.6309 30.0215 15.4375 30.0215 15.0859C30.0215 13.1699 33.0273 8.72266 33.0273 5.1543C33.0273 2.72852 31.3223 0.970703 28.9844 0.970703C27.2617 0.970703 26.1191 1.86719 24.9766 4.04688C22.832 8.14258 20.2832 11.7988 16.1172 16.8965H12.7598C8.43555 16.8965 4.9375 21.8008 4.9375 27.7949ZM15.1504 27.707C15.1504 23.9102 16.0117 21.4844 18.4023 18.2852C21.0391 14.752 24.6953 10.5156 27.3496 5.25977C28 3.92383 28.457 3.625 29.0898 3.625C29.8457 3.625 30.373 4.16992 30.373 5.1543C30.373 8.00195 27.3672 12.3262 27.3672 15.0859C27.3672 17.0723 29.0195 18.2852 31.1113 18.2852H37.3867C38.5293 18.2852 39.3906 19.1641 39.3906 20.3242C39.3906 21.168 39.127 21.7129 38.4238 22.3809C38.1074 22.6797 38.0723 23.0312 38.3359 23.3652C38.916 24.209 39.1621 24.7363 39.1621 25.4219C39.1621 26.2656 38.7754 26.9688 37.9668 27.584C37.5273 27.9004 37.3516 28.3574 37.6152 28.9023C38.0547 29.7285 38.2656 30.1152 38.2656 30.748C38.2656 31.6973 37.668 32.418 36.4023 33.0684C35.998 33.2969 35.9102 33.6309 36.0684 34.0176C36.5078 35.0898 36.5781 35.2656 36.5781 35.7051C36.5781 36.5664 35.9453 37.252 34.6445 37.5684C33.6074 37.832 31.9551 37.9551 29.9512 37.9375L27.5254 37.9023C20.1602 37.832 15.1504 33.6836 15.1504 27.707ZM7.5918 27.7949C7.5918 23.2598 10.0527 19.5508 12.7598 19.5508H14.3945C13.0762 22.0117 12.4961 24.5781 12.4961 27.6543C12.4961 30.959 13.6914 33.8066 15.8184 35.9863H13.4277C10.3164 35.9863 7.5918 32.2422 7.5918 27.7949Z" fill="#FF0057"/>
</svg>
