<svg width="47" height="43" viewBox="0 0 47 43" fill="none" xmlns="http://www.w3.org/2000/svg">
<path d="M23.5 39.0977C30.2852 39.0977 35.6816 33.8066 35.6816 27.1973C35.6816 23.5234 33.8535 19.9023 32.2539 16.9141L25.873 4.99609C25.3105 3.99414 24.5195 3.50195 23.5 3.50195C22.4629 3.50195 21.6719 3.99414 21.127 4.97852L14.7461 16.9141C13.1465 19.9023 11.3184 23.5234 11.3184 27.1973C11.3184 33.8066 16.7148 39.0977 23.5 39.0977ZM23.5 36.2148C18.332 36.2148 14.2012 32.2422 14.2012 27.1973C14.2012 24.1562 15.7305 21.2734 17.3301 18.2852L23.3242 7.10547C23.4121 6.89453 23.623 6.91211 23.7109 7.10547L29.6875 18.2852C31.2871 21.2559 32.8164 24.1562 32.8164 27.1973C32.8164 32.2422 28.668 36.2148 23.5 36.2148Z" fill="#FF0057"/>
</svg>
