<svg width="27" height="27" viewBox="0 0 27 27" fill="none" xmlns="http://www.w3.org/2000/svg">
<path d="M0.509766 6.94531L0.527344 24.6289C0.527344 25.6309 1.17773 26.3164 2.23242 26.3164H19.916C20.9004 26.3164 21.5684 25.5781 21.5684 24.7344C21.5684 23.8906 20.8125 23.1699 19.9863 23.1699H13.8691L5.29102 23.4512L8.56055 20.5684L25.9805 3.13086C26.2969 2.81445 26.4727 2.39258 26.4727 2.02344C26.4727 1.17969 25.6992 0.371094 24.8203 0.371094C24.4336 0.371094 24.0469 0.529297 23.7129 0.845703L6.27539 18.3008L3.375 21.5703L3.69141 13.3613V6.875C3.69141 6.03125 2.9707 5.27539 2.10938 5.27539C1.24805 5.27539 0.509766 5.97852 0.509766 6.94531Z" fill="#FF0057"/>
</svg>
