<svg width="47" height="43" viewBox="0 0 47 43" fill="none" xmlns="http://www.w3.org/2000/svg">
<path d="M9.70117 14.7871L9.68359 32.3828C9.68359 34.0176 10.791 35.1426 12.4609 35.1426H30.0566C31.6211 35.1426 32.7637 33.9648 32.7637 32.541C32.7637 31.1523 31.5859 30.0449 30.0742 30.0449H23.4473L18.0156 30.2559L21.0566 27.5488L36.4199 12.168C36.9824 11.5879 37.2988 10.9023 37.2988 10.1992C37.2988 8.82812 36.0332 7.52734 34.6445 7.52734C33.9238 7.52734 33.2559 7.84375 32.6758 8.42383L17.2949 23.7871L14.5703 26.8281L14.7988 21.5898V14.7695C14.7988 13.2578 13.709 12.0625 12.2852 12.0625C10.8613 12.0625 9.70117 13.2754 9.70117 14.7871Z" fill="white"/>
</svg>
