<svg width="47" height="43" viewBox="0 0 47 43" fill="none" xmlns="http://www.w3.org/2000/svg">
<path d="M10.5098 14.9453L10.5273 32.6289C10.5273 33.6309 11.1777 34.3164 12.2324 34.3164H29.916C30.9004 34.3164 31.5684 33.5781 31.5684 32.7344C31.5684 31.8906 30.8125 31.1699 29.9863 31.1699H23.8691L15.291 31.4512L18.5605 28.5684L35.9805 11.1309C36.2969 10.8145 36.4727 10.3926 36.4727 10.0234C36.4727 9.17969 35.6992 8.37109 34.8203 8.37109C34.4336 8.37109 34.0469 8.5293 33.7129 8.8457L16.2754 26.3008L13.375 29.5703L13.6914 21.3613V14.875C13.6914 14.0312 12.9707 13.2754 12.1094 13.2754C11.248 13.2754 10.5098 13.9785 10.5098 14.9453Z" fill="#FF0057"/>
</svg>
