<svg width="37" height="32" viewBox="0 0 37 32" fill="none" xmlns="http://www.w3.org/2000/svg">
<path d="M2.04688 10.7227C4.57812 9.91406 7.19727 9.50977 9.69336 9.50977C12.9277 9.50977 15.3008 10.0195 18.3594 10.0195C21.5234 10.0195 23.4922 7.875 23.4922 5.08008C23.4922 2.21484 21.3125 0.175781 18.5879 0.175781C16.584 0.175781 14.8262 1.42383 14.0879 3.09375C13.8066 3.67383 13.9121 4.35938 14.5449 4.67578C15.0898 4.95703 15.7754 4.78125 16.1445 4.06055C16.5312 3.16406 17.4805 2.46094 18.5879 2.46094C20.0469 2.46094 21.207 3.48047 21.207 5.08008C21.207 6.67969 20.082 7.73438 18.3594 7.73438C15.4414 7.73438 13.0332 7.20703 9.69336 7.20703C6.82812 7.20703 3.94531 7.7168 1.34375 8.54297C0.605469 8.75391 0.324219 9.38672 0.5 10.002C0.675781 10.5996 1.25586 10.9512 2.04688 10.7227ZM29.5391 18.9492C33.6523 18.9492 36.5352 16.3477 36.5352 12.709C36.5352 9.12305 33.7754 6.52148 30.3477 6.52148C27.166 6.52148 24.8105 8.73633 24.3887 11.6543C24.2832 12.375 24.6875 12.9551 25.3203 13.043C25.9707 13.1309 26.5332 12.7266 26.6914 11.9004C26.9727 10.0723 28.502 8.80664 30.3477 8.80664C32.5098 8.80664 34.2324 10.4062 34.2324 12.709C34.2324 15.0469 32.3867 16.6641 29.5391 16.6641C24.1777 16.6641 18.3945 13.6055 11.3633 13.6055C7.74219 13.6055 4.45508 14.1855 1.34375 15.293C0.623047 15.5391 0.324219 16.1543 0.5 16.7695C0.675781 17.3672 1.27344 17.7363 2.04688 17.4727C4.91211 16.3828 7.90039 15.9082 11.3633 15.9082C18.377 15.9082 23.6152 18.9492 29.5391 18.9492ZM18.377 31.3418C21.084 31.3418 23.1758 29.3379 23.1758 26.4727C23.1758 22.3242 18.9395 20.0039 11.1348 20.0039C7.88281 20.0039 4.33203 20.6367 1.34375 21.6738C0.623047 21.9199 0.324219 22.5352 0.5 23.1504C0.675781 23.748 1.27344 24.1172 2.04688 23.8535C4.8418 22.8516 7.9707 22.3066 11.1348 22.3066C17.5156 22.3066 20.8906 23.9062 20.8906 26.4727C20.8906 28.0898 19.7656 29.0566 18.377 29.0566C16.9883 29.0566 16.1445 28.125 15.8984 26.6484C15.793 25.998 15.3359 25.4707 14.5801 25.5234C13.7715 25.5762 13.4551 26.2441 13.5605 26.9473C13.877 29.3906 15.6875 31.3418 18.377 31.3418Z" fill="#FF0057"/>
</svg>
