<svg width="47" height="43" viewBox="0 0 47 43" fill="none" xmlns="http://www.w3.org/2000/svg">
<path d="M7.04692 17.7227C9.57817 16.9141 12.1973 16.5098 14.6934 16.5098C17.9278 16.5098 20.3008 17.0195 23.3594 17.0195C26.5235 17.0195 28.4922 14.875 28.4922 12.0801C28.4922 9.21484 26.3125 7.17578 23.5879 7.17578C21.584 7.17578 19.8262 8.42383 19.0879 10.0938C18.8067 10.6738 18.9122 11.3594 19.545 11.6758C20.0899 11.957 20.7754 11.7812 21.1446 11.0605C21.5313 10.1641 22.4805 9.46094 23.5879 9.46094C25.0469 9.46094 26.2071 10.4805 26.2071 12.0801C26.2071 13.6797 25.0821 14.7344 23.3594 14.7344C20.4415 14.7344 18.0332 14.207 14.6934 14.207C11.8282 14.207 8.94536 14.7168 6.3438 15.543C5.60552 15.7539 5.32427 16.3867 5.50005 17.002C5.67583 17.5996 6.25591 17.9512 7.04692 17.7227ZM34.5391 25.9492C38.6524 25.9492 41.5352 23.3477 41.5352 19.709C41.5352 16.123 38.7754 13.5215 35.3477 13.5215C32.1661 13.5215 29.8106 15.7363 29.3887 18.6543C29.2833 19.375 29.6875 19.9551 30.3204 20.043C30.9708 20.1309 31.5333 19.7266 31.6915 18.9004C31.9727 17.0723 33.502 15.8066 35.3477 15.8066C37.5098 15.8066 39.2325 17.4062 39.2325 19.709C39.2325 22.0469 37.3868 23.6641 34.5391 23.6641C29.1778 23.6641 23.3946 20.6055 16.3633 20.6055C12.7422 20.6055 9.45512 21.1855 6.3438 22.293C5.62309 22.5391 5.32427 23.1543 5.50005 23.7695C5.67583 24.3672 6.27348 24.7363 7.04692 24.4727C9.91216 23.3828 12.9004 22.9082 16.3633 22.9082C23.377 22.9082 28.6153 25.9492 34.5391 25.9492ZM23.377 38.3418C26.084 38.3418 28.1758 36.3379 28.1758 33.4727C28.1758 29.3242 23.9395 27.0039 16.1348 27.0039C12.8829 27.0039 9.33208 27.6367 6.3438 28.6738C5.62309 28.9199 5.32427 29.5352 5.50005 30.1504C5.67583 30.748 6.27348 31.1172 7.04692 30.8535C9.84184 29.8516 12.9707 29.3066 16.1348 29.3066C22.5157 29.3066 25.8907 30.9062 25.8907 33.4727C25.8907 35.0898 24.7657 36.0566 23.377 36.0566C21.9883 36.0566 21.1446 35.125 20.8985 33.6484C20.793 32.998 20.336 32.4707 19.5801 32.5234C18.7715 32.5762 18.4551 33.2441 18.5606 33.9473C18.877 36.3906 20.6875 38.3418 23.377 38.3418Z" fill="#FF0057"/>
</svg>
