<svg width="47" height="43" viewBox="0 0 47 43" fill="none" xmlns="http://www.w3.org/2000/svg">
<path d="M7.0117 17.7578C9.54295 17.002 12.1797 16.6152 14.6758 16.6152C17.8574 16.6152 20.248 17.1074 23.3066 17.1074C26.6113 17.1074 28.8965 14.8047 28.8965 11.7285C28.8965 8.63477 26.541 6.36719 23.5351 6.36719C21.4785 6.36719 19.5625 7.61523 18.7012 9.39062C18.2793 10.1992 18.4726 11.1133 19.2461 11.5527C20.0371 12.0273 21.0215 11.7461 21.5312 10.8145C21.8652 10.0938 22.6738 9.54883 23.5351 9.54883C24.7832 9.54883 25.7148 10.3926 25.7148 11.7285C25.7148 13.0645 24.7832 13.9258 23.3066 13.9258C20.4765 13.9258 17.998 13.4336 14.6758 13.4336C11.8281 13.4336 8.87498 13.9082 6.08006 14.7168C5.11326 14.9805 4.65623 15.8594 4.90232 16.7207C5.14842 17.5996 5.99217 18.0566 7.0117 17.7578ZM34.75 26.582C39.0566 26.582 42.1504 23.7695 42.1504 19.9023C42.1504 16.0879 39.25 13.2578 35.5234 13.2578C32.5 13.2578 29.9687 15.2617 29.2304 18.0391C28.9492 18.9531 29.3535 19.832 30.1797 20.0957C31.0586 20.377 31.9551 19.9199 32.289 18.9004C32.6582 17.4414 34.0117 16.4395 35.5234 16.4395C37.4746 16.4395 38.9687 17.8633 38.9687 19.9023C38.9687 21.9766 37.3164 23.4004 34.75 23.4004C29.4238 23.4004 23.4824 20.3418 16.416 20.3418C12.7422 20.3418 9.33201 20.9219 6.06248 22.0117C5.11326 22.3281 4.65623 23.1543 4.90232 24.0156C5.166 24.9121 6.0449 25.3867 7.02928 25.0352C9.99998 23.9805 13.0058 23.5234 16.416 23.5234C23.3066 23.5234 28.6504 26.582 34.75 26.582ZM23.3242 39.4844C26.2949 39.4844 28.5801 37.252 28.5801 34.1758C28.5801 29.7285 24.0449 27.2676 15.9414 27.2676C12.707 27.2676 9.13865 27.8828 6.06248 28.9023C5.11326 29.2188 4.65623 30.0625 4.90232 30.9062C5.166 31.8027 6.0449 32.2773 7.02928 31.9258C9.80662 30.959 12.8476 30.4492 15.9414 30.4492C21.9707 30.4492 25.3984 31.9082 25.3984 34.1758C25.3984 35.4941 24.5195 36.3027 23.3242 36.3027C22.2871 36.3027 21.5664 35.6348 21.25 34.4922C20.9336 33.6484 20.1074 33.1738 19.2109 33.4551C18.2969 33.7363 17.9453 34.6855 18.2793 35.6172C18.9472 37.8496 20.8633 39.4844 23.3242 39.4844Z" fill="#FFFDFE"/>
</svg>
