<svg width="47" height="43" viewBox="0 0 47 43" fill="none" xmlns="http://www.w3.org/2000/svg">
<path d="M9.64845 31.2403C8.66408 32.2422 8.61134 34.0879 9.68361 35.1426C10.7559 36.2149 12.584 36.1797 13.586 35.1778L23.5 25.2637L33.3965 35.1602C34.4336 36.2149 36.2266 36.1973 37.2813 35.1251C38.3535 34.0704 38.3535 32.2774 37.3164 31.2403L27.4199 21.3438L37.3164 11.4297C38.3535 10.3926 38.3535 8.59966 37.2813 7.54498C36.2266 6.47271 34.4336 6.47271 33.3965 7.50982L23.5 17.4063L13.586 7.49224C12.584 6.50787 10.7383 6.45513 9.68361 7.5274C8.62892 8.59966 8.66408 10.4278 9.64845 11.4297L19.5625 21.3438L9.64845 31.2403Z" fill="white"/>
</svg>
