<svg width="47" height="43" viewBox="0 0 47 43" fill="none" xmlns="http://www.w3.org/2000/svg">
<path d="M10.0176 32.5938C9.41995 33.1914 9.40237 34.211 10.0176 34.8086C10.6328 35.4063 11.6524 35.4063 12.25 34.8086L23.5 23.5586L34.75 34.8086C35.3477 35.4063 36.3848 35.4239 36.9824 34.8086C37.5801 34.1934 37.5801 33.1914 36.9824 32.5938L25.7324 21.3262L36.9824 10.0762C37.5801 9.47854 37.5977 8.45901 36.9824 7.86135C36.3672 7.24612 35.3477 7.24612 34.75 7.86135L23.5 19.1114L12.25 7.86135C11.6524 7.24612 10.6153 7.22854 10.0176 7.86135C9.41995 8.47659 9.41995 9.47854 10.0176 10.0762L21.2676 21.3262L10.0176 32.5938Z" fill="#FF0057"/>
</svg>
