<svg width="29" height="29" viewBox="0 0 29 29" fill="none" xmlns="http://www.w3.org/2000/svg">
<path d="M1.01758 25.5938C0.419922 26.1914 0.402344 27.2109 1.01758 27.8086C1.63281 28.4062 2.65234 28.4062 3.25 27.8086L14.5 16.5586L25.75 27.8086C26.3477 28.4062 27.3848 28.4238 27.9824 27.8086C28.5801 27.1934 28.5801 26.1914 27.9824 25.5938L16.7324 14.3262L27.9824 3.07617C28.5801 2.47852 28.5977 1.45898 27.9824 0.861328C27.3672 0.246094 26.3477 0.246094 25.75 0.861328L14.5 12.1113L3.25 0.861328C2.65234 0.246094 1.61523 0.228516 1.01758 0.861328C0.419922 1.47656 0.419922 2.47852 1.01758 3.07617L12.2676 14.3262L1.01758 25.5938Z" fill="#FF0057"/>
</svg>
