<svg width="47" height="43" viewBox="0 0 47 43" fill="none" xmlns="http://www.w3.org/2000/svg">
<path d="M4.69141 35.248C7.96095 39.6601 14.8164 40.8554 19.0703 37.6913C21.4609 35.9159 22.6211 33.4726 22.3574 30.9941C24.0449 30.6952 25.5391 29.7636 27.1738 28.1112C32.8164 22.4862 41.4297 9.88273 42.1856 8.82804C44.4004 5.75187 40.6035 1.99015 37.5098 4.15226C36.4727 4.89054 23.8516 13.4862 18.2266 19.164C16.5918 20.8163 15.6426 22.3105 15.3262 23.998C14.0606 23.9452 12.7774 24.3495 11.6348 25.2109C8.89259 27.2675 9.85938 30.2206 8.33009 31.3632C6.99415 32.3652 5.7461 31.8027 4.77931 32.5409C4.07618 33.1034 3.84766 34.123 4.69141 35.248ZM38.8633 6.64836C39.4609 6.2089 40.1289 6.84172 39.6719 7.49211C39.2676 8.08976 32.2539 18.3202 26.8574 24.3319C26.0488 22.1874 24.1504 20.2714 22.0234 19.4628C28.0879 14.0839 38.1777 7.14054 38.8633 6.64836ZM20.793 27.2148C19.9844 26.1249 19.0527 25.2987 18.0684 24.7714C18.209 23.664 18.8242 22.5741 20.0195 21.3612C22.1113 21.6073 24.7129 24.2089 24.9766 26.3183C23.6582 27.5839 22.6211 28.1288 21.4785 28.2694C21.2852 27.9179 21.0566 27.5663 20.793 27.2148ZM8.27735 34.9667C8.04884 34.7206 8.06641 34.4745 8.22462 34.3163C8.47071 34.0878 9.45509 34.0175 10.2109 33.2616C11.916 31.5741 11.3359 29.0956 13.3047 27.5663C14.9395 26.2655 17.207 26.7402 18.7363 28.7089C20.459 30.9413 19.8613 33.6659 17.4883 35.4941C14.834 37.5859 10.7383 37.5683 8.27735 34.9667Z" fill="#FF0057"/>
</svg>
