<svg width="47" height="43" viewBox="0 0 47 43" fill="none" xmlns="http://www.w3.org/2000/svg">
<path d="M37.6152 4.46868C36.7187 5.11907 26.9453 11.8163 20.9512 17.1074C24.9238 18.3554 28.0351 21.4492 29.3008 25.4745C34.6269 19.4804 41.3066 9.72454 41.957 8.81048C44.0312 5.91009 40.4101 2.39446 37.6152 4.46868ZM21.039 25.3691C22.3223 26.6523 23.289 28.3574 23.5176 29.746C24.9414 29.5175 26.084 28.8495 27.2793 27.6542C27.4726 27.4784 27.6484 27.2851 27.8242 27.0742C27.0508 22.8378 23.5176 19.3574 19.3515 18.5839C19.1406 18.7597 18.9473 18.9531 18.7539 19.1464C17.5586 20.3417 16.9082 21.5195 16.6797 22.9081C18.0508 23.1367 19.7734 24.0859 21.039 25.3691ZM4.79686 34.9316C7.73241 39.1503 14.2187 40.5917 18.3672 37.7089C21.9531 35.2128 22.7441 31.3456 20.3711 27.9706C18.2441 24.912 14.3945 24.0507 11.8633 25.8613C8.9453 27.9355 10.123 30.7831 8.33006 32.0488C6.83592 33.121 5.79881 32.4531 4.93749 33.0331C4.37499 33.3847 4.16405 34.0527 4.79686 34.9316Z" fill="white"/>
</svg>
