<svg width="39" height="37" viewBox="0 0 39 37" fill="none" xmlns="http://www.w3.org/2000/svg">
<path d="M0.691406 32.248C3.96094 36.6602 10.8164 37.8555 15.0703 34.6914C17.4609 32.916 18.6211 30.4727 18.3574 27.9941C20.0449 27.6953 21.5391 26.7637 23.1738 25.1113C28.8164 19.4863 37.4297 6.88281 38.1855 5.82812C40.4004 2.75195 36.6035 -1.00977 33.5098 1.15234C32.4727 1.89062 19.8516 10.4863 14.2266 16.1641C12.5918 17.8164 11.6426 19.3105 11.3262 20.998C10.0605 20.9453 8.77734 21.3496 7.63477 22.2109C4.89258 24.2676 5.85938 27.2207 4.33008 28.3633C2.99414 29.3652 1.74609 28.8027 0.779297 29.541C0.0761719 30.1035 -0.152344 31.123 0.691406 32.248ZM34.8633 3.64844C35.4609 3.20898 36.1289 3.8418 35.6719 4.49219C35.2676 5.08984 28.2539 15.3203 22.8574 21.332C22.0488 19.1875 20.1504 17.2715 18.0234 16.4629C24.0879 11.084 34.1777 4.14062 34.8633 3.64844ZM16.793 24.2148C15.9844 23.125 15.0527 22.2988 14.0684 21.7715C14.209 20.6641 14.8242 19.5742 16.0195 18.3613C18.1113 18.6074 20.7129 21.209 20.9766 23.3184C19.6582 24.584 18.6211 25.1289 17.4785 25.2695C17.2852 24.918 17.0566 24.5664 16.793 24.2148ZM4.27734 31.9668C4.04883 31.7207 4.06641 31.4746 4.22461 31.3164C4.4707 31.0879 5.45508 31.0176 6.21094 30.2617C7.91602 28.5742 7.33594 26.0957 9.30469 24.5664C10.9395 23.2656 13.207 23.7402 14.7363 25.709C16.459 27.9414 15.8613 30.666 13.4883 32.4941C10.834 34.5859 6.73828 34.5684 4.27734 31.9668Z" fill="#FF0057"/>
</svg>
