<svg width="41" height="35" viewBox="0 0 41 35" fill="none" xmlns="http://www.w3.org/2000/svg">
<path d="M1.2168 2.26172C0.830078 4.07227 0.671875 6.49805 0.671875 8.15039C0.671875 21.791 8.86328 30.7734 21.3613 30.7734C27.3379 30.7734 30.9062 28.2246 32.8398 26.1855C34.2109 28.2422 34.9316 30.334 35.8105 33.1641C36.1094 34.0957 36.7949 34.5352 37.6035 34.5352C39.1152 34.5352 40.3281 33.2344 40.3281 31.4941C40.3281 28.9629 36.6191 24.5508 34.7207 22.7754C26.6348 15.252 14.4355 19.8926 11.5879 11.9473C11.3945 11.4551 11.9043 11.1562 12.2734 11.543C18.4258 18.2227 26.7578 12.7559 34.2637 19.6113C35.125 20.3672 36.1797 20.0332 36.3379 19.1191C36.4258 18.6094 36.4785 17.8184 36.4785 16.957C36.4785 8.27344 30.5371 3.54492 21.4141 3.54492C18.4785 3.54492 15.0332 4.31836 12.4141 4.31836C9.63672 4.31836 6.54297 4.14258 3.97656 1.48828C2.97461 0.46875 1.56836 0.785156 1.2168 2.26172Z" fill="white"/>
</svg>
