<svg width="47" height="43" viewBox="0 0 47 43" fill="none" xmlns="http://www.w3.org/2000/svg">
<path d="M4.86719 12.5722C4.86719 25.6855 12.7246 34.2987 24.8184 34.2987C29.4766 34.2987 33.3965 32.6288 35.9629 29.8339C37.0176 31.8554 37.4922 34.1933 38.3184 36.8476C38.582 37.6913 39.1621 37.9902 39.7773 37.9902C41.0781 37.9902 42.1152 36.7773 42.1152 35.3183C42.1152 33.1034 39.7949 29.3944 37.9844 26.828C38.793 25.1405 39.2324 23.2245 39.2324 21.1503C39.2324 13.7499 33.2031 8.40617 24.8887 8.40617C22.0234 8.40617 19.123 9.21476 15.9062 9.21476C13.1992 9.21476 10.8613 8.38859 8.92773 6.19132C7.9082 4.99601 5.88672 4.89054 5.39453 6.91203C4.97266 8.6171 4.86719 11.623 4.86719 12.5722ZM15.1504 16.6679C16.2578 20.0956 19.5801 21.4667 23.7285 22.4862C29.3535 23.8222 32.0957 24.9296 34.3984 27.5839C32.3418 30.1152 28.9668 31.6444 24.8184 31.6444C14.2188 31.6444 7.52148 24.2265 7.52148 12.5722C7.52148 11.412 7.53906 10.1112 7.69727 9.16203C7.73242 8.93351 7.85547 8.91593 8.01367 9.05656C9.98242 10.8495 13.0762 11.8691 15.9062 11.8691C17.8047 11.8691 19.5273 11.623 21.0742 11.412C22.4805 11.2187 23.7109 11.0605 24.8887 11.0605C31.7441 11.0605 36.5781 15.2616 36.5781 21.1503C36.5781 22.3808 36.3848 23.5234 36.0332 24.578C33.5723 22.3984 29.8984 21.0448 24.625 20.1835C21.2852 19.621 18.332 18.7421 16.3105 16.1054C15.748 15.3495 14.8867 15.8769 15.1504 16.6679Z" fill="#FF0057"/>
</svg>
