<svg width="47" height="43" viewBox="0 0 47 43" fill="none" xmlns="http://www.w3.org/2000/svg">
<path d="M4.2168 6.26167C3.83008 8.07222 3.67188 10.498 3.67188 12.1503C3.67188 25.791 11.8633 34.7734 24.3613 34.7734C30.3379 34.7734 33.9062 32.2246 35.8398 30.1855C37.2109 32.2421 37.9316 34.3339 38.8105 37.164C39.1094 38.0957 39.7949 38.5351 40.6035 38.5351C42.1152 38.5351 43.3281 37.2343 43.3281 35.4941C43.3281 32.9628 39.6191 28.5507 37.7207 26.7753C29.6348 19.2519 17.4355 23.8925 14.5879 15.9472C14.3945 15.455 14.9043 15.1562 15.2734 15.5429C21.4258 22.2226 29.7578 16.7558 37.2637 23.6113C38.125 24.3671 39.1797 24.0332 39.3379 23.1191C39.4258 22.6093 39.4785 21.8183 39.4785 20.957C39.4785 12.2734 33.5371 7.54487 24.4141 7.54487C21.4785 7.54487 18.0332 8.31831 15.4141 8.31831C12.6367 8.31831 9.54297 8.14253 6.97656 5.48823C5.97461 4.4687 4.56836 4.78511 4.2168 6.26167Z" fill="white"/>
</svg>
