<svg width="47" height="43" viewBox="0 0 47 43" fill="none" xmlns="http://www.w3.org/2000/svg">
<path d="M23.2188 17.5997C33.9941 17.5997 40.1816 14.8751 40.1816 11.1661C40.1816 7.75592 35.2598 5.66412 28.2285 5.66412C22.9551 5.66412 18.8418 6.68365 15.7305 8.16022C14.8867 8.56451 14.6934 9.39069 15.0098 9.98834C15.3438 10.6563 16.2227 10.8321 16.9258 10.5508C19.7383 9.35553 23.2891 8.21295 28.0703 8.21295C33.9941 8.21295 37.4219 9.6192 37.4219 11.1485C37.4219 12.9415 32.0781 14.963 23.0957 14.963C14.2715 14.963 9.56055 13.2227 9.56055 9.90045C9.56055 7.96686 11.3535 5.89264 16.4512 4.25787C17.3125 3.97662 17.6816 3.29108 17.4355 2.57037C17.1895 1.84967 16.5391 1.56842 15.5723 1.86725C9.66602 3.62506 6.81836 6.71881 6.81836 9.97076C6.81836 14.963 12.4609 17.5997 23.2188 17.5997ZM23.7461 23.4004C29.248 23.4004 34.3105 22.504 37.8965 21.0274C38.5645 20.7462 38.8984 20.0606 38.5645 19.4454C38.248 18.8301 37.6152 18.7247 36.8242 19.0235C33.5723 20.2715 28.8438 21.1153 23.7461 21.1153C19.9844 21.1153 15.6602 20.6583 12.2852 19.6563C11.4941 19.4278 10.8438 19.6739 10.6504 20.3419C10.457 20.9922 10.791 21.6251 11.5996 21.8536C15.2383 22.8731 19.791 23.4004 23.7461 23.4004ZM24.9414 29.1309C29.5469 29.0958 33.8711 28.4278 37.8262 27.0919C38.7578 26.7579 38.8984 26.0196 38.6699 25.4747C38.4238 24.8594 37.791 24.6837 36.8945 24.9649C32.9922 26.2305 29.1074 26.8458 24.9414 26.8458C23.166 26.8458 21.3203 26.7051 19.8789 26.5118C19.0176 26.4063 18.4902 26.7403 18.3848 27.3731C18.2617 28.0059 18.5957 28.6036 19.5098 28.7618C20.8633 29.0079 22.7617 29.1485 24.9414 29.1309ZM23.3418 34.5274C26.541 34.8965 30.3906 34.8262 33.6953 33.9122C34.4863 33.7012 34.7852 32.9981 34.5918 32.3829C34.3809 31.7325 33.7656 31.4864 32.9219 31.6973C30.0742 32.4356 26.7871 32.6817 23.7285 32.295C22.8848 32.2071 22.3047 32.5938 22.2168 33.2442C22.1289 33.8946 22.4629 34.4395 23.3418 34.5274ZM22.1465 40.1172C23.2539 40.2579 24.5547 40.2403 25.6973 40.0997C26.5059 39.9942 26.875 39.4844 26.8223 38.834C26.752 38.254 26.2949 37.8321 25.4336 37.9376C24.4668 38.0606 23.3242 38.0782 22.3398 37.9551C21.5488 37.8497 21.0566 38.2715 20.9688 38.834C20.8984 39.4317 21.2676 40.0118 22.1465 40.1172Z" fill="#FF0057"/>
</svg>
