<svg width="35" height="40" viewBox="0 0 35 40" fill="none" xmlns="http://www.w3.org/2000/svg">
<path d="M17.2188 16.5996C27.9941 16.5996 34.1816 13.875 34.1816 10.166C34.1816 6.75586 29.2598 4.66406 22.2285 4.66406C16.9551 4.66406 12.8418 5.68359 9.73047 7.16016C8.88672 7.56445 8.69336 8.39062 9.00977 8.98828C9.34375 9.65625 10.2227 9.83203 10.9258 9.55078C13.7383 8.35547 17.2891 7.21289 22.0703 7.21289C27.9941 7.21289 31.4219 8.61914 31.4219 10.1484C31.4219 11.9414 26.0781 13.9629 17.0957 13.9629C8.27148 13.9629 3.56055 12.2227 3.56055 8.90039C3.56055 6.9668 5.35352 4.89258 10.4512 3.25781C11.3125 2.97656 11.6816 2.29102 11.4355 1.57031C11.1895 0.849609 10.5391 0.568359 9.57227 0.867188C3.66602 2.625 0.818359 5.71875 0.818359 8.9707C0.818359 13.9629 6.46094 16.5996 17.2188 16.5996ZM17.7461 22.4004C23.248 22.4004 28.3105 21.5039 31.8965 20.0273C32.5645 19.7461 32.8984 19.0605 32.5645 18.4453C32.248 17.8301 31.6152 17.7246 30.8242 18.0234C27.5723 19.2715 22.8438 20.1152 17.7461 20.1152C13.9844 20.1152 9.66016 19.6582 6.28516 18.6562C5.49414 18.4277 4.84375 18.6738 4.65039 19.3418C4.45703 19.9922 4.79102 20.625 5.59961 20.8535C9.23828 21.873 13.791 22.4004 17.7461 22.4004ZM18.9414 28.1309C23.5469 28.0957 27.8711 27.4277 31.8262 26.0918C32.7578 25.7578 32.8984 25.0195 32.6699 24.4746C32.4238 23.8594 31.791 23.6836 30.8945 23.9648C26.9922 25.2305 23.1074 25.8457 18.9414 25.8457C17.166 25.8457 15.3203 25.7051 13.8789 25.5117C13.0176 25.4062 12.4902 25.7402 12.3848 26.373C12.2617 27.0059 12.5957 27.6035 13.5098 27.7617C14.8633 28.0078 16.7617 28.1484 18.9414 28.1309ZM17.3418 33.5273C20.541 33.8965 24.3906 33.8262 27.6953 32.9121C28.4863 32.7012 28.7852 31.998 28.5918 31.3828C28.3809 30.7324 27.7656 30.4863 26.9219 30.6973C24.0742 31.4355 20.7871 31.6816 17.7285 31.2949C16.8848 31.207 16.3047 31.5938 16.2168 32.2441C16.1289 32.8945 16.4629 33.4395 17.3418 33.5273ZM16.1465 39.1172C17.2539 39.2578 18.5547 39.2402 19.6973 39.0996C20.5059 38.9941 20.875 38.4844 20.8223 37.834C20.752 37.2539 20.2949 36.832 19.4336 36.9375C18.4668 37.0605 17.3242 37.0781 16.3398 36.9551C15.5488 36.8496 15.0566 37.2715 14.9688 37.834C14.8984 38.4316 15.2676 39.0117 16.1465 39.1172Z" fill="#FF0057"/>
</svg>
