<svg width="47" height="44" viewBox="0 0 47 44" fill="none" xmlns="http://www.w3.org/2000/svg">
<path d="M23.2363 18.1426C34.5918 18.1426 41.3945 15.3652 41.3945 11.2344C41.3945 7.50781 36.4551 5.27539 28.5449 5.27539C23.1836 5.27539 18.7891 6.11914 15.291 7.52539C14.1484 7.98242 13.9023 9.14257 14.2539 9.95117C14.6582 10.8652 15.6777 11.2168 16.8555 10.8125C19.7734 9.77539 23.3594 8.75585 28.3516 8.75585C33.6602 8.75585 37.4922 9.82812 37.4922 11.2168C37.4922 12.957 30.9883 14.5566 23.0781 14.5566C14.0781 14.5566 9.49023 12.834 9.49023 9.5996C9.49023 7.38476 11.5996 5.52148 16.293 4.13281C17.4883 3.79882 17.9277 2.81445 17.6113 1.84765C17.2949 0.845698 16.3984 0.458979 15.0801 0.792964C8.69922 2.48046 5.58789 6.01367 5.58789 9.6875C5.58789 15.1016 11.7578 18.1426 23.2363 18.1426ZM23.7637 24.4707C29.5645 24.4707 34.9258 23.5566 38.6699 22.1152C39.6719 21.7285 40.041 20.7617 39.6367 19.9004C39.2324 19.0918 38.3184 18.8809 37.2812 19.2324C33.8535 20.4453 28.8965 21.2891 23.7637 21.2891C19.8262 21.2891 15.3965 20.8144 11.8281 19.7598C10.791 19.4434 9.91211 19.7949 9.64844 20.6914C9.38477 21.623 9.91211 22.4844 11.002 22.8008C14.8516 23.9258 19.6152 24.4707 23.7637 24.4707ZM25.1172 30.7109C29.916 30.6582 34.3633 29.9902 38.5645 28.6719C39.6895 28.3203 40.0762 27.3359 39.7422 26.4746C39.4258 25.666 38.6348 25.3144 37.5098 25.6484C33.4316 26.8965 29.4062 27.5293 24.9941 27.5293C23.1836 27.5293 21.2148 27.4062 19.7734 27.2129C18.666 27.0547 17.9453 27.582 17.7871 28.4082C17.6113 29.3047 18.1035 30.1836 19.2988 30.3594C20.7578 30.5703 22.709 30.7285 25.1172 30.7109ZM23.2539 36.6172C26.6113 37.0039 31.0059 36.8281 34.2578 36.0019C35.3125 35.7383 35.752 34.8242 35.5059 33.9453C35.2598 33.0312 34.3809 32.6621 33.3086 32.9082C30.4961 33.5586 26.9277 33.7871 23.7109 33.4883C22.5859 33.4004 21.8301 33.9805 21.7246 34.8418C21.6367 35.6328 22.0762 36.4941 23.2539 36.6172ZM22.041 42.6992C23.2715 42.8398 24.5898 42.8398 25.9258 42.6816C26.9102 42.5762 27.5078 41.9258 27.4199 40.9941C27.3496 40.1328 26.6465 39.5176 25.5742 39.6406C24.4844 39.7812 23.3418 39.7812 22.3574 39.6582C21.3027 39.5352 20.5996 40.1504 20.5117 41.0117C20.4238 41.9082 21.0215 42.5937 22.041 42.6992Z" fill="white"/>
</svg>
