<svg width="542" height="512" viewBox="0 0 542 512" fill="none" xmlns="http://www.w3.org/2000/svg">
<path fill-rule="evenodd" clip-rule="evenodd" d="M320.597 7.8232C371.911 9.56002 429.985 -10.0528 470.204 21.8324C510.247 53.5789 504.718 114.201 517.234 163.717C528.711 209.122 547.945 252.643 540.221 298.834C531.612 350.318 509.945 399.78 471.796 435.445C430.354 474.188 376.684 495.465 320.597 504.154C256.353 514.106 187.837 519.774 131.003 488.239C70.6577 454.755 23.4298 396.383 6.07561 329.637C-10.7954 264.75 9.77188 196.405 39.4972 136.3C66.1376 82.4335 108.748 36.4459 163.439 11.4495C212.284 -10.8754 266.913 6.0062 320.597 7.8232Z" fill="#FFC0B3"/>
</svg>
